<svg width="100" height="100" viewBox="0 0 100 100" fill="none" xmlns="http://www.w3.org/2000/svg">
<path d="M0 22C0 9.84974 9.84974 0 22 0H78C90.1503 0 100 9.84974 100 22V78C100 90.1503 90.1503 100 78 100H22C9.84974 100 0 90.1503 0 78V22Z" fill="url(#paint0_radial_3753_475)"/>
<path d="M6.93359 50C6.93359 73.7891 26.2109 93.0664 50 93.0664C73.7891 93.0664 93.0664 73.7891 93.0664 50C93.0664 26.2109 73.7891 6.93359 50 6.93359C26.2109 6.93359 6.93359 26.2109 6.93359 50ZM11.3281 49.9512C11.3574 28.5938 28.6914 11.2988 50.0488 11.3281C71.4062 11.3574 88.7012 28.6914 88.6719 50.0488C88.6426 71.4062 71.3379 88.6719 50 88.6719C28.6621 88.6719 11.3184 71.3281 11.3281 49.9609V49.9512Z" fill="#FF7618"/>
<path d="M76.8555 49.9999C76.854 48.2335 76.356 46.5031 75.4184 45.006V45.006C73.8503 42.5023 72.6271 39.3044 72.2441 36.3751C72.2163 36.1625 72.1816 35.9504 72.14 35.7391C71.7565 33.7922 70.8026 32.0035 69.3995 30.6004C67.9965 29.1973 66.2077 28.2434 64.2609 27.86C64.0494 27.8183 63.837 27.7836 63.6242 27.7558C60.6954 27.373 57.4979 26.1494 54.994 24.5825V24.5825C53.4968 23.6455 51.7662 23.1487 50 23.1487C48.2338 23.1487 46.5032 23.6455 45.006 24.5825V24.5825C42.5022 26.1494 39.3047 27.373 36.3759 27.7558C36.163 27.7836 35.9507 27.8183 35.7392 27.86C33.7924 28.2434 32.0036 29.1973 30.6005 30.6004C29.1975 32.0035 28.2435 33.7922 27.8601 35.7391C27.8184 35.9506 27.7837 36.1629 27.7559 36.3758C27.3732 39.3046 26.1495 42.5021 24.5826 45.0059V45.0059C23.6457 46.5031 23.1488 48.2337 23.1488 49.9999C23.1488 51.7661 23.6457 53.4967 24.5826 54.9939V54.9939C26.1495 57.4978 27.3732 60.6953 27.7559 63.6241C27.7837 63.8369 27.8184 64.0492 27.8601 64.2608C28.2435 66.2076 29.1975 67.9963 30.6005 69.3994C32.0036 70.8025 33.7924 71.7564 35.7392 72.1398C35.9507 72.1815 36.163 72.2162 36.3759 72.244C39.3047 72.6268 42.5022 73.8504 45.006 75.4173V75.4173C46.5032 76.3543 48.2338 76.8511 50 76.8511C51.7662 76.8511 53.4968 76.3543 54.994 75.4173V75.4173C57.4979 73.8504 60.6954 72.6268 63.6242 72.244C63.837 72.2162 64.0494 72.1815 64.2609 72.1398C66.2077 71.7564 67.9965 70.8025 69.3995 69.3994C70.8026 67.9963 71.7565 66.2076 72.14 64.2608C72.1816 64.0495 72.2163 63.8373 72.2441 63.6247C72.6271 60.6955 73.8503 57.4975 75.4184 54.9938V54.9938C76.356 53.4968 76.854 51.7663 76.8555 49.9999ZM67.6074 32.3925C68.6757 33.4671 69.3925 34.8409 69.6628 36.3319C69.832 37.2653 69.8212 38.2171 69.6367 39.1373C69.4416 40.11 68.4336 40.5898 67.4414 40.5858V40.5858C65.3132 40.5833 63.273 39.7367 61.7681 38.2318C60.2632 36.727 59.4167 34.6867 59.4141 32.5585V32.5585C59.4102 31.5664 59.8899 30.5583 60.8627 30.3633C61.7829 30.1787 62.7347 30.1679 63.668 30.3372C65.159 30.6075 66.5328 31.3242 67.6074 32.3925ZM58.0371 67.4413C58.0379 67.8631 57.5636 68.0673 57.2535 67.7814C57.1916 67.7243 57.1305 67.6663 57.0703 67.6073C55.195 65.7324 52.6518 64.6792 50 64.6792C47.3482 64.6792 44.805 65.7324 42.9297 67.6073C42.8695 67.6663 42.8085 67.7243 42.7466 67.7814C42.4365 68.0673 41.9622 67.8631 41.9629 67.4413V67.4413C41.9603 64.9479 40.9687 62.5574 39.2056 60.7943C37.4425 59.0312 35.052 58.0396 32.5586 58.037V58.037C32.1369 58.0378 31.9327 57.5634 32.2186 57.2534C32.2757 57.1915 32.3337 57.1304 32.3926 57.0702C34.2675 55.1949 35.3208 52.6517 35.3208 49.9999C35.3208 47.3481 34.2675 44.8049 32.3926 42.9296C32.3337 42.8694 32.2757 42.8083 32.2186 42.7464C31.9327 42.4364 32.1369 41.9621 32.5586 41.9628V41.9628C35.052 41.9602 37.4425 40.9686 39.2056 39.2055C40.9687 37.4424 41.9603 35.0519 41.9629 32.5585V32.5585C41.9622 32.1367 42.4365 31.9325 42.7466 32.2184C42.8085 32.2755 42.8695 32.3336 42.9297 32.3925C44.805 34.2674 47.3482 35.3207 50 35.3207C52.6518 35.3207 55.195 34.2674 57.0703 32.3925C57.1305 32.3336 57.1916 32.2755 57.2535 32.2184C57.5636 31.9325 58.0379 32.1367 58.0371 32.5585V32.5585C58.0397 35.0519 59.0314 37.4424 60.7944 39.2055C62.5575 40.9686 64.9481 41.9602 67.4414 41.9628V41.9628C67.8632 41.9621 68.0674 42.4364 67.7815 42.7464C67.7244 42.8083 67.6664 42.8694 67.6074 42.9296C65.7325 44.8049 64.6793 47.3481 64.6793 49.9999C64.6793 52.6517 65.7325 55.1949 67.6074 57.0702C67.6664 57.1304 67.7244 57.1915 67.7815 57.2534C68.0674 57.5634 67.8632 58.0378 67.4414 58.037V58.037C64.9481 58.0396 62.5575 59.0312 60.7944 60.7943C59.0314 62.5574 58.0397 64.9479 58.0371 67.4413V67.4413ZM50 24.5214C51.5111 24.5215 52.9916 24.9476 54.2715 25.7508C54.8393 26.1071 55.3575 26.5313 55.8157 27.0117C56.7938 28.0373 56.2667 29.5944 55.2637 30.5956V30.5956C53.8668 31.9899 51.9737 32.7729 50 32.7729C48.0264 32.7729 46.1333 31.9899 44.7364 30.5956V30.5956C43.7333 29.5944 43.2063 28.0373 44.1844 27.0117C44.6426 26.5313 45.1607 26.1071 45.7285 25.7508C47.0085 24.9476 48.4889 24.5215 50 24.5214ZM32.3926 32.3925C33.4673 31.3242 34.841 30.6075 36.332 30.3372C37.2654 30.1679 38.2172 30.1787 39.1374 30.3633C40.1102 30.5583 40.5899 31.5664 40.586 32.5585V32.5585C40.5834 34.6867 39.7368 36.727 38.232 38.2318C36.7271 39.7367 34.6868 40.5833 32.5586 40.5858V40.5858C31.5665 40.5898 30.5585 40.11 30.3634 39.1373C30.1788 38.2171 30.1681 37.2653 30.3373 36.3319C30.6076 34.8409 31.3243 33.4671 32.3926 32.3925ZM24.5215 49.9999C24.5216 48.4888 24.9477 47.0084 25.7509 45.7284C26.1073 45.1606 26.5314 44.6424 27.0119 44.1842C28.0374 43.2062 29.5945 43.7332 30.5957 44.7362V44.7362C31.99 46.1332 32.773 48.0262 32.773 49.9999C32.773 51.9736 31.99 53.8666 30.5957 55.2636V55.2636C29.5945 56.2666 28.0374 56.7936 27.0119 55.8156C26.5314 55.3574 26.1073 54.8392 25.7509 54.2714C24.9477 52.9914 24.5216 51.511 24.5215 49.9999ZM32.3926 67.6073C31.3243 66.5327 30.6076 65.1589 30.3373 63.6679C30.1681 62.7345 30.1788 61.7828 30.3634 60.8625C30.5585 59.8898 31.5665 59.41 32.5586 59.414V59.414C34.6868 59.4166 36.7271 60.2631 38.232 61.768C39.7368 63.2728 40.5834 65.3131 40.586 67.4413V67.4413C40.5899 68.4334 40.1102 69.4415 39.1374 69.6366C38.2172 69.8211 37.2654 69.8319 36.332 69.6627C34.841 69.3924 33.4673 68.6756 32.3926 67.6073ZM50 75.4784C48.4889 75.4783 47.0085 75.0522 45.7285 74.249C45.1607 73.8927 44.6426 73.4685 44.1844 72.9881C43.2063 71.9625 43.7333 70.4054 44.7364 69.4042V69.4042C46.1333 68.01 48.0264 67.2269 50 67.2269C51.9737 67.2269 53.8668 68.01 55.2637 69.4042V69.4042C56.2667 70.4054 56.7938 71.9625 55.8157 72.9881C55.3575 73.4685 54.8393 73.8927 54.2715 74.249C52.9916 75.0522 51.5111 75.4783 50 75.4784ZM67.6074 67.6073C66.5328 68.6756 65.159 69.3924 63.668 69.6627C62.7347 69.8319 61.7829 69.8211 60.8627 69.6366C59.8899 69.4415 59.4102 68.4334 59.4141 67.4413V67.4413C59.4167 65.3131 60.2632 63.2728 61.7681 61.768C63.273 60.2631 65.3132 59.4166 67.4414 59.414V59.414C68.4336 59.41 69.4416 59.8898 69.6367 60.8625C69.8212 61.7828 69.832 62.7345 69.6628 63.6679C69.3925 65.1589 68.6757 66.5327 67.6074 67.6073ZM72.988 55.8153C71.9626 56.7934 70.4055 56.2666 69.4043 55.2636V55.2636C68.0101 53.8666 67.227 51.9736 67.227 49.9999C67.227 48.0262 68.0101 46.1332 69.4043 44.7362V44.7362C70.4055 43.7333 71.9626 43.2064 72.988 44.1846C73.4683 44.6428 73.8923 45.1609 74.2485 45.7286C75.0515 47.0086 75.4774 48.4889 75.4774 49.9999C75.4774 51.5109 75.0515 52.9912 74.2485 54.2712C73.8923 54.8389 73.4683 55.3571 72.988 55.8153Z" fill="#FFE0CB"/>
<defs>
<radialGradient id="paint0_radial_3753_475" cx="0" cy="0" r="1" gradientUnits="userSpaceOnUse" gradientTransform="translate(34.375 34.375) scale(50)">
<stop stop-color="#3A2A1D"/>
<stop offset="1" stop-color="#241405"/>
</radialGradient>
</defs>
</svg>
