<svg width="20" height="20" viewBox="0 0 20 20" fill="none" xmlns="http://www.w3.org/2000/svg">
<path d="M7.11667 8.94167C7.03333 8.68333 6.95833 8.43333 6.875 8.175C6.79167 7.91667 6.71667 7.675 6.65 7.43333C6.58333 7.2 6.525 6.98333 6.46667 6.78333H6.45C6.375 7.14167 6.28333 7.5 6.16667 7.85833C6.04167 8.25833 5.91667 8.675 5.78333 9.09167C5.675 9.51667 5.54167 9.90833 5.41667 10.2583H7.53333C7.48333 10.0833 7.41667 9.875 7.34167 9.65833C7.26667 9.43333 7.19167 9.19167 7.11667 8.94167ZM14.2667 8.7C13.8083 8.675 13.375 8.91667 13.1583 9.33333C13.0583 9.525 13 9.725 12.975 9.93333H14.7325C14.9492 9.93333 15.1075 9.93333 15.2075 9.925C15.2742 9.91667 15.3408 9.9 15.3992 9.85833V9.775C15.3992 9.66667 15.3817 9.56667 15.3483 9.46667C15.2 9 14.7583 8.68333 14.2667 8.7ZM16.4583 0.25H3.54167C1.58333 0.25 0 1.83333 0 3.79167V16.2083C0 18.1667 1.58333 19.75 3.54167 19.75H16.4583C18.4167 19.75 20 18.1667 20 16.2083V3.79167C20 1.83333 18.4167 0.25 16.4583 0.25ZM10.5917 14.0092H8.85C8.79167 14.0175 8.73333 13.975 8.71667 13.9175L8.03333 11.9175H4.93333L4.3 13.8842C4.28333 13.9592 4.21667 14.0092 4.14167 14.0008H2.575C2.48333 14.0008 2.45833 13.9508 2.48333 13.8508L5.16667 6.15833C5.19167 6.075 5.21667 6 5.25 5.9C5.28333 5.725 5.3 5.54167 5.3 5.35833C5.29167 5.31667 5.325 5.275 5.36667 5.26667H7.525C7.58333 5.26667 7.625 5.29167 7.63333 5.33333L10.675 13.875C10.7 13.9667 10.6758 14.0092 10.5917 14.0092ZM17.1342 10.6833C17.1167 10.8408 17.1083 10.9583 17.1 11.0333C17.0917 11.0917 17.0425 11.1417 16.9833 11.1417C16.9333 11.1417 16.8417 11.15 16.7083 11.1592C16.5758 11.1758 16.4167 11.1833 16.2258 11.1833C16.0342 11.1833 15.8333 11.15 15.6175 11.15H12.9758C13.0083 11.4083 13.0925 11.6667 13.2342 11.8917C13.385 12.1175 13.5933 12.2917 13.8417 12.3925C14.175 12.5342 14.5425 12.6092 14.9092 12.6008C15.2008 12.5917 15.4917 12.5675 15.775 12.5092C16.0342 12.4767 16.2833 12.41 16.5175 12.3175C16.5592 12.285 16.5842 12.3008 16.5842 12.3842V13.66C16.5842 13.6925 16.5758 13.7267 16.5667 13.7592C16.5492 13.7842 16.5333 13.8017 16.5092 13.8175C16.2425 13.9342 15.9675 14.0175 15.6758 14.0675C15.2833 14.1425 14.8925 14.1758 14.4925 14.1675C13.8583 14.1675 13.3258 14.0675 12.8925 13.8758C12.4842 13.7 12.125 13.425 11.8417 13.0842C11.5758 12.7592 11.3833 12.3925 11.2667 11.9925C11.15 11.6 11.0925 11.1917 11.0925 10.775C11.0925 10.3258 11.1592 9.88333 11.3008 9.45C11.4342 9.03333 11.6425 8.65 11.9258 8.30833C12.2008 7.975 12.5417 7.70833 12.9333 7.51667C13.3258 7.325 13.7917 7.25833 14.325 7.25833C14.7675 7.25 15.2083 7.33333 15.6167 7.51667C15.9583 7.66667 16.2583 7.89167 16.4917 8.18333C16.7083 8.46667 16.8833 8.78333 16.9925 9.13333C17.1 9.46667 17.15 9.80833 17.15 10.15C17.15 10.35 17.1417 10.525 17.1342 10.6833Z" fill="#001E44"/>
</svg>
