<svg width="100" height="100" viewBox="0 0 100 100" fill="none" xmlns="http://www.w3.org/2000/svg">
<path d="M99.1183 70.9865C100.367 72.736 100.117 74.9853 98.619 76.235C96.8713 77.4846 94.3746 77.2347 93.1263 75.7351L84.3879 64.4883L75.8992 75.4852C74.6508 77.2347 72.1541 77.2347 70.4065 75.985C68.6588 74.7354 68.4091 72.486 69.6575 70.7365L79.6442 57.7402L69.6575 44.7439C68.4091 42.9944 68.9085 40.4951 70.4065 39.2454C72.1541 37.9958 74.6508 38.4956 75.8992 39.9952L84.3879 51.242L93.1263 40.4951C94.3746 38.7456 96.6216 38.4956 98.619 39.7453C100.367 40.9949 100.367 43.4942 99.1183 45.2437L89.3813 57.9901L99.1183 70.9865ZM53.6787 69.4869C47.1873 69.4869 41.9443 64.4883 41.9443 57.9901C41.9443 51.7419 47.1873 46.4934 53.6787 46.4934C60.1701 46.4934 65.4131 51.7419 65.4131 57.9901C65.1634 64.4883 59.9204 69.4869 53.6787 69.4869ZM19.2245 69.4869C12.7331 69.4869 7.49005 64.4883 7.49005 57.9901C7.49005 51.7419 12.7331 46.4934 19.2245 46.4934C25.7158 46.4934 30.9589 51.7419 30.9589 57.9901C30.9589 64.4883 25.7158 69.4869 19.2245 69.4869ZM53.6787 38.9955C46.4383 38.9955 39.9469 42.9944 36.7012 48.9927C33.4556 42.9944 26.9642 38.9955 19.4741 38.9955C14.9801 38.9955 10.9854 40.4951 7.73972 42.7444V26.7489C7.73972 24.7495 5.99204 23 3.99469 23C1.74768 23 0 24.7495 0 26.7489V58.2401C0.249668 68.7371 8.73839 76.9848 19.2245 76.9848C26.7145 76.9848 33.2059 72.736 36.4516 66.7376C39.6973 72.736 46.1886 76.9848 53.429 76.9848C64.1648 76.9848 72.9032 68.4872 72.9032 57.7402C73.1528 47.4931 64.4144 38.9955 53.6787 38.9955Z" fill="#0071F7"/>
</svg>
