<svg width="11" height="7" viewBox="0 0 11 7" fill="none" xmlns="http://www.w3.org/2000/svg">
<path fill-rule="evenodd" clip-rule="evenodd" d="M0.757304 5.78009C0.897929 5.92054 1.08855 5.99943 1.2873 5.99943C1.48605 5.99943 1.67668 5.92054 1.8173 5.78009L5.5373 2.06009L9.2573 5.78009C9.32597 5.85378 9.40877 5.91288 9.50077 5.95387C9.59276 5.99486 9.69208 6.01691 9.79278 6.01868C9.89349 6.02046 9.99351 6.00193 10.0869 5.96421C10.1803 5.92649 10.2651 5.87035 10.3363 5.79913C10.4076 5.72791 10.4637 5.64308 10.5014 5.54969C10.5391 5.4563 10.5577 5.35627 10.5559 5.25557C10.5541 5.15487 10.5321 5.05555 10.4911 4.96355C10.4501 4.87155 10.391 4.78875 10.3173 4.72009L6.0673 0.470091C5.92668 0.32964 5.73605 0.250751 5.5373 0.250751C5.33855 0.250751 5.14793 0.32964 5.0073 0.470091L0.757304 4.72009C0.616853 4.86072 0.537964 5.05134 0.537964 5.25009C0.537964 5.44884 0.616853 5.63947 0.757304 5.78009Z" fill="#001E44"/>
</svg>
