<?xml version="1.0" encoding="UTF-8"?>
<svg id="Layer_1" xmlns="http://www.w3.org/2000/svg" version="1.1" viewBox="0 0 39.5 40.9">
  <!-- Generator: Adobe Illustrator 29.2.1, SVG Export Plug-In . SVG Version: 2.1.0 Build 116)  -->
  <defs>
    <style>
      .st0 {
        fill: #ca3fc0;
      }
    </style>
  </defs>
  <path class="st0" d="M35.2,5.7L18.5.3c-2.6-.8-5.4,0-7,2.3L1.2,16.8c-1.6,2.2-1.6,5.2,0,7.4l10.3,14.2c1.6,2.2,4.4,3.1,7,2.3l16.7-5.4c2.6-.8,4.4-3.3,4.4-6V11.7c0-2.7-1.8-5.1-4.4-6ZM31.9,20c0,.6,0,1.1-.1,1.7,0,0,0,.2,0,.2-.2.8-.4,1.6-.8,2.4-.6,1.3-1.5,2.5-2.5,3.6-1,1-2.3,1.8-3.6,2.3-1.3.5-2.8.7-4.2.7-1.4,0-2.8-.4-4-1-1.3-.6-2.4-1.4-3.3-2.4-.9-1-1.6-2.2-2.1-3.5-.5-1.3-.7-2.6-.6-4,0-1.3.4-2.7.9-3.9.5-1.2,1.3-2.3,2.3-3.2.9-.9,2-1.6,3.2-2,1.2-.4,2.4-.6,3.7-.6,1.2,0,2.5.3,3.6.9,1.1.5,2.1,1.3,2.9,2.2.8.9,1.4,1.9,1.9,3.1.2.6.4,1.2.5,1.9h-.1c-.4-1.8-1.3-3.3-2.6-4.6-1.7-1.5-3.9-2.4-6.1-2.3-2.2,0-4.2,1.1-5.7,2.7-.7.8-1.2,1.7-1.6,2.7-.4,1-.5,2-.5,3.1,0,2,1,4,2.5,5.3,1.4,1.3,3.3,2,5.3,1.9.9,0,1.8-.3,2.7-.7.8-.4,1.6-1,2.2-1.7l.2-.2c.9-1.1,1.4-2.4,1.5-3.8,0-.5,0-1,0-1.5h4.6s0,.6,0,.6Z"/>
  <g>
    <g>
      <polygon class="st0" points="126.5 11.6 113.4 11.6 113.4 14.6 118.2 14.6 118.2 27.3 121.6 27.3 121.6 14.6 126.5 14.6 126.5 11.6"/>
      <path class="st0" d="M140.9,19.4c0,4.7-3.1,8.1-7.4,8.1s-7.4-3.4-7.4-8.1,3.1-8.1,7.4-8.1,7.4,3.4,7.4,8.1ZM133.5,14.4c-2.4,0-4,2-4,5s1.6,5,4,5,4-2,4-5-1.6-5-4-5Z"/>
      <polygon class="st0" points="153.3 11.6 140.3 11.6 140.3 14.6 145.1 14.6 145.1 27.3 148.5 27.3 148.5 14.6 153.3 14.6 153.3 11.6"/>
      <path class="st0" d="M160.4,11.7l5.8,15.5h-3.5l-1.2-3.3h-6.2l-1.2,3.3h-3.4v-.2c0,0,5.8-15.5,5.8-15.5h3.8ZM158.5,15.6l-2,5.4h4l-2-5.4Z"/>
      <polygon class="st0" points="170.4 11.6 167 11.6 167 27.3 177.5 27.3 177.5 24.3 170.4 24.3 170.4 11.6"/>
      <polygon class="st0" points="182.1 11.6 178.7 11.6 178.7 27.3 189.1 27.3 189.1 24.3 182.1 24.3 182.1 11.6"/>
      <polygon class="st0" points="196.4 11.6 192.7 17.7 189 11.6 185.3 11.6 190.9 20.9 190.9 27.3 194.4 27.3 194.4 20.9 200 11.6 196.4 11.6"/>
    </g>
    <path class="st0" d="M57.8,24.5c1.7,0,2.9-1,3.3-2.7l2.9,1c-.9,2.8-3.1,4.5-6.2,4.5s-7.1-3.2-7.1-7.8,3-7.8,7.1-7.8,5.3,1.7,6.2,4.5l-2.9,1c-.4-1.7-1.6-2.7-3.3-2.7s-4,2-4,5.1,1.6,5.1,4,5.1Z"/>
    <path class="st0" d="M72.3,18.8c-.3,0-.6,0-1,0-1.5,0-2.7,1-2.7,2.7v5.7h-3v-11.2h3v1.6c.5-1,1.6-1.6,3-1.6s.5,0,.7,0v2.9Z"/>
    <path class="st0" d="M72.8,21.4c0-3.3,2.3-5.8,5.4-5.8s5.1,2.5,5.1,5.6v.9h-7.7c.2,1.7,1.3,2.7,2.7,2.7s2.1-.6,2.4-1.6l2.5.9c-.8,2-2.7,3.2-4.9,3.2-3.3,0-5.5-2.4-5.5-5.8ZM75.7,20.1h4.6c0-1.1-.7-2.1-2.2-2.1s-2.1.7-2.5,2.1Z"/>
    <path class="st0" d="M84.5,23.9c0-2.2,1.8-3.2,4-3.6l2.8-.5v-.2c0-1-.5-1.5-1.7-1.5s-1.7.5-1.9,1.5l-2.8-.5c.5-1.9,2.2-3.4,4.9-3.4s4.5,1.3,4.5,3.9v4.6c0,.6.3.8.9.7v2.2c-1.9.3-3-.1-3.5-1-.7.8-1.8,1.2-3.3,1.2-2.2,0-3.8-1.3-3.8-3.3ZM91.3,21.9l-2.2.4c-1,.2-1.7.5-1.7,1.4s.6,1.2,1.5,1.2,2.4-.7,2.4-1.9v-1.1Z"/>
    <path class="st0" d="M97,18.3h-1.5v-2.5h1.5v-3.2h2.9v3.2h2.3v2.5h-2.3v5.2c0,1,.5,1.1,1.4,1.1s.6,0,1,0v2.5c-.5.1-1.2.2-1.9.2-2.2,0-3.4-.7-3.4-3v-5.8Z"/>
    <path class="st0" d="M103.4,21.4c0-3.3,2.3-5.8,5.4-5.8s5.1,2.5,5.1,5.6v.9h-7.7c.2,1.7,1.3,2.7,2.7,2.7s2.1-.6,2.4-1.6l2.5.9c-.8,2-2.7,3.2-4.9,3.2-3.3,0-5.5-2.4-5.5-5.8ZM106.4,20.1h4.6c0-1.1-.7-2.1-2.2-2.1s-2.1.7-2.5,2.1Z"/>
  </g>
</svg>