<?xml version="1.0" encoding="UTF-8"?>
<svg id="Layer_1" xmlns="http://www.w3.org/2000/svg" version="1.1" viewBox="0 0 200 178.7">
  <!-- Generator: Adobe Illustrator 29.2.1, SVG Export Plug-In . SVG Version: 2.1.0 Build 116)  -->
  <defs>
    <style>
      .st0 {
        fill: #0066da;
      }

      .st1 {
        fill: #2684fc;
      }

      .st2 {
        fill: #00832d;
      }

      .st3 {
        fill: #00ac47;
      }

      .st4 {
        fill: #ea4335;
      }

      .st5 {
        fill: #ffba00;
      }
    </style>
  </defs>
  <path class="st0" d="M15.1,153.2l8.8,15.2c1.8,3.2,4.5,5.7,7.6,7.6l31.5-54.5H0c0,3.6.9,7.1,2.7,10.3l12.4,21.4Z"/>
  <path class="st3" d="M100,57.3L68.5,2.7c-3.1,1.8-5.7,4.4-7.6,7.6L2.7,111.1C1,114.2,0,117.8,0,121.4h63l37-64.1Z"/>
  <path class="st4" d="M168.5,175.9c3.1-1.8,5.7-4.4,7.6-7.6l3.7-6.3,17.5-30.4c1.8-3.2,2.7-6.8,2.7-10.3h-63l13.4,26.3,18.1,28.2Z"/>
  <path class="st2" d="M100,57.3L131.5,2.7c-3.1-1.8-6.6-2.7-10.3-2.7h-42.4c-3.7,0-7.2,1-10.3,2.7l31.5,54.5Z"/>
  <path class="st1" d="M137,121.4H63l-31.5,54.5c3.1,1.8,6.6,2.7,10.3,2.7h116.4c3.7,0,7.2-1,10.3-2.7l-31.5-54.5Z"/>
  <path class="st5" d="M168.2,60.7l-29.1-50.4c-1.8-3.2-4.5-5.7-7.6-7.6l-31.5,54.5,37,64.1h62.9c0-3.6-.9-7.1-2.7-10.3l-29-50.4Z"/>
</svg>