<svg width="20" height="20" viewBox="0 0 20 20" fill="none" xmlns="http://www.w3.org/2000/svg">
<path d="M10.0288 16.3405L5.47803 19.7163C5.20751 19.9055 4.92729 19.9906 4.63746 19.9717C4.34759 19.9528 4.08672 19.8677 3.85485 19.7163C3.62294 19.5651 3.45868 19.357 3.36207 19.0923C3.26546 18.8275 3.25581 18.5438 3.33311 18.2412L5.07224 12.7093L0.637462 9.56034C0.366914 9.3712 0.18817 9.14426 0.101214 8.87949C0.0142574 8.61473 0.0190878 8.34992 0.115705 8.08515C0.212323 7.83928 0.362083 7.62179 0.564983 7.43268C0.767896 7.24354 1.0529 7.14898 1.42007 7.14898H6.89833L8.69542 1.36175C8.77272 1.04026 8.93694 0.799111 9.18816 0.638345C9.43937 0.477579 9.7099 0.397217 9.99977 0.397217C10.2896 0.397217 10.5602 0.477579 10.8114 0.638345C11.0625 0.799111 11.2365 1.04026 11.3331 1.36175L13.1012 7.14898H18.6085C18.9563 7.14898 19.2316 7.24354 19.4345 7.43268C19.6375 7.62179 19.7872 7.83928 19.8838 8.08515C19.9805 8.34992 19.9853 8.61473 19.8983 8.87949C19.8114 9.14426 19.6326 9.3712 19.3621 9.56034L14.9273 12.7093L16.6664 18.2128C16.7437 18.5343 16.7341 18.8227 16.6375 19.078C16.5408 19.3334 16.3766 19.5367 16.1447 19.688C15.9128 19.8582 15.6568 19.9528 15.3766 19.9717C15.0964 19.9906 14.821 19.896 14.5505 19.688L10.0288 16.3405Z" fill="#001E44"/>
</svg>
