<svg width="14" height="20" viewBox="0 0 14 20" fill="none" xmlns="http://www.w3.org/2000/svg">
<path d="M10.21 7.48417H6.38665V0H10.21C12.2733 0 13.9517 1.67833 13.9517 3.74167C13.9517 5.805 12.2733 7.48417 10.21 7.48417ZM7.61248 6.25833H10.21C11.5975 6.25833 12.7258 5.12917 12.7258 3.7425C12.7258 2.35583 11.5967 1.22667 10.21 1.22667H7.61248V6.25833ZM7.61248 7.48417H3.78998C1.72665 7.48417 0.0483186 5.80583 0.0483186 3.7425C0.0483186 1.67917 1.72665 0 3.78998 0H7.61332V7.48417H7.61248ZM3.78998 1.22583C2.40249 1.22583 1.27415 2.355 1.27415 3.74167C1.27415 5.12833 2.40249 6.25833 3.78998 6.25833H6.38749V1.22583H3.78998ZM7.61248 13.7417H3.78998C1.72665 13.7417 0.0483186 12.0633 0.0483186 10C0.0483186 7.93667 1.72665 6.25833 3.78998 6.25833H7.61332V13.7417H7.61248ZM3.78998 7.48417C2.40249 7.48417 1.27415 8.61333 1.27415 10C1.27415 11.3867 2.40332 12.5158 3.78998 12.5158H6.38749V7.48417H3.78998ZM3.80999 20C1.73582 20 0.0474854 18.3217 0.0474854 16.2583C0.0474854 14.195 1.72582 12.5167 3.78915 12.5167H7.61248V16.2175C7.61248 18.3033 5.90665 20 3.80999 20ZM3.78998 13.7417C3.12302 13.7425 2.48362 14.0079 2.012 14.4795C1.54038 14.9511 1.27503 15.5905 1.27415 16.2575C1.27415 17.645 2.41165 18.7733 3.81082 18.7733C5.23165 18.7733 6.38832 17.6267 6.38832 16.2167V13.7417H3.78998ZM10.21 13.7417H10.1283C8.06499 13.7417 6.38665 12.0633 6.38665 10C6.38665 7.93667 8.06499 6.25833 10.1283 6.25833H10.21C12.2733 6.25833 13.9517 7.93667 13.9517 10C13.9517 12.0633 12.2733 13.7417 10.21 13.7417ZM10.1292 7.48417C8.74165 7.48417 7.61332 8.61333 7.61332 10C7.61332 11.3867 8.74249 12.5158 10.1292 12.5158H10.2108C11.5983 12.5158 12.7267 11.3867 12.7267 10C12.7267 8.61333 11.5967 7.48417 10.21 7.48417H10.1292Z" fill="#CA3FC0"/>
</svg>
