<svg width="20" height="20" viewBox="0 0 20 20" fill="none" xmlns="http://www.w3.org/2000/svg">
<path d="M3.54167 0.25C1.58333 0.25 0 1.83333 0 3.79167V16.2083C0 18.1667 1.58333 19.75 3.54167 19.75H16.4583C18.4167 19.75 20 18.1667 20 16.2083V3.79167C20 1.83333 18.4167 0.25 16.4583 0.25H3.54167ZM12.9667 4.525H14.6583C14.7 4.51667 14.7333 4.55 14.7417 4.58333V12.5333C14.7417 12.6833 14.75 12.85 14.7583 13.0333C14.775 13.2083 14.7833 13.375 14.7917 13.5167C14.7917 13.575 14.7667 13.625 14.7083 13.65C14.275 13.8333 13.8167 13.9667 13.35 14.05C12.9333 14.125 12.5 14.1667 12.0667 14.1667C11.45 14.175 10.8333 14.05 10.275 13.7917C9.75 13.55 9.31667 13.15 9.01667 12.6583C8.70833 12.15 8.55833 11.5167 8.55833 10.7583C8.55 10.1417 8.70833 9.53333 9.01667 9C9.33333 8.45833 9.79167 8.00833 10.3417 7.70833C10.925 7.38333 11.625 7.225 12.45 7.225C12.4917 7.225 12.55 7.225 12.625 7.23333C12.7 7.24167 12.7833 7.24167 12.8833 7.25V4.61667C12.8833 4.55833 12.9083 4.525 12.9667 4.525ZM5.525 5.24167H7.15C7.2 5.23333 7.25 5.26667 7.25833 5.325C7.26667 5.33333 7.26667 5.34167 7.26667 5.35V13.9C7.26667 13.9917 7.225 14.0333 7.15 14.0333H5.51667C5.44167 14.0333 5.40833 13.9917 5.40833 13.9V5.35C5.40833 5.275 5.45 5.24167 5.525 5.24167ZM12.3833 8.775C12.0583 8.775 11.7333 8.84167 11.4417 8.99167C11.1583 9.13333 10.9167 9.34167 10.7333 9.60833C10.55 9.875 10.4583 10.2333 10.4583 10.6667C10.45 10.9583 10.5 11.25 10.6 11.525C10.6833 11.75 10.8083 11.95 10.975 12.1167C11.1333 12.2667 11.325 12.3833 11.5417 12.45C11.7667 12.525 12 12.5583 12.2333 12.5583C12.3583 12.5583 12.475 12.55 12.5833 12.5417C12.6917 12.55 12.7917 12.5333 12.8833 12.5V8.83333C12.8083 8.81667 12.7333 8.8 12.6583 8.79167C12.5667 8.78333 12.475 8.775 12.3833 8.775Z" fill="#001E44"/>
</svg>
