<?xml version="1.0" encoding="UTF-8"?>
<svg id="Layer_1" xmlns="http://www.w3.org/2000/svg" xmlns:xlink="http://www.w3.org/1999/xlink" version="1.1" viewBox="0 0 100 38.3">
  <!-- Generator: Adobe Illustrator 29.2.1, SVG Export Plug-In . SVG Version: 2.1.0 Build 116)  -->
  <defs>
    <style>
      .st0 {
        fill: none;
      }

      .st1 {
        fill: #fff;
      }

      .st2 {
        fill-opacity: 0;
      }
    </style>
  </defs>
  <g id="Background">
    <rect class="st2" width="100" height="38.3"/>
  </g>
  <g id="Layer_11" data-name="Layer_1">
    <path class="st0" d="M0,38.3h100V0H0v38.3Z"/>
    <path class="st1" d="M79.6,21.1v1c0,.8.7,1.6,1.9,1.6,1.7,0,2.3-1.3,2.5-1.8,1.8,0,3.2,0,3.7,0-.6,1.7-2.9,3.8-7.1,3.8s-7.2-3-7.2-5.3,2-5.3,7.2-5.3,7.2,2.6,7.2,5.3,0,.7,0,.7h-8.2ZM79.6,19.5h2.1v-1.3c0-.4-.3-1-1.1-1s-1,.6-1,1v1.3ZM64.3,23.1h-1.5v2.1h10.1v-2.1h-1.5v-10.7h-8.5v2.1h1.5v8.6ZM53.9,21.1v1c0,.8.7,1.6,1.9,1.6,1.7,0,2.3-1.3,2.5-1.8,1.8,0,3.2,0,3.7,0-.6,1.7-2.9,3.8-7.1,3.8s-7.2-3-7.2-5.3,2-5.3,7.2-5.3,7.2,2.6,7.2,5.3,0,.7,0,.7h-8.2ZM53.9,19.5h2.1v-1.3c0-.4-.3-1-1.1-1s-1,.6-1,1v1.3ZM44.4,13.8l-1-1.9-3.1,1.6,1,1.9,3.1-1.6ZM45.7,15.6h-8.3v2.1h1.5v5.4h-1.5v2.1h9.8v-2.1h-1.5v-7.5ZM28.5,12.4h7.5v2.1h-1.5v8.6h1.5v2.1h-9.8v-2.1h1.5v-5.6l-5.6,7.7-5.6-7.7v5.6h1.5v2.1h-5.4v-2.1h1.5v-8.6h-1.5v-2.1h8.5l3.6,5,3.6-5Z"/>
  </g>
</svg>