<svg width="17" height="16" viewBox="0 0 17 16" fill="none" xmlns="http://www.w3.org/2000/svg">
<path d="M14.0788 5.88506L10.6005 2.41124L11.7668 1.24649C12.0805 0.933163 12.466 0.776501 12.9232 0.776501C13.3804 0.776501 13.7656 0.933163 14.0788 1.24649L15.245 2.41124C15.5588 2.72456 15.7156 3.10954 15.7156 3.56618C15.7156 4.02282 15.5588 4.40753 15.245 4.72031L14.0788 5.88506ZM1.10693 15.3665V11.8927L4.78979 8.21456L0.472656 3.86207L4.33966 0L8.67726 4.35249L9.45475 3.57599L12.933 7.02938L12.1555 7.80588L16.4727 12.1584L12.6261 16L8.26805 11.6679L4.58519 15.3665H1.10693ZM5.95603 7.04981L7.51102 5.49681L6.52892 4.51596L5.54683 5.47637L4.40105 4.33206L5.36268 3.35121L4.3192 2.3295L2.78468 3.8825L5.95603 7.04981ZM12.6056 13.6909L14.1606 12.1379L13.1172 11.1162L12.1555 12.0766L10.9893 10.9323L11.9714 9.95147L10.9688 8.97063L9.41383 10.5236L12.6056 13.6909Z" fill="#F4F0EB"/>
</svg>
