<?xml version="1.0" encoding="UTF-8"?>
<svg id="Layer_1" xmlns="http://www.w3.org/2000/svg" version="1.1" viewBox="0 0 93.8 93.8">
  <!-- Generator: Adobe Illustrator 29.2.1, SVG Export Plug-In . SVG Version: 2.1.0 Build 116)  -->
  <path d="M92.9,5.3l-10.3,10.3,1.9,1.8c4.7,4.7,4.7,12.3,0,16.9l-10.2,10.2,1.9,1.9c1.2,1.2,1.2,3.2,0,4.4-1.2,1.2-3.2,1.2-4.4,0l-4.2-4.2-20.6-20.6-4.2-4.2c-.6-.6-.9-1.4-.9-2.2s.3-1.6.9-2.2c1.2-1.2,3.2-1.2,4.4,0l1.9,1.9,10.2-10.2h0c4.7-4.7,12.2-4.7,16.9,0l1.8,1.9L88.4.9c1.2-1.2,3.2-1.2,4.4,0,1.2,1.2,1.2,3.2,0,4.4h0ZM50.8,50.8l-10.4,10.4-7.8-7.8,10.4-10.4h0c1.2-1.2,1.2-3.2,0-4.4s-3.2-1.2-4.4,0l-10.4,10.4-2-1.9-4.2-4.2c-.6-.6-1.4-.9-2.2-.9s-1.6.3-2.2.9c-1.2,1.2-1.2,3.2,0,4.4l1.9,1.9-10.2,10.2c-4.7,4.7-4.7,12.2,0,16.9l1.9,1.8L.9,88.4c-1.2,1.2-1.2,3.2,0,4.4,1.2,1.2,3.2,1.2,4.4,0l10.3-10.3,1.8,1.9c4.7,4.7,12.3,4.7,16.9,0l10.2-10.2,1.9,1.9c.6.6,1.4.9,2.2.9.8,0,1.6-.3,2.2-.9.6-.6.9-1.4.9-2.2s-.3-1.6-.9-2.2l-4.2-4.2-1.9-2,10.4-10.4h0c1.2-1.2,1.2-3.2,0-4.4-1.2-1.2-3.2-1.2-4.4,0h0Z"/>
</svg>