<svg width="97" height="96" viewBox="0 0 97 96" fill="none" xmlns="http://www.w3.org/2000/svg">
<g id="Frame" clip-path="url(#clip0_19_8)">
<path id="Vector" d="M32.9727 95.8002L24.3727 81.2002L7.87266 77.5002L9.57266 60.7002L-1.52734 48.0002L9.57266 35.3002L7.87266 18.5002L24.3727 14.8002L32.9727 0.200195L48.4727 6.8002L63.9727 0.200195L72.5727 14.8002L89.0727 18.5002L87.3727 35.3002L98.4727 48.0002L87.3727 60.7002L89.0727 77.5002L72.5727 81.2002L63.9727 95.8002L48.4727 89.2002L32.9727 95.8002ZM44.2727 64.1002L68.7727 39.5002L61.2727 32.1002L44.2727 49.1002L35.7727 40.5002L28.1727 48.0002L44.2727 64.1002Z" fill="#853FCA"/>
</g>
<defs>
<clipPath id="clip0_19_8">
<rect width="96" height="96" fill="white" transform="translate(0.472656)"/>
</clipPath>
</defs>
</svg>
