<svg width="100" height="100" viewBox="0 0 100 100" fill="none" xmlns="http://www.w3.org/2000/svg">
<path fill-rule="evenodd" clip-rule="evenodd" d="M84.4167 17.2917L67.125 50.2084L84.4167 83.1251L91.5 79.1667V21.2501L84.4167 17.2917Z" fill="#E25444"/>
<path fill-rule="evenodd" clip-rule="evenodd" d="M84.4167 17.2917L49.8334 21.2501L32.2292 50.2084L49.8334 79.1667L84.4167 83.1251V17.2917Z" fill="#7B1D13"/>
<path fill-rule="evenodd" clip-rule="evenodd" d="M14.625 17.2917L9 19.7917V80.6251L14.625 83.1251L49.8333 50.2084L14.625 17.2917Z" fill="#58150D"/>
<path fill-rule="evenodd" clip-rule="evenodd" d="M14.5493 17.2222L49.8799 27.037V74.259L14.5493 83.148V17.2222Z" fill="#E25444"/>
<path fill-rule="evenodd" clip-rule="evenodd" d="M49.8986 32.2222L34.897 29.8147L49.8986 12.7776L64.8632 29.8147L49.8986 32.2222Z" fill="#58150D"/>
<path fill-rule="evenodd" clip-rule="evenodd" d="M64.8632 29.8147L49.8801 32.259L34.897 29.8147V12.7776" fill="#58150D"/>
<path fill-rule="evenodd" clip-rule="evenodd" d="M49.8986 67.9629L34.897 70.7408L49.8986 85.3704L64.8632 70.7408L49.8986 67.9629Z" fill="#58150D"/>
<path fill-rule="evenodd" clip-rule="evenodd" d="M49.8333 0L34.8333 7.91667V29.7917L49.8799 25.5556L49.8333 0Z" fill="#7B1D13"/>
<path fill-rule="evenodd" clip-rule="evenodd" d="M49.8801 37.5925L34.897 39.2223V61.0636L49.8801 62.7777V37.5925Z" fill="#7B1D13"/>
<path fill-rule="evenodd" clip-rule="evenodd" d="M49.8801 74.4444L34.897 70.6875V92.159L49.8801 100V74.4444Z" fill="#7B1D13"/>
<path fill-rule="evenodd" clip-rule="evenodd" d="M64.8633 70.6875L49.8801 74.4454V100L64.8633 92.159V70.6875Z" fill="#E25444"/>
<path fill-rule="evenodd" clip-rule="evenodd" d="M49.8801 37.5925L64.8633 39.2223V61.0636L49.8801 62.7777V37.5925Z" fill="#E25444"/>
<path fill-rule="evenodd" clip-rule="evenodd" d="M49.8333 0L64.8333 7.91667V29.7917L49.8333 25.625V0Z" fill="#E25444"/>
</svg>
