<svg width="100" height="100" viewBox="0 0 100 100" fill="none" xmlns="http://www.w3.org/2000/svg">
<path fill-rule="evenodd" clip-rule="evenodd" d="M0 97.0931H81.6693V84.6693H12.4238V15.4238H81.7014V60.8812H75.7624L87.8652 73.016L100 60.8812H94.0931V3H0L0 97.0931ZM31.4928 23.0642C33.0979 22.8074 34.9278 22.6148 37.0466 22.4543C39.1653 22.2937 41.7657 22.2295 44.9117 22.2295C47.6405 22.2295 50.2408 22.4543 52.6806 22.9037C55.1204 23.3531 57.2713 24.1236 59.069 25.183C60.8989 26.2745 62.3114 27.687 63.3708 29.4847C64.4302 31.2825 64.9438 33.5297 64.9438 36.2263C64.9438 37.8315 64.7191 39.3082 64.2376 40.6886C63.756 42.069 63.1461 43.2568 62.3435 44.2841C61.5409 45.3114 60.6421 46.1461 59.6469 46.8202C58.6517 47.4944 57.6244 47.9117 56.5971 48.0401C57.7528 48.2006 59.0048 48.5538 60.4173 49.0995C61.7978 49.6453 63.114 50.4478 64.3018 51.5393C65.4896 52.5987 66.5169 54.0112 67.2873 55.6806C68.0899 57.382 68.4751 59.4045 68.4751 61.8122C68.4751 65.0546 67.8652 67.7191 66.6453 69.7737C65.4254 71.8282 63.7881 73.4655 61.7014 74.6854C59.6469 75.8732 57.2392 76.7079 54.5104 77.1573C51.7817 77.6067 48.9246 77.8315 45.939 77.8315C43.6276 77.8315 41.3804 77.7673 39.1332 77.6388C36.886 77.5104 34.3499 77.2857 31.4928 76.9326V23.0642ZM42.3435 68.7143V53.1445H46.8379C48.3788 53.1445 49.7913 53.2729 51.0754 53.5297C52.3596 53.7865 53.451 54.2038 54.382 54.8459C55.313 55.4559 56.0193 56.2905 56.5008 57.3178C56.9823 58.3451 57.2392 59.6292 57.2392 61.1701C57.2392 62.8074 56.9181 64.1557 56.2761 65.183C55.634 66.2103 54.7994 67.0128 53.8042 67.5907C52.809 68.1685 51.7175 68.5538 50.5939 68.7464C49.4382 68.939 48.3467 69.0353 47.2873 69.0353C46.549 69.0353 45.7143 69.0032 44.7833 68.9711C43.8523 68.9069 43.0498 68.8106 42.3435 68.7143ZM45.6501 44.9262H42.3435V30.5441C43.3066 30.3836 44.4623 30.3194 45.8748 30.3194C46.87 30.3194 47.8973 30.4157 48.8925 30.5762C49.9197 30.7689 50.8507 31.0899 51.6533 31.6356C52.488 32.1493 53.1621 32.8876 53.6758 33.8186C54.1894 34.7496 54.4462 35.9374 54.4462 37.382C54.4462 38.8908 54.2215 40.1108 53.7721 41.1059C53.3226 42.069 52.7127 42.8395 51.9101 43.4173C51.1075 43.9952 50.1766 44.3804 49.0851 44.6051C48.0578 44.7978 46.9021 44.9262 45.6501 44.9262Z" fill="#40D1F5"/>
</svg>
