<svg width="100" height="100" viewBox="0 0 100 100" fill="none" xmlns="http://www.w3.org/2000/svg">
<path d="M2.30565 70.1601L35.587 13.2005C39.8162 15.6885 61.1342 27.4822 64.576 29.725L31.2938 86.6887C27.654 91.4957 -2.30566 77.4544 2.30565 70.1579V70.1618V70.1601Z" fill="#FBBC04"/>
<path d="M97.7574 70.1369L64.4766 13.1852C59.8248 5.44307 49.804 2.63011 41.573 7.20177C33.3426 11.7737 30.8364 21.6218 35.4893 29.7077L68.7724 86.6674C73.4245 94.4064 83.445 97.2171 91.6763 92.6448C99.547 88.0766 102.413 77.8796 97.7574 70.1446V70.1366V70.1369Z" fill="#4285F4"/>
<path d="M33.4131 78.5803C33.4131 78.8468 33.4063 79.1131 33.393 79.3793C33.3796 79.6456 33.3595 79.9113 33.3326 80.1764C33.3057 80.4418 33.2723 80.7061 33.2324 80.9698C33.1921 81.2335 33.1454 81.496 33.0921 81.7575C33.0386 82.0186 32.9788 82.2787 32.9123 82.5373C32.846 82.7959 32.7729 83.0525 32.6936 83.3077C32.6143 83.5626 32.5285 83.8156 32.4364 84.0665C32.3444 84.3175 32.2461 84.5662 32.1413 84.8123C32.0368 85.0588 31.926 85.3024 31.809 85.5431C31.692 85.7842 31.5691 86.0221 31.4402 86.2572C31.3114 86.4923 31.1768 86.724 31.0363 86.9529C30.8955 87.1815 30.7494 87.4064 30.5976 87.6281C30.4455 87.8496 30.2883 88.0675 30.1254 88.2816C29.9625 88.4957 29.7943 88.7056 29.6209 88.9118C29.4473 89.1178 29.2688 89.3194 29.0853 89.5171C28.9017 89.7146 28.7131 89.9075 28.5199 90.0958C28.3265 90.2845 28.1285 90.468 27.9259 90.647C27.7234 90.826 27.5164 91.0002 27.3051 91.1693C27.0938 91.3384 26.8782 91.5022 26.6587 91.6611C26.4389 91.8197 26.2154 91.9732 25.9882 92.1213C25.7608 92.2695 25.5299 92.412 25.2954 92.549C25.0609 92.6859 24.8229 92.8173 24.5819 92.943C24.3408 93.0685 24.0967 93.1883 23.8494 93.3022C23.6024 93.4164 23.3523 93.5243 23.0999 93.6262C22.8473 93.7282 22.5921 93.8242 22.3349 93.914C22.0774 94.0038 21.8179 94.0874 21.5562 94.1647C21.2945 94.242 21.0311 94.3131 20.7659 94.378C20.5005 94.4426 20.234 94.5009 19.9658 94.553C19.6975 94.6052 19.4284 94.6505 19.1579 94.6896C18.8874 94.7289 18.6161 94.7615 18.3441 94.7876C18.0719 94.8136 17.7995 94.8332 17.5261 94.8465C17.2531 94.8595 16.98 94.866 16.7064 94.866C16.4331 94.866 16.1597 94.8595 15.8867 94.8465C15.6136 94.8332 15.3411 94.8136 15.0689 94.7876C14.797 94.7615 14.5256 94.7289 14.2551 94.6896C13.9846 94.6505 13.7153 94.6052 13.4473 94.553C13.1791 94.5009 12.9123 94.4426 12.6471 94.378C12.382 94.3131 12.1186 94.242 11.8569 94.1647C11.5951 94.0874 11.3357 94.0038 11.0782 93.914C10.8207 93.8242 10.5658 93.7282 10.3131 93.6262C10.0605 93.5243 9.81066 93.4164 9.56338 93.3022C9.31639 93.1883 9.07223 93.0685 8.83118 92.943C8.58985 92.8173 8.35221 92.6859 8.11767 92.549C7.88314 92.412 7.65229 92.2695 7.42484 92.1213C7.19739 91.9732 6.97391 91.8197 6.75439 91.6611C6.53487 91.5022 6.31932 91.3384 6.10801 91.1693C5.89671 91.0002 5.68965 90.826 5.48713 90.647C5.28432 90.468 5.08661 90.2845 4.89315 90.0958C4.69969 89.9075 4.51133 89.7146 4.32778 89.5171C4.14424 89.3194 3.96551 89.1178 3.79216 88.9118C3.61881 88.7056 3.45056 88.4957 3.28769 88.2816C3.12482 88.0675 2.96733 87.8496 2.81551 87.6281C2.66369 87.4064 2.51725 87.1815 2.37675 86.9529C2.23626 86.724 2.10143 86.4923 1.97256 86.2572C1.84368 86.0221 1.72075 85.7842 1.60405 85.5431C1.48706 85.3024 1.37631 85.0588 1.27151 84.8123C1.16699 84.5662 1.0687 84.3175 0.976648 84.0665C0.884308 83.8156 0.798766 83.5626 0.719173 83.3077C0.639863 83.0525 0.567067 82.7959 0.500504 82.5373C0.434223 82.2787 0.374174 82.0186 0.320923 81.7575C0.267672 81.496 0.220935 81.2335 0.180714 80.9698C0.140492 80.7061 0.107069 80.4418 0.0804431 80.1764C0.0535343 79.9113 0.0334236 79.6456 0.0201108 79.3793C0.00651476 79.1131 0 78.8468 0 78.5803C0 78.3137 0.00651476 78.0472 0.0201108 77.7809C0.0334236 77.515 0.0535343 77.249 0.0804431 76.9839C0.107069 76.7187 0.140492 76.4542 0.180714 76.1905C0.220935 75.9268 0.267672 75.6645 0.320923 75.403C0.374174 75.1416 0.434223 74.8816 0.500504 74.623C0.567067 74.3644 0.639863 74.1077 0.719173 73.8525C0.798766 73.5976 0.884308 73.3447 0.976648 73.0937C1.0687 72.8427 1.16699 72.5941 1.27151 72.3479C1.37631 72.1015 1.48706 71.8579 1.60405 71.6171C1.72075 71.3761 1.84368 71.1381 1.97256 70.903C2.10143 70.668 2.23626 70.4363 2.37675 70.2077C2.51725 69.9791 2.66369 69.7539 2.81551 69.5321C2.96733 69.3106 3.12482 69.0928 3.28769 68.8787C3.45056 68.6645 3.61881 68.4546 3.79216 68.2484C3.96551 68.0425 4.14424 67.8408 4.32778 67.6434C4.51133 67.4457 4.69969 67.2528 4.89315 67.0644C5.08661 66.8758 5.28432 66.6922 5.48713 66.5132C5.68965 66.3342 5.89671 66.16 6.10801 65.9909C6.31932 65.8221 6.53487 65.6581 6.75439 65.4992C6.97391 65.3406 7.19739 65.1871 7.42484 65.0389C7.65229 64.8911 7.88314 64.7483 8.11767 64.6115C8.35221 64.4744 8.58985 64.343 8.83118 64.2175C9.07223 64.0917 9.31639 63.9719 9.56338 63.858C9.81066 63.7439 10.0605 63.636 10.3131 63.534C10.5658 63.432 10.8207 63.336 11.0782 63.2462C11.3357 63.1564 11.5951 63.0729 11.8569 62.9955C12.1186 62.9182 12.382 62.8471 12.6471 62.7825C12.9123 62.7177 13.1791 62.6593 13.4473 62.6072C13.7153 62.5554 13.9846 62.5098 14.2551 62.4707C14.5256 62.4316 14.797 62.399 15.0689 62.3727C15.3411 62.3466 15.6136 62.3271 15.8867 62.314C16.1597 62.301 16.4331 62.2942 16.7064 62.2942C16.98 62.2942 17.2531 62.301 17.5261 62.314C17.7995 62.3271 18.0719 62.3466 18.3441 62.3727C18.6161 62.399 18.8874 62.4316 19.1579 62.4707C19.4284 62.5098 19.6975 62.5554 19.9658 62.6072C20.234 62.6593 20.5005 62.7177 20.7659 62.7825C21.0311 62.8471 21.2945 62.9182 21.5562 62.9955C21.8179 63.0729 22.0774 63.1564 22.3349 63.2462C22.5921 63.336 22.8473 63.432 23.0999 63.534C23.3523 63.636 23.6024 63.7439 23.8494 63.858C24.0967 63.9719 24.3408 64.0917 24.5819 64.2175C24.8229 64.343 25.0609 64.4744 25.2954 64.6115C25.5299 64.7483 25.7608 64.8911 25.9882 65.0389C26.2154 65.1871 26.4389 65.3406 26.6587 65.4992C26.8782 65.6581 27.0938 65.8221 27.3051 65.9909C27.5164 66.16 27.7234 66.3342 27.9259 66.5132C28.1285 66.6922 28.3265 66.8758 28.5199 67.0644C28.7131 67.2528 28.9017 67.4457 29.0853 67.6434C29.2688 67.8408 29.4473 68.0425 29.6209 68.2484C29.7943 68.4546 29.9625 68.6645 30.1254 68.8787C30.2883 69.0928 30.4455 69.3106 30.5976 69.5321C30.7494 69.7539 30.8955 69.9791 31.0363 70.2077C31.1768 70.4363 31.3114 70.668 31.4402 70.903C31.5691 71.1381 31.692 71.3761 31.809 71.6171C31.926 71.8579 32.0368 72.1015 32.1413 72.3479C32.2461 72.5941 32.3444 72.8427 32.4364 73.0937C32.5285 73.3447 32.6143 73.5976 32.6936 73.8525C32.7729 74.1077 32.846 74.3644 32.9123 74.623C32.9788 74.8816 33.0386 75.1416 33.0921 75.403C33.1454 75.6645 33.1921 75.9268 33.2324 76.1905C33.2723 76.4542 33.3057 76.7187 33.3326 76.9839C33.3595 77.249 33.3796 77.515 33.393 77.7809C33.4063 78.0472 33.4131 78.3137 33.4131 78.5803Z" fill="#34A853"/>
</svg>
