<?xml version="1.0" encoding="UTF-8"?>
<svg id="Layer_1" xmlns="http://www.w3.org/2000/svg" xmlns:xlink="http://www.w3.org/1999/xlink" version="1.1" viewBox="0 0 560 560">
  <!-- Generator: Adobe Illustrator 29.2.1, SVG Export Plug-In . SVG Version: 2.1.0 Build 116)  -->
  <defs>
    <style>
      .st0 {
        fill: url(#linear-gradient1);
      }

      .st1 {
        fill: url(#linear-gradient);
      }

      .st2 {
        fill: #2684ff;
      }
    </style>
    <linearGradient id="linear-gradient" x1="420.9" y1="-108.7" x2="306.1" y2="-227" gradientTransform="translate(0 26) scale(1 -1)" gradientUnits="userSpaceOnUse">
      <stop offset=".2" stop-color="#0052cc"/>
      <stop offset="1" stop-color="#2684ff"/>
    </linearGradient>
    <linearGradient id="linear-gradient1" x1="295" y1="-243.8" x2="162.3" y2="-372.9" gradientTransform="translate(0 26) scale(1 -1)" gradientUnits="userSpaceOnUse">
      <stop offset=".2" stop-color="#0052cc"/>
      <stop offset="1" stop-color="#2684ff"/>
    </linearGradient>
  </defs>
  <path class="st2" d="M536.8,0h-269.6c0,67.2,54.4,121.6,121.6,121.6h49.6v48c0,67.2,54.4,121.6,121.6,121.6V23.2c0-12.8-10.4-23.2-23.2-23.2Z"/>
  <path class="st1" d="M403.2,134.4H133.6c0,67.2,54.4,121.6,121.6,121.6h49.6v48c0,67.2,54.4,121.6,121.6,121.6V157.6c0-12.8-10.4-23.2-23.2-23.2Z"/>
  <path class="st0" d="M269.6,268.8H0c0,67.2,54.4,121.6,121.6,121.6h49.6v48c0,67.2,54.4,121.6,121.6,121.6v-268c0-12.8-10.4-23.2-23.2-23.2Z"/>
</svg>