<?xml version="1.0" encoding="UTF-8"?>
<svg id="Layer_1" xmlns="http://www.w3.org/2000/svg" xmlns:xlink="http://www.w3.org/1999/xlink" xmlns:rdf="http://www.w3.org/1999/02/22-rdf-syntax-ns#" xmlns:cc="http://creativecommons.org/ns#" version="1.1" viewBox="0 0 287.6 191">
  <!-- Generator: Adobe Illustrator 29.2.1, SVG Export Plug-In . SVG Version: 2.1.0 Build 116)  -->
  <defs>
    <style>
      .st0 {
        fill: #192830;
      }

      .st1 {
        fill: url(#linear-gradient1);
      }

      .st2 {
        fill: url(#linear-gradient);
      }

      .st3 {
        fill: #0081fb;
      }
    </style>
    <linearGradient id="linear-gradient" x1="62.3" y1="101.4" x2="260.3" y2="91.4" gradientTransform="translate(0 192) scale(1 -1)" gradientUnits="userSpaceOnUse">
      <stop offset="0" stop-color="#0064e1"/>
      <stop offset=".4" stop-color="#0064e1"/>
      <stop offset=".8" stop-color="#0073ee"/>
      <stop offset="1" stop-color="#0082fb"/>
    </linearGradient>
    <linearGradient id="linear-gradient1" x1="41.4" y1="53" x2="41.4" y2="126" gradientTransform="translate(0 192) scale(1 -1)" gradientUnits="userSpaceOnUse">
      <stop offset="0" stop-color="#0082fb"/>
      <stop offset="1" stop-color="#0064e0"/>
    </linearGradient>
  </defs>
  <path id="Logo0" class="st3" d="M31.1,126c0,11,2.4,19.4,5.6,24.5,4.1,6.7,10.3,9.5,16.6,9.5s15.5-2,29.8-21.8c11.4-15.8,24.9-38.1,34-52l15.4-23.6c10.7-16.4,23-34.6,37.2-47C181.1,5.6,193.5,0,206.1,0,227.2,0,247.2,12.2,262.6,35.1c16.8,25.1,25,56.7,25,89.3s-3.8,33.6-10.3,44.9c-6.3,10.9-18.5,21.8-39.1,21.8v-31c17.6,0,22-16.2,22-34.7,0-26.4-6.2-55.7-19.7-76.7-9.6-14.9-22.1-23.9-35.8-23.9s-26.8,11.2-40.2,31.2c-7.1,10.6-14.5,23.5-22.7,38.1l-9.1,16.1c-18.2,32.3-22.8,39.6-31.9,51.8-15.9,21.2-29.6,29.3-47.5,29.3s-34.7-9.2-43-23.1C3.3,156.6,0,141.8,0,124.9l31.1,1.1Z"/>
  <path id="Logo1" class="st2" d="M24.5,37.3C38.7,15.3,59.3,0,82.8,0s27.2,4,41.4,15.6c15.5,12.6,32,33.5,52.6,67.8l7.4,12.3c17.8,29.7,28,45,33.9,52.2,7.6,9.3,13,12,19.9,12,17.6,0,22-16.2,22-34.7l27.4-.9c0,19.4-3.8,33.6-10.3,44.9-6.3,10.9-18.5,21.8-39.1,21.8s-24.1-2.8-36.7-14.6c-9.6-9.1-20.9-25.2-29.6-39.7l-25.8-43.1c-12.9-21.6-24.8-37.7-31.7-45-7.4-7.8-16.9-17.3-32-17.3s-22.7,8.6-31.4,21.8l-26.4-15.7Z"/>
  <path id="Logo2" class="st1" d="M82.3,31.2c-12.3,0-22.7,8.6-31.4,21.8-12.3,18.6-19.9,46.3-19.9,72.9s2.4,19.4,5.6,24.5l-26.5,17.4C3.3,156.6,0,141.8,0,124.9c0-30.8,8.4-62.8,24.5-87.6C38.7,15.4,59.3,0,82.8,0l-.5,31.2Z"/>
  <path id="Text" class="st0" d="M347.9,6h35.9l61.1,110.5L506.1,6h35.2v181.6h-29.3V48.5l-53.6,96.4h-27.5l-53.6-96.4v139.2h-29.3V6ZM633,73.8c-21,0-33.7,15.8-36.7,35.4h71.3c-1.5-20.2-13.1-35.4-34.6-35.4h0ZM567.3,120.3c0-41.2,26.6-71.2,66.3-71.2s62.3,29.6,62.3,73.4v8h-99.5c3.5,21.3,17.7,35.7,40.5,35.7s29.6-5.6,40.3-15.7l15.6,19.1c-14.7,13.5-33.3,21.3-57,21.3-42.9,0-68.5-31.3-68.5-70.6ZM731.4,76.3h-27v-24h27V12.7h28.3v39.7h41v24h-41v60.8c0,20.8,6.6,28.1,23,28.1s11.7-.6,18-1.7v23.7c-7.9,2.2-15.4,3.2-23.5,3.2-30.5,0-45.8-16.7-45.8-50.1v-64.2ZM919.7,99.7c-5.7-14.3-18.3-24.9-37-24.9s-39.7,17.2-39.7,45.1,14.3,45.3,38.5,45.3,32.7-11.1,38.1-24.9v-40.6ZM948,187.6h-27.8v-18.9c-7.8,11.1-21.9,22.2-44.8,22.2-36.8,0-61.4-30.8-61.4-70.9s25.2-70.8,62.9-70.8,33.3,7.5,43.2,20.6v-17.4h27.8v135.3Z"/>
</svg>