<?xml version="1.0" encoding="utf-8"?>
<!-- Generator: Adobe Illustrator 28.1.0, SVG Export Plug-In . SVG Version: 6.00 Build 0)  -->
<svg version="1.1" id="Layer_1" xmlns="http://www.w3.org/2000/svg" xmlns:xlink="http://www.w3.org/1999/xlink" x="0px" y="0px"
	 viewBox="0 0 2426.5 441.6" style="enable-background:new 0 0 2426.5 441.6;" xml:space="preserve">
<style type="text/css">
	.st0{fill-rule:evenodd;clip-rule:evenodd;}
</style>
<path class="st0" d="M1026.9,57c-33.8,16.9-67.6,33-101.4,49.4l-27.9-56.6L999,0C1008.8,18.8,1018.1,37.8,1026.9,57L1026.9,57z"/>
<polygon class="st0" points="405.9,178.3 405.9,178.7 509,17.3 762.9,17.3 762.9,79.4 715.1,79.4 714.7,363.3 762.9,363.7 
	762.9,426.6 447.7,426.6 447.7,363.7 498,363.7 498.4,174.5 498,174 329.9,438.4 329.5,438.4 131.8,180.4 131,179.9 130.5,363.3 
	185,363.7 185,426.6 0,426.6 0,363.7 54.5,363.7 54.9,79.8 0,79.4 0,17.3 281.3,17.3 "/>
<polygon class="st0" points="1889.4,363.3 1941.8,363.7 1941.8,426.6 1622.4,426.6 1622.4,363.7 1675.2,363.7 1675.7,79.8 
	1622.4,79.4 1622.4,17.3 1889.4,17.3 1889.4,363.3 "/>
<polygon class="st0" points="1072.5,363.3 1126.5,363.7 1126.5,426.6 804.7,426.6 804.7,363.7 854.9,363.7 855.4,182.5 804.7,182.1 
	804.7,119.1 1072.5,119.1 "/>
<path class="st0" d="M2424.6,298.6c6.3-45.6-2.5-90-33.8-122.5v0l-15.6-15.2c-82.4-62.5-212.9-60.8-308.8-29.1
	c-51.1,15.6-104.7,64.2-109,120.4c-8.9,65,22.4,125.4,79.8,155c74.3,40.1,180.8,43.1,263.6,19.4c47.7-12.7,94.6-53.6,115.3-99.7
	l-124.2,0.4c-3.9,17.3-14,32.6-28.3,43.1c-19.4,14.4-50.3,14.4-70.1,1.7c-25.3-16.5-37.6-43.5-33.4-73.5H2424.6z M2160.2,187.5
	c1.7-10.1,10.1-20.3,20.3-24.1c14.8-5.5,33-2.5,43.5,9.7c12.2,14.9,7.2,29.6,7.2,66.3h-71.4L2160.2,187.5z"/>
<g>
	<g>
		<path class="st0" d="M1606,298.6c4.2-38.9,0-78.1-21.6-107.7h0c-13.5-19.9-33.8-35.5-53.2-46.5c-83.6-45.6-206.6-42.7-294.4-8.5
			c-50.7,18.6-98,68.9-98.8,125.5c-5.5,62.5,27.9,119.9,83.6,147c73.5,38,177.4,41.8,259.3,18.6c48.2-12.3,95.9-53.2,116.1-100.1
			h-123.3c-3.9,16.6-13.3,31.5-26.6,42.3c-18.6,13.9-49.9,16.9-69.7,4.6c-26.6-15.6-40.6-44.4-36.3-75.2H1606z M1341.5,187.5
			c1.7-10.1,10.1-20.3,20.3-24.1c14.8-5.5,32.9-2.5,43.5,9.7c12.3,14.9,7.2,29.6,7.2,66.3h-71.4L1341.5,187.5z"/>
	</g>
</g>
</svg>
