<?xml version="1.0" encoding="utf-8"?>
<!-- Generator: Adobe Illustrator 28.1.0, SVG Export Plug-In . SVG Version: 6.00 Build 0)  -->
<svg version="1.1" id="Layer_1" xmlns="http://www.w3.org/2000/svg" xmlns:xlink="http://www.w3.org/1999/xlink" x="0px" y="0px"
	 viewBox="0 0 2500 1368" style="enable-background:new 0 0 2500 1368;" xml:space="preserve">
<path d="M329.7,949.9H207.6l-24.7,64.7h-35.3l107-270.9h32.8l105.2,270.9h-38.2L329.7,949.9z M218.8,920.5h99.7l-49.7-130.3
	L218.8,920.5z M34.4,772.5v98h47.7c0,0,8.6-0.3,13-0.3c14.5,0,24.1-3.2,33.2-11.6c9.2-8.6,13.3-22.6,13.3-37.3
	c0.5-13.8-4.3-27.3-13.4-37.6c-9.4-10.3-27-11.3-30-11.3h-4.8L34.4,772.5L34.4,772.5z M0,743.7h93.4c14.1,0,39.1,3.3,56,17
	c23.2,19,27.4,43.5,27.4,60.1s-4.1,38.7-20.3,54.6c-21.2,20.7-43.3,23.9-74.5,23.9H34.4v115.2H0V743.7z M1298,743.7h34.3v116.2H1454
	V743.7h34.3v270.9H1454V889.8h-121.7v124.8H1298V743.7z M1549.1,743.7h34.3v270.8h-34.3V743.7z M1642.5,743.7h34.3v241h117.4v30
	h-151.7L1642.5,743.7L1642.5,743.7z M551.9,743.7v30h-82.4v241H435v-241h-82.7v-30H551.9z M734.6,743.7l-17.1,30H615.1v84.8h95.7v30
	h-95.7v96.2h100.1l17.2,30H580.7v-271H734.6z M805.8,870.7l116.5-127.2l42.9,0.1L876,840.2l91.2,174.4H928l-75.7-149.2l-46.5,50.1
	v99.1h-34.3v-271h34.3V870.7z M1116.2,772.5v98h47.7c0,0,8.6-0.3,13-0.3c14.6,0,24.2-3.2,33.2-11.6c9.2-8.6,13.3-22.6,13.3-37.3
	c0.6-13.8-4.3-27.3-13.5-37.6c-9.3-10.3-26.9-11.3-30.1-11.3h-4.6L1116.2,772.5L1116.2,772.5z M1081.8,743.7h93.4
	c14.1,0,39.2,3.3,56.2,17c23.2,19,27.4,43.5,27.4,60.1s-4.1,38.7-20.3,54.6c-21.2,20.7-43.4,23.9-74.5,23.9h-47.7v115.2h-34.4
	L1081.8,743.7L1081.8,743.7z M1823.2,743.7h34.2v270.8h-34.2V743.7z M1950,772.5v98h47.7c0,0,8.5-0.3,13-0.3
	c14.5,0,24.1-3.2,33.1-11.6c9.3-8.6,13.3-22.6,13.3-37.3c0.6-13.8-4.2-27.3-13.4-37.6c-9.4-10.3-27.1-11.3-30.1-11.3h-4.6
	L1950,772.5L1950,772.5z M1915.7,743.7h93.3c14.2,0,39.1,3.3,56,17c23.3,19,27.4,43.5,27.4,60.1s-4,38.7-20.3,54.6
	c-21.1,20.7-43.4,23.9-74.5,23.9H1950v115.2h-34.3V743.7z M2164.6,772.5v98h47.7c0,0,8.5-0.3,13-0.3c14.5,0,24.1-3.2,33.1-11.6
	c9.3-8.6,13.4-22.6,13.4-37.3c0.6-13.8-4.3-27.3-13.5-37.6c-9.4-10.3-26.9-11.3-30.1-11.3h-4.6L2164.6,772.5L2164.6,772.5z
	 M2130.3,743.7h93.3c14.1,0,39.1,3.3,56,17c23.3,19,27.4,43.5,27.4,60.1s-4,38.7-20.3,54.6c-21.1,20.7-43.3,23.9-74.4,23.9h-47.7
	v115.2h-34.3V743.7z M2500,743.7l-17.1,30h-102.5v84.8h95.8v30h-95.8v96.2h100.3l17,30H2346v-271H2500z M1324.8,1339h72.8l12.5,21.8
	h-110.3v-196.9h134.4l57.2,162.9l59.6-162.9h25.6l-74.7,197H1478l-63.5-175.3h-89.7v61.8h69.6v21.9h-69.6V1339z M1093.8,1163.9
	l-12.4,21.7h-74.6v61.8h69.6v21.7h-69.7v69.9h73l12.3,21.8H981.7v-196.9H1093.8z M1235,1164.9h23.8v196.9h-25.5l-89.3-161v161h-23.8
	v-196.9h32.5l82.3,148.6V1164.9z M1710.3,1163.9l-12.5,21.7h-74.5v61.8h69.7v21.7h-69.7v69.9h73l12.3,21.8h-110.2v-196.9H1710.3z
	 M945.1,1260.1v71.4c-16.2,15.4-36.8,32.8-77.5,32.8c-45.7,0-87-38.7-87-100c0-58.2,38.9-104,92.3-104c43.3,0,64.7,26.7,72.8,38.7
	l-17.9,16.8c0,0-18.2-34.5-55-34.5c-36.2,0-64.9,32.4-64.9,84.1c0,48.9,30.8,77.7,63.7,77.7c28.6,0,47.7-19.3,49-20.7v-41h-59.9
	v-21.5h84.4V1260.1z"/>
<path d="M1237.5,310.5h-121c-19.5,0-39.3,11.9-39.3,27.9c0,5.8,4.7,16.7,20.9,16.7c20.9,0,38.8-21.5,57.5-21.5
	c16.5,0,18.8,15.1,18.8,15.1c-9.8-0.2-13.4,0.2-25.6,6.3c-11.5,5.6-26.8,19.5-37,30.4c-10.1,11-26.5,25-46.2,25
	c-19.8,0-39.1-12.6-39.1-35.5c0-30.3,24.2-40.1,24.2-51.1c0-3.3-1.5-7.5-7.9-7.5c-9.8,0-29,14.3-47.5,14.3
	c-25.4,0-47.5-28.6-47.5-28.6s22.1-28.6,47.5-28.6c18.5,0,37.7,14.3,47.5,14.3c6.4,0,7.9-4.3,7.9-7.6c0-10.8-24.2-20.6-24.2-51
	c0-22.9,19.3-35.5,39.1-35.5c19.7,0,36.1,14.1,46.2,25s25.5,24.8,37,30.4c12.2,6,15.7,6.4,25.6,6.3c0,0-2.4,15.1-18.8,15.1
	c-18.7,0-36.5-21.6-57.5-21.6c-16.2,0-20.9,11-20.9,16.7c0,16.1,19.8,28,39.3,28h121v-121c0-19.6-12-39.2-28-39.2
	c-5.8,0-16.7,4.6-16.7,20.9c0,20.8,21.6,38.8,21.6,57.5c0,16.3-15.1,18.7-15.1,18.7c0.2-9.8-0.2-13.3-6.3-25.5
	c-5.5-11.4-19.4-26.8-30.4-37c-10.9-10.1-25-26.6-25-46.3s12.7-39.1,35.6-39.1c30.3,0,40.1,24.3,51.1,24.3c3.2,0,7.5-1.6,7.5-8
	c0-9.8-14.3-29-14.3-47.6c0-25.4,28.6-47.5,28.6-47.5s28.6,22.1,28.6,47.5c0,18.6-14.3,37.7-14.3,47.6c0,6.4,4.2,8,7.5,8
	c10.9,0,20.7-24.3,51-24.3c22.9,0,35.6,19.4,35.6,39.1s-14.1,36.1-25,46.2c-11,10.3-24.8,25.6-30.5,37c-6,12.3-6.4,15.7-6.1,25.6
	c0,0-15.1-2.4-15.1-18.7c0-18.7,21.6-36.7,21.6-57.5c0-16.3-10.9-20.9-16.7-20.9c-16,0-28,19.7-28,39.2v121h121
	c19.5,0,39.2-11.9,39.2-28c0-5.8-4.5-16.7-20.9-16.7c-20.7,0-38.8,21.6-57.5,21.6c-16.4,0-18.7-15.1-18.7-15.1
	c9.8,0.2,13.4-0.2,25.6-6.3c11.4-5.5,26.8-19.4,36.9-30.4c10.2-10.9,26.6-25,46.3-25c19.8,0,39.1,12.7,39.1,35.6
	c0,30.3-24.3,40.1-24.3,51c0,3.3,1.5,7.6,8,7.6c9.8,0,29-14.3,47.5-14.3c25.5,0,47.5,28.6,47.5,28.6s-22.1,28.6-47.5,28.6
	c-18.5,0-37.7-14.3-47.5-14.3c-6.5,0-8,4.2-8,7.5c0,11,24.3,20.7,24.3,51.1c0,22.9-19.3,35.5-39.1,35.5c-19.7,0-36.1-14.1-46.3-25
	c-10.1-10.9-25.5-24.8-37-30.4c-12.1-6.1-15.7-6.4-25.5-6.3c0,0,2.3-15.1,18.7-15.1c18.7,0,36.7,21.6,57.5,21.6
	c16.3,0,20.9-11,20.9-16.7c0-16.1-19.7-28-39.2-28h-121v121c0,19.6,12,39.2,28,39.2c5.8,0,16.7-4.6,16.7-20.8
	c0-20.9-21.6-38.9-21.6-57.5c0-16.3,15.1-18.7,15.1-18.7c-0.2,9.8,0.2,13.4,6.1,25.5c5.7,11.4,19.6,26.8,30.5,37
	c11,10.1,25,26.6,25,46.3c0,19.7-12.7,39-35.6,39c-30.3,0-40.1-24.2-51-24.2c-3.3,0-7.5,1.5-7.5,7.9c0,9.8,14.3,29,14.3,47.5
	c0,25.5-28.6,47.5-28.6,47.5s-28.6-22.1-28.6-47.5c0-18.5,14.3-37.7,14.3-47.5c0-6.4-4.2-7.9-7.5-7.9c-11,0-20.8,24.2-51.1,24.2
	c-22.9,0-35.6-19.4-35.6-39c0-19.7,14.1-36.1,25-46.3c11-10.1,24.9-25.6,30.4-37c6.1-12.2,6.5-15.7,6.3-25.6c0,0,15.1,2.4,15.1,18.7
	c0,18.6-21.6,36.7-21.6,57.5c0,16.2,10.9,20.8,16.7,20.8c16,0,28-19.7,28-39.2V310.5z"/>
</svg>
