<svg xmlns="http://www.w3.org/2000/svg" width="1080" height="1080" viewBox="0 0 1080 1080"><rect width="100%" height="100%" fill="#DC3545"/><path fill="#FFF" d="M256.625 570.67h14.82v10.54h-45.6v-10.54h16.7v-48.06q0-2.85.17-5.87l-11.85 9.92q-1.03.8-2.02 1-1 .2-1.89.03-.88-.17-1.56-.6-.69-.43-1.03-.94l-4.45-6.1 25.14-21.38h11.57zm85.22-30.67q0 10.77-2.31 18.72t-6.38 13.14q-4.08 5.19-9.64 7.73-5.56 2.53-12 2.53t-11.94-2.53q-5.5-2.54-9.55-7.73-4.04-5.19-6.32-13.14t-2.28-18.72q0-10.83 2.28-18.75 2.28-7.93 6.32-13.11 4.05-5.19 9.55-7.73 5.5-2.53 11.94-2.53t12 2.53q5.56 2.54 9.64 7.73 4.07 5.18 6.38 13.11 2.31 7.92 2.31 18.75m-14.54 0q0-8.95-1.31-14.82t-3.5-9.35q-2.2-3.48-5.05-4.87-2.85-1.4-5.93-1.4-3.02 0-5.84 1.4-2.82 1.39-4.99 4.87-2.16 3.48-3.44 9.35-1.29 5.87-1.29 14.82t1.29 14.82q1.28 5.87 3.44 9.35 2.17 3.47 4.99 4.87t5.84 1.4q3.08 0 5.93-1.4t5.05-4.87q2.19-3.48 3.5-9.35t1.31-14.82m50.45 31.12q3.47 0 6.1-1 2.62-.99 4.41-2.76 1.8-1.77 2.71-4.22t.91-5.3q0-6.78-3.76-10.26t-10.37-3.48-10.38 3.48q-3.76 3.48-3.76 10.26 0 2.85.91 5.3.92 2.45 2.71 4.22 1.8 1.77 4.42 2.76 2.62 1 6.1 1m0-62.64q-3.14 0-5.42.97t-3.79 2.59-2.22 3.73-.71 4.45q0 2.45.6 4.76.59 2.31 2.02 4.1 1.42 1.8 3.76 2.88 2.34 1.09 5.76 1.09t5.75-1.09q2.34-1.08 3.77-2.88 1.42-1.79 2.02-4.1t.6-4.76q0-2.34-.74-4.45t-2.23-3.73q-1.48-1.62-3.76-2.59t-5.41-.97m13.91 29.75q7.52 2.45 11.11 7.5 3.59 5.04 3.59 12.34 0 5.47-2.08 9.92-2.08 4.44-5.84 7.58-3.76 3.13-9.04 4.84-5.27 1.71-11.65 1.71-6.39 0-11.66-1.71t-9.03-4.84q-3.77-3.14-5.85-7.58-2.08-4.45-2.08-9.92 0-7.3 3.59-12.34 3.6-5.05 11.12-7.5-5.99-2.51-8.98-7.12-2.99-4.62-2.99-11.12 0-4.67 1.91-8.72t5.33-7.04 8.18-4.67 10.46-1.68 10.46 1.68 8.18 4.67 5.33 7.04 1.91 8.72q0 6.5-3 11.12-2.99 4.61-8.97 7.12m82.42 1.77q0 10.77-2.31 18.72t-6.38 13.14q-4.08 5.19-9.64 7.73-5.56 2.53-12 2.53t-11.94-2.53q-5.5-2.54-9.55-7.73-4.04-5.19-6.32-13.14t-2.28-18.72q0-10.83 2.28-18.75 2.28-7.93 6.32-13.11 4.05-5.19 9.55-7.73 5.5-2.53 11.94-2.53t12 2.53q5.56 2.54 9.64 7.73 4.07 5.18 6.38 13.11 2.31 7.92 2.31 18.75m-14.54 0q0-8.95-1.31-14.82t-3.5-9.35q-2.2-3.48-5.05-4.87-2.85-1.4-5.93-1.4-3.02 0-5.84 1.4-2.82 1.39-4.99 4.87-2.16 3.48-3.44 9.35-1.29 5.87-1.29 14.82t1.29 14.82q1.28 5.87 3.44 9.35 2.17 3.47 4.99 4.87t5.84 1.4q3.08 0 5.93-1.4t5.05-4.87q2.19-3.48 3.5-9.35t1.31-14.82m105.05 22.34-7.46 7.36-19.33-19.33-19.49 19.44-7.47-7.35 19.5-19.55-18.59-18.59 7.41-7.41 18.59 18.59 18.46-18.47 7.53 7.41-18.53 18.52zm78.04 8.33h14.82v10.54h-45.6v-10.54h16.7v-48.06q0-2.85.17-5.87l-11.86 9.92q-1.02.8-2.02 1t-1.88.03-1.57-.6q-.68-.43-1.03-.94l-4.44-6.1 25.14-21.38h11.57zm85.21-30.67q0 10.77-2.31 18.72t-6.38 13.14q-4.08 5.19-9.63 7.73-5.56 2.53-12 2.53t-11.94-2.53q-5.5-2.54-9.55-7.73t-6.33-13.14-2.28-18.72q0-10.83 2.28-18.75 2.28-7.93 6.33-13.11 4.05-5.19 9.55-7.73 5.5-2.53 11.94-2.53t12 2.53q5.55 2.54 9.63 7.73 4.07 5.18 6.38 13.11 2.31 7.92 2.31 18.75m-14.53 0q0-8.95-1.31-14.82t-3.51-9.35q-2.19-3.48-5.04-4.87-2.85-1.4-5.93-1.4-3.02 0-5.84 1.4-2.83 1.39-4.99 4.87-2.17 3.48-3.45 9.35t-1.28 14.82 1.28 14.82 3.45 9.35q2.16 3.47 4.99 4.87 2.82 1.4 5.84 1.4 3.08 0 5.93-1.4t5.04-4.87q2.2-3.48 3.51-9.35t1.31-14.82m50.44 31.12q3.48 0 6.1-1 2.62-.99 4.42-2.76 1.79-1.77 2.71-4.22.91-2.45.91-5.3 0-6.78-3.76-10.26-3.77-3.48-10.38-3.48t-10.37 3.48-3.76 10.26q0 2.85.91 5.3t2.71 4.22q1.79 1.77 4.41 2.76 2.63 1 6.1 1m0-62.64q-3.13 0-5.41.97t-3.79 2.59-2.23 3.73q-.71 2.11-.71 4.45 0 2.45.6 4.76t2.02 4.1q1.43 1.8 3.77 2.88 2.33 1.09 5.75 1.09t5.76-1.09q2.34-1.08 3.76-2.88 1.43-1.79 2.02-4.1.6-2.31.6-4.76 0-2.34-.74-4.45t-2.22-3.73-3.76-2.59-5.42-.97m13.91 29.75q7.52 2.45 11.12 7.5 3.59 5.04 3.59 12.34 0 5.47-2.08 9.92-2.08 4.44-5.85 7.58-3.76 3.13-9.03 4.84t-11.66 1.71q-6.38 0-11.65-1.71-5.28-1.71-9.04-4.84-3.76-3.14-5.84-7.58-2.08-4.45-2.08-9.92 0-7.3 3.59-12.34 3.59-5.05 11.11-7.5-5.98-2.51-8.97-7.12-3-4.62-3-11.12 0-4.67 1.91-8.72t5.33-7.04 8.18-4.67 10.46-1.68 10.46 1.68 8.18 4.67 5.33 7.04 1.91 8.72q0 6.5-2.99 11.12-2.99 4.61-8.98 7.12m82.42 1.77q0 10.77-2.31 18.72-2.3 7.95-6.38 13.14t-9.63 7.73q-5.56 2.53-12 2.53t-11.94-2.53q-5.5-2.54-9.55-7.73t-6.33-13.14-2.28-18.72q0-10.83 2.28-18.75 2.28-7.93 6.33-13.11 4.05-5.19 9.55-7.73 5.5-2.53 11.94-2.53t12 2.53q5.55 2.54 9.63 7.73 4.08 5.18 6.38 13.11 2.31 7.92 2.31 18.75m-14.53 0q0-8.95-1.31-14.82t-3.51-9.35q-2.19-3.48-5.04-4.87-2.85-1.4-5.93-1.4-3.02 0-5.84 1.4-2.83 1.39-4.99 4.87-2.17 3.48-3.45 9.35t-1.28 14.82 1.28 14.82 3.45 9.35q2.16 3.47 4.99 4.87 2.82 1.4 5.84 1.4 3.08 0 5.93-1.4t5.04-4.87q2.2-3.48 3.51-9.35t1.31-14.82"/></svg>