<?xml version="1.0" encoding="utf-8"?>
<!-- Generator: Adobe Illustrator 19.0.0, SVG Export Plug-In . SVG Version: 6.00 Build 0)  -->
<svg version="1.1" id="layer" xmlns="http://www.w3.org/2000/svg" xmlns:xlink="http://www.w3.org/1999/xlink" x="0px" y="0px"
	 viewBox="-153 -46 652 652" style="enable-background:new -153 -46 652 652;" xml:space="preserve">
<style type="text/css">
	.st0{fill:none;stroke:#000000;stroke-width:2.0509;stroke-linecap:round;stroke-linejoin:round;stroke-miterlimit:10;}
</style>
<title>shoptology_logo_horizontal_CMYK</title>
<path id="XMLID_106_" class="st0" d="M251,172.4C250.9,172.4,250.9,172.4,251,172.4L251,172.4z"/>
<path id="XMLID_105_" class="st0" d="M239.6,309.3c0-0.1,0-0.2-0.1-0.2C239.4,309.2,239.5,309.3,239.6,309.3
	C239.6,309.4,239.6,309.3,239.6,309.3z"/>
<path id="XMLID_104_" d="M239.6,309.3c0-0.1,0-0.2-0.1-0.2C239.4,309.2,239.5,309.3,239.6,309.3
	C239.6,309.4,239.6,309.3,239.6,309.3"/>
<path id="XMLID_103_" class="st0" d="M185.1,204.8C185.1,204.8,185.1,204.8,185.1,204.8C185.1,204.8,185.1,204.8,185.1,204.8
	L185.1,204.8L185.1,204.8z"/>
<path id="XMLID_102_" d="M185.1,204.8C185.1,204.8,185.1,204.8,185.1,204.8C185.1,204.8,185.1,204.8,185.1,204.8L185.1,204.8
	L185.1,204.8"/>
<path id="XMLID_101_" class="st0" d="M183.4,314.2C183.4,314.2,183.3,314.2,183.4,314.2C183.3,314.2,183.4,314.3,183.4,314.2
	C183.4,314.3,183.4,314.2,183.4,314.2z"/>
<path id="XMLID_100_" d="M183.4,314.2C183.4,314.2,183.3,314.2,183.4,314.2C183.3,314.2,183.4,314.3,183.4,314.2
	C183.4,314.3,183.4,314.2,183.4,314.2"/>
<path id="XMLID_99_" class="st0" d="M249.3,264.5c0.1,0,0.1-0.1,0.2-0.2C249.3,264.3,249.2,264.3,249.3,264.5z"/>
<path id="XMLID_98_" d="M249.3,264.5c0.1,0,0.1-0.1,0.2-0.2C249.3,264.3,249.2,264.3,249.3,264.5"/>
<path id="XMLID_97_" class="st0" d="M248.5,265.6C248.5,265.6,248.5,265.5,248.5,265.6L248.5,265.6L248.5,265.6z"/>
<path id="XMLID_7_" d="M58.7,147.3c-6.3,5.7-12.2,11.8-17.5,18.4c-10.1,12.5-18.1,26.3-24.1,41.2c-1.1,2.6-2,5.3-2.9,7.9l-0.2,0.6
	c-0.3,1-0.6,2-0.9,2.9l-0.2,0.7c-1.4,4.5-2.7,9.1-3.8,13.7c-0.7,3.2-1.3,6.4-1.9,9.6c-0.4,2.7-0.8,5.4-1.1,8.1
	c-0.3,2.6-0.5,5.1-0.7,7.7c-0.1,2.2-0.2,4.4-0.3,6.6c-0.2,6.6,0,13.1,0.6,19.6c0.3,3.4,0.8,6.7,1.2,10.1c0.2,1.9,0.5,3.8,0.7,5.7
	c0.1,0.7,0.2,1.4,0.3,2.1c0.3,1.3,0.6,2.6,0.9,3.8c0.1,0.3,0.1,0.7,0.3,1c0.6,1.6,1.1,3.2,1.6,4.9c0.3,1.1,0.6,2.2,1.3,3.1
	c0.2-0.4,0.1-0.8,0-1.2c-0.3-1.7-0.4-3.4-0.5-5c-0.1-2.4-0.3-4.9-0.4-7.3c-0.1-1.4-0.2-2.8-0.2-4.3c0-4.4,0-8.8,0-13.2
	c0-2.9,0.4-5.8,0.8-8.7c0.3-2.1,0.7-4.3,1-6.4c0.3-2.3,0.6-4.6,0.9-7c0.1-1.1,0.3-2.3,0.5-3.4c0.3-1.7,0.7-3.3,0.9-5
	c0.3-2.5,0.9-4.9,1.3-7.3c0.1-0.3,0.2-0.6,0.3-0.9c-0.1-0.2,0-0.4,0-0.6c0.6-2.1,1.1-4.3,1.8-6.4c0.1-0.3,0.1-0.5,0.3-0.8
	c0.4-0.9,0.6-1.8,0.8-2.7l0-0.3c0.1-0.4,0.1-0.9,0.2-1.3c0-0.3,0.1-0.6,0.3-0.9c0.1-0.2,0.2-0.4,0.3-0.6l0.4-0.8
	c0.1-0.2,0.3-0.5,0.4-0.7l0.2-0.3c0.1-0.2,0.2-0.4,0.3-0.6l0.3-0.5c0.2-0.3,0.3-0.7,0.5-1l0.6-1.3c0.1-0.3,0.3-0.5,0.4-0.8
	c0,0,0,0,0-0.1l0.4-0.7c0.2-0.4,0.5-0.8,0.8-1.2c0.2-0.2,0.4-0.5,0.6-0.7l0.3-0.4c0.5-0.6,1-1.3,1.5-2v0l0.7-1.1
	c0.2-0.4,0.5-0.8,0.8-1.1c0.1,0,0.1-0.1,0.2-0.1c0.1,0,0.1,0.1,0.1,0.2c-0.2,0.7-0.3,1.5-0.5,2.3c-0.2,1.1-0.2,2.3-0.3,3.4
	c-0.3,2.7-0.4,5.3-0.6,8c-0.1,0.6,0,1.2-0.1,1.8c0,0.3,0.1,0.6-0.1,0.9c0,0.8,0,1.6,0,2.3c0,6.2-0.1,12.5-0.2,18.7
	c-0.1,2.5,0,5.1,0.1,7.6c0.1,2,0.2,3.9,0.3,5.9c0.1,1.4,0.1,2.8,0.3,4.2c0.1,0.8,0.1,1.6,0.1,2.4c0.1,1.5,0.2,2.9,0.3,4.4
	c0.1,0.7,0.1,1.5,0.2,2.2c0.2,1.4,0.4,2.8,0.5,4.1c0.1,1.8,0.5,3.5,0.8,5.2c0.3,1.6,0.7,3.3,1,4.9c0.1,0.7,0.3,1.4,0.5,2.1
	c0.1,0.5,0.3,0.9,0.5,1.4c0,0.1,0.1,0.2,0.2,0.1c0.1,0,0.1-0.2,0.1-0.3c0-0.4-0.1-0.9-0.1-1.3c0-0.2-0.1-0.4-0.1-0.6
	c-0.2-1.5-0.4-3-0.6-4.5c-0.1-0.8-0.2-1.6-0.3-2.4c-0.1-1.4-0.1-2.7-0.1-4.1c-0.1-2.6-0.1-5.1-0.2-7.7c-0.1-3-0.1-6,0-9.1
	c0-0.8,0.1-1.6,0.2-2.4c0.1-1.1,0.1-2.1,0.2-3.2c0.1-2,0.3-4,0.5-6c0.1-1.5,0.3-3,0.5-4.5c0.1-1.1,0.4-2.1,0.4-3.2
	c0.2-2.7,0.6-5.4,1-8.1c0.2-1.4,0.4-2.7,0.6-4.1c0.1-0.7,0.1-1.4,0.2-2c0.4-2.2,0.8-4.5,1.1-6.7c0-0.2,0.1-0.5,0.2-0.7
	c0-0.1,0-0.2,0-0.3c0.3-2.1,0.7-4.2,1-6.2c0.5-2.8,0.9-5.6,1.4-8.3c0.4-2.3,0.9-4.6,1.4-7c0.2-0.8,0.5-1.4,1.1-2
	c1.5-1.5,2.9-3,4.3-4.5c1.7-1.7,3.4-3.5,5.2-5.1c1.2-1,2.3-2.1,3.4-3.2c2.4-2.3,4.9-4.4,7.5-6.6c0.7-0.6,1.4-1.1,2-1.7l0.2-0.2
	c0.1,0.1,0.1,0.2-0.1,0.3c0,0.1,0,0.3-0.1,0.4c-0.9,2.3-1.5,4.6-2.1,7c-0.9,3.1-1.6,6.3-2.6,9.4c-0.3,0.8-0.5,1.7-0.6,2.6
	c0,0.2-0.1,0.4-0.2,0.7c-0.3,1.8-0.7,3.5-1,5.3c-0.2,1.3-0.5,2.6-0.8,3.9c-0.5,2-0.8,3.9-1.1,5.9c-0.2,1.6-0.4,3.2-0.7,4.7
	c-0.3,1.9-0.7,3.9-0.8,5.8c-0.1,1.8-0.3,3.7-0.4,5.5c-0.1,1.3-0.1,2.6-0.2,3.9c-0.1,0.9-0.1,1.9-0.2,2.8c-0.1,1-0.2,2.1-0.3,3.1
	c-0.2,3-0.3,6-0.3,8.9c0,3.6,0.1,7.2,0.1,10.8c0,2,0.1,3.9,0.4,5.9c0.1,0.4,0.1,0.8,0.1,1.2c0.1,2.1,0.3,4.1,0.7,6.2
	c0.3,1.9,0.5,3.8,0.8,5.6c0.1,0.6,0.3,1.3,0.4,1.9c0.1,1.5,0.5,3,0.7,4.5c0.2,1.1,0.6,2.2,1,3.3c0.1,0.2,0.1,0.3,0.4,0.3
	c-0.1-0.6-0.1-1.1-0.2-1.7c-0.1-0.8-0.2-1.5-0.3-2.3c-0.1-1.3-0.2-2.4-0.3-3.6c-0.1-0.7-0.2-1.5-0.2-2.3c-0.1-1.2-0.1-2.4-0.2-3.6
	c-0.1-0.9-0.3-1.9-0.3-2.8c0-0.9,0-1.8,0-2.6c-0.1-1.7-0.1-3.5-0.2-5.2c-0.1-2.6,0.1-5.2,0.2-7.8c0.1-3.2,0.3-6.4,0.4-9.7
	c0.1-1.6,0.2-3.2,0.3-4.9c0.1-0.9,0.1-1.8,0.2-2.6c0.2-1.4,0.4-2.9,0.5-4.3c0.2-1.8,0.4-3.6,0.8-5.3c0.3-1.5,0.5-3,0.7-4.5
	c0.2-1,0.2-2,0.4-3c0.5-2.8,1.1-5.5,1.7-8.2c0.3-1.5,0.7-2.9,0.9-4.4c0.7-3.2,1.6-6.4,2.5-9.6c0.5-1.9,1.2-3.8,1.6-5.8
	c0.1-0.7,0.4-1.4,0.9-2.1c-0.1-0.3,0-0.6,0.2-0.9c1.7-4,3.4-8,5.5-11.9c3-5.8,6.6-11.2,10.7-16.2c2.1-2.6,4.3-5.2,6.5-7.7
	c0.6-0.7,1.2-1.3,1.9-1.9c1.5-1.2,3-2.4,4.4-3.6c1.8-1.5,3.8-2.7,5.8-3.8c3.5-1.9,7-3.6,10.9-4.7c2.1-0.5,4.2-1,6.3-1.2
	c1.8-0.2,3.5-0.4,5.3-0.5c2-0.1,4-0.2,6,0c2.9,0.3,5.8,0.1,8.5-1.2c1.4-0.7,2.8-1.2,4.2-1.8c0.1-0.1,0.1-0.2,0.2-0.1
	c0.1,0.1,0,0.1-0.1,0.2c-0.1,0.3-0.3,0.4-0.6,0.6c-1.1,0.8-2,1.7-3,2.6c-1.2,1.1-2.4,2.2-3.6,3.3c-1.5,1.3-2.8,2.7-4.2,4.1
	c-1.3,1.3-2.6,2.6-3.9,4c-0.6,0.9-1.4,1.6-2.1,2.3c-3.8,4-7.3,8.3-10.2,13c-2.3,3.7-4.5,7.4-6.8,11.1c-1,1.6-1.9,3.3-2.7,5
	c-1.6,3.6-3.1,7.3-4.4,11.1c-0.5,1.5-1,3-1.6,4.5c-0.3,0.8-0.6,1.7-0.8,2.5c-0.3,1.1-0.5,2.2-0.8,3.2c-0.7,2.6-1.2,5.1-1.7,7.7
	c-0.5,2.4-0.8,4.8-1.2,7.2c-0.3,1.9-0.5,3.7-0.7,5.6c-0.2,1.7-0.3,3.4-0.5,5.2c-0.1,0.9-0.2,1.9-0.3,2.8c-0.1,1.6-0.1,3.2-0.2,4.9
	c0,0.3,0,0.7-0.1,1c-0.2,2.9-0.5,5.8-0.5,8.7c-0.1,4.8-0.2,9.6,0.1,14.3c0.2,2.8,0.4,5.6,0.7,8.3c0.1,0.7,0.2,1.5,0.3,2.2
	c0.3,2,0.7,4,1.1,6c0.4,2.3,0.8,4.5,1.2,6.8c0.2,1.1,0.5,2.3,0.8,3.4c0.1,0.6,0.5,1.1,0.9,1.7c0.2-0.4,0.3-0.8,0.2-1.2
	c-0.3-0.9-0.4-1.9-0.5-2.8c-0.1-1.4-0.3-2.8-0.5-4.2c-0.5-3.1-0.8-6.2-1-9.3c-0.2-3.1-0.3-6.2-0.3-9.4c0-0.4,0-0.9,0-1.3
	c-0.1-1.4-0.2-2.8-0.3-4.3c-0.2-3.3,0.1-6.6,0.2-10c0.1-1.2,0.1-2.4,0.2-3.6c0.1-1.8,0.3-3.5,0.4-5.3c0.2-2.5,0.3-5.1,0.7-7.6
	c0.3-2,0.6-4,0.9-6c0.5-3.6,1.1-7.2,1.9-10.8c2-8.9,4.9-17.5,8.7-25.7c6.3-13.6,14.6-25.8,24.9-36.5c0.3-0.4,0.7-0.8,1.1-1
	c0-0.2,0.2-0.3,0.3-0.4c4.8-4.8,9.8-9.2,15.3-13.1c2.9-2.1,6.1-3.8,9.3-5.3c1.2-0.5,2.4-0.7,3.7-0.4c1.4,0.2,2.7,0.7,3.9,1.3
	c0.1,0.1,0.3,0.1,0.4,0.2c0.2,0.1,0.2,0.3,0.1,0.4c-0.2,0.1-0.4,0.3-0.6,0.4c-5.3,3-10.2,6.5-14.9,10.4c-0.3,0.2-0.6,0.4-0.9,0.7
	c-0.5,0.5-1.1,1-1.6,1.4c-9.5,8.4-17.6,18-24.2,28.8c-3.1,5-5.9,10.2-8,15.7c-0.4,1-0.8,2-1.2,3c-1.7,4-3.2,8.1-4.2,12.4
	c-0.7,3.1-1.3,6.2-1.9,9.3c-0.6,2.9-1,5.9-1.3,8.8c-0.1,0.8-0.2,1.6-0.2,2.4c-0.2,2.4-0.4,4.7-0.5,7.1c0,0.5,0,1.1-0.1,1.6
	c-0.1,1.4-0.1,2.8,0,4.2c0.1,1.8,0.2,3.6,0.3,5.4c0.1,2.6,0.3,5.2,0.5,7.8c0.1,0.9,0.2,1.8,0.3,2.7c0.2,1.6,0.4,3.2,0.5,4.8
	c0.1,1.3,0.2,2.6,0.4,3.8c0.3,2.3,0.6,4.6,0.9,6.8c0,0.3,0.1,0.6,0.2,0.9c0.3,1.7,0.7,3.4,1,5.2c0.5,2.5,1,4.9,1.8,7.3
	c0.7,2.1,1.4,4.1,2.2,6.1c0.1,0.3,0.2,0.5,0.3,0.7l0.6,1c0.7,1.2,1.5,2.4,2.1,3.6c0.4,0.7,0.8,1.4,1.3,2.1c0.1,0.1,0.2,0.2,0.3,0.2
	c0.2-0.1,0.1-0.2,0.1-0.3c-0.2-0.9-0.4-1.8-0.7-2.7c-0.3-1.1-0.8-2.1-1.2-3.1c-0.4-1-0.8-2-1.2-3c-0.8-2.1-1.4-4.2-2.1-6.4
	c-0.1-0.1-0.1-0.3-0.1-0.5c-0.1-0.5-0.1-0.9-0.3-1.4c-0.5-1.6-0.9-3.3-1.3-4.9c-0.4-1.4-0.6-2.8-0.7-4.2c-0.1-1.1-0.2-2.2-0.4-3.2
	c-0.1-0.6-0.2-1.2-0.3-1.8c-0.2-1.6-0.4-3.2-0.5-4.8c-0.1-1.9-0.3-3.8-0.3-5.7c0-0.7,0-1.5,0-2.2c-0.1-2.7,0-5.4,0.1-8.1
	c0.1-3.3,0.3-6.6,0.3-10c0-0.3,0-0.6,0-0.9c0.2-2,0.3-3.9,0.5-5.9c0.3-2.8,0.7-5.6,1.2-8.4c0.3-1.9,0.7-3.9,1.2-5.8
	c0.5-2.3,1.2-4.5,1.8-6.8c0.5-1.7,0.9-3.4,1.5-5.1c1.4-4.1,3-8.1,4.9-12c0.3-0.7,0.7-1.5,1.1-2.2c3.8-8.2,8.6-15.8,14.3-22.7
	c4.3-5.3,9-10.1,14-14.7c2.4-2.2,4.7-4.3,7.2-6.3c0.3-0.2,0.5-0.5,0.9-0.6c0.1-0.4,0.5-0.6,0.7-0.8c0.9-0.7,1.8-1.4,2.8-2.1
	c1.2-0.9,2.4-1.7,3.6-2.6c1.1-0.8,2.3-1.4,3.5-2c0.4-0.2,0.8-0.2,1.1,0.1c0.9,0.9,1.8,1.8,2.7,2.6c1,0.9,0.7,1.6-0.2,2.1
	c-2.7,1.6-5.2,3.5-7.7,5.3c-0.1,0.1-0.2,0.1-0.3,0.1c-0.2,0.1-0.3,0.3-0.5,0.5c-4.1,3.2-8.1,6.5-11.9,10.1
	c-3.8,3.6-7.5,7.3-10.8,11.4c-5.4,6.7-9.8,14-13.3,21.8c-2.9,6.6-5.2,13.4-6.7,20.4c-0.9,4.4-1.6,8.8-2,13.3
	c-0.3,3.5-0.5,7-0.5,10.5c0,3.3,0.1,6.6,0.3,10c0.1,1.9,0.2,3.9,0.4,5.8c0.2,1.5,0.3,2.9,0.4,4.4c0.1,1.3,0.3,2.6,0.6,3.8
	c0.6,2.2,1,4.4,1.4,6.6c0.3,1.5,0.6,2.9,1,4.4c0.5,1.8,1.1,3.6,1.6,5.5c0.4,1.7,0.9,3.3,1.5,5c0.3,0.9,0.7,1.8,1.1,2.7
	c0.3,0.7,0.6,1.3,0.9,2c1.3,3.2,2.8,6.2,4.8,9.1c0.4,0.5,0.8,1,1.3,1.5c0.1,0.1,0.2,0.3,0.5,0.1c0-0.2-0.2-0.4-0.3-0.6
	c-0.3-0.7-0.8-1.4-1-2.1c-0.3-0.8-0.6-1.5-1-2.2c-0.2-0.3-0.3-0.6-0.5-0.9c-1.3-2.9-2.5-5.9-3.4-8.9c-0.8-2.6-1.5-5.2-2.3-7.8
	c-0.3-1-0.6-2.1-0.8-3.2c-0.2-0.9-0.3-1.9-0.5-2.8c-0.4-2-0.8-4.1-1.1-6.1c-0.3-2.3-0.5-4.6-0.9-7c-0.4-3.1-0.5-6.2-0.5-9.2
	c0-3.5,0.1-7,0.3-10.5c0.1-1.1,0.1-2.2,0.1-3.2c0.2-1.8,0.3-3.5,0.5-5.3c0.1-0.7,0.2-1.3,0.2-2c0.1-1.9,0.4-3.8,0.7-5.6
	c0.3-1.6,0.7-3.2,1.1-4.9c0.3-1.5,0.9-2.8,1.3-4.3c0.4-1.4,0.8-2.8,1.4-4.1c0.2-0.4,0.3-0.8,0.4-1.2c1.5-4.8,3.3-9.5,5.5-14
	c4.5-9.5,10.4-18.1,17.5-25.9c0.7-0.8,1.5-1.6,2.4-2.4c1.2-1,2.4-2,3.5-3.1c1.1-1,2.2-2,3.4-2.9c2.8-2.2,5.7-4.2,8.7-6.2
	c0.1-0.1,0.3-0.1,0.5-0.2c0-0.1,0.1-0.1,0.1-0.2c1.8-1.2,3.6-2.5,5.4-3.6c0.3-0.2,0.7-0.4,1-0.5c0.6-0.3,1.2-0.3,1.8,0
	c0.9,0.5,1.9,0.8,2.8,1.1c1.3,0.4,2.4,0.1,3.3-0.9c0.5-0.6,0.9-1.2,1.2-2c0.3-0.8,0.6-1.6,1-2.3c0.2-0.5,0.5-1,0.7-1.5
	c0.9-1.5,2.2-2.5,3.9-2.8c1.4-0.3,2.9-0.3,4.3,0c0.3,0.1,0.5,0.1,0.8,0.3c0.3,0.1,0.7,0.2,1,0.2c1-0.1,1.9,0.2,2.8,0.6
	c0.6,0.3,1.1,0.6,1.7,0.9c-0.1,0.3-0.3,0.3-0.4,0.3c-1.2,0.4-2.3,0.9-3.4,1.5c-5.5,2.7-10.9,5.6-16.2,8.5c-2,1.1-4,2.3-5.9,3.6
	c-0.1,0-0.1,0.1-0.2,0.1c-0.2,0.2-0.4,0.3-0.7,0.5c-4.9,3.3-9.6,7-14,11c-3.1,2.8-6,5.9-8.9,8.9c-2.7,2.8-5,5.9-7.2,9.1
	c-6.5,10.1-10.6,21.1-12.9,32.8c-0.7,3.4-1.2,6.9-1.5,10.4c-0.3,3-0.5,6-0.5,9c-0.1,2.8,0,5.6,0.1,8.4c0.1,2.7,0.4,5.4,0.7,8.1
	c0.4,3.1,0.9,6.2,1.5,9.2c1.4,6.9,3.7,13.6,6.3,20.2c0.9,2.3,2.1,4.5,3.3,6.6c0.4,0.7,0.8,1.4,1.3,2.1c1.6,2.2,3.2,4.4,4.8,6.6
	c1,1.3,2.1,2.4,3.4,3.5c0.5,0.4,0.9,0.8,1.4,1.2c0.7,0.7,1.5,1.4,2.3,2c0.1,0.1,0.3,0.3,0.4,0.1c-0.4-0.7-0.8-1.3-1.3-1.9
	c-1.4-1.6-2.7-3.3-4-5c-0.9-1.2-1.7-2.4-2.5-3.7c-0.5-0.8-1-1.6-1.5-2.3c-0.5-0.7-0.9-1.4-1.2-2.1c-1-2.2-2-4.4-2.9-6.7
	c-0.8-2.1-1.5-4.2-2.1-6.4c-0.6-2.2-1.1-4.4-1.7-6.6c-0.7-2.5-1.2-5.1-1.6-7.6c-0.4-2.3-0.7-4.7-1.1-7c-0.4-2.9-0.7-5.8-0.9-8.7
	c-0.2-3-0.3-5.9-0.3-8.9c0-4.7,0.3-9.4,0.9-14c0.5-3.8,1.2-7.6,2.2-11.4c2.2-8.4,5.5-16.4,10-23.8c4.8-7.8,10.7-14.6,17.5-20.6
	c7-6.2,14.7-11.4,23-15.6c0.8-0.4,1.7-0.8,2.6-1.2c1.4-0.8,2.9-1.4,4.4-2.1c2-0.9,4.1-1.8,6.2-2.5c1.7-0.6,3.5-1,5.3-0.9
	c1.1,0,2.2,0.3,3.3,0.8c1.2,0.6,2.2,1.3,2.9,2.3c0.1,0.1,0.6,1.1,0.5,1.4c-0.3,0.1-0.6,0.2-0.9,0.2c-5,1-9.8,2.4-14.5,4.2
	c-0.2,0.1-0.4,0.2-0.7,0.2c-0.1,0.1-0.2,0.1-0.4,0.2c-10.3,4.1-19.7,9.8-28,17.3c-9.9,8.9-17.4,19.6-22.1,32.1
	c-2.3,6.1-3.9,12.3-4.9,18.7c-0.4,2.5-0.7,5-0.9,7.5c-0.3,3.4-0.5,6.8-0.5,10.2c-0.1,4,0.1,8,0.5,12c0.2,2.3,0.5,4.6,0.9,6.9
	c1.1,6,2.8,11.7,5.2,17.3c3.6,8.3,8.4,15.8,14.4,22.6c2.5,2.9,5.2,5.6,8.1,8c2.2,1.8,4.5,3.4,6.8,5.1c2.4,1.7,4.8,3.5,7.1,5.5
	c0.3,0.3,0.6,0.5,0.9,0.6c4.2,2.3,8.4,4.7,12.6,7c6.3,3.5,12.9,6.3,19.8,8.4c4.5,1.4,9.1,2.5,13.8,3.3c2.3,0.4,4.6,0.7,6.9,1
	c1.9,0.2,3.8,0.4,5.8,0.5c3.2,0.2,6.4,0.4,9.7,0.3c2-0.1,4.1-0.1,6.1-0.3c2.3-0.2,4.5-0.4,6.8-0.7c3.7-0.5,7.4-1.2,11.1-2.2
	c7.4-1.9,14.4-4.6,21.1-8.4c4.1-2.3,8-4.9,11.5-8.1c0.2-0.2,0.5-0.4,0.7-0.6c1.3-0.9,2.4-2.1,3.6-3.2c5-4.8,9.2-10.2,12.4-16.2
	c0.9-1.7,1.7-3.3,2.4-5c0.5-1.3,0.9-2.6,1-4c0-0.3,0.1-0.6,0.1-0.9c0.1-0.4,0.2-0.9-0.1-1.3c-0.2,0-0.4-0.1-0.5-0.1
	c-0.1,0.1-0.2,0.3-0.2,0.4c0.1,0.6-0.1,1.1-0.3,1.6c-0.6,1.5-1.2,3-1.9,4.5c-1.7,3.3-3.6,6.4-6,9.3c-0.1,0.1-0.2,0.3-0.4,0.4
	c-0.2,0.3-0.4,0.5-0.7,0.8c-3.2,3.5-7,6.5-10.9,9.2c-6.7,4.6-14,8-21.9,10.1c-2.5,0.6-4.9,1.2-7.5,1.5c-1.6,0.2-3.2,0.5-4.7,0.7
	c-2,0.3-4,0.5-6.1,0.7c-1.8,0.2-3.6,0.2-5.4,0.3c-4.2,0.2-8.3,0.1-12.5-0.2c-3.7-0.2-7.4-0.7-11-1.5c-3.9-0.8-7.7-2-11.3-3.6
	c-2.3-1-4.5-2.3-6.8-3.4c-2.2-1.2-4.4-2.5-6.4-3.9c-1.6-1.1-3.1-2.3-4.6-3.5c-5.7-4.5-10.7-9.7-14.8-15.8c-1.6-2.4-3.2-4.9-4.8-7.3
	c-0.9-1.3-1.6-2.7-2.3-4.1c-0.8-1.7-1.6-3.4-2.5-5.1c-1-2.1-1.9-4.2-2.6-6.4c-0.2-0.5-0.3-1.1-0.5-1.6c-0.1-0.2-0.1-0.5-0.4-0.6
	c0,0-0.1,0-0.2,0c-0.1,0-0.1,0.1-0.1,0.1c-0.1,0.2,0,0.5,0,0.7c0.4,2.1,0.8,4.3,1.5,6.3c1.5,4.1,3.4,8,5.5,11.9
	c1.2,2.3,2.7,4.5,4.1,6.7c1.8,2.7,3.6,5.4,5.8,7.9c2,2.2,3.9,4.4,6.1,6.4c0.4,0.4,0.9,0.8,1.3,1.2c1.9,2,4.1,3.7,6.4,5.2
	c2.1,1.4,4.2,2.8,6.3,4.2c2.7,1.7,5.5,3.1,8.5,4.2c2,0.7,4,1.4,6,2.1c1,0.3,1.9,0.7,2.9,0.9c3.5,1,7.2,1.6,10.8,2.1
	c0.9,0.1,1.8,0.2,2.7,0.2c1.5,0.1,3,0.3,4.6,0.3c2,0.1,4,0.1,6,0c2.5,0,5-0.3,7.5-0.5c2.4-0.3,4.8-0.6,7.2-0.9
	c3.4-0.5,6.8-1.1,10.2-1.9c0.6-0.1,1.2-0.4,1.9-0.3c0,0.2-0.2,0.3-0.3,0.4c-1.1,0.7-2.3,1.2-3.5,1.7c-2.4,0.9-4.8,1.5-7.2,2
	c-2.3,0.5-4.6,0.9-6.9,1.3c-1.8,0.3-3.6,0.6-5.4,0.8c-3.5,0.4-7,0.4-10.5,0.3c-1.5,0-2.9,0-4.4,0c-2.8,0-5.6-0.2-8.3-0.5
	c-1.2-0.1-2.4-0.3-3.6-0.4c-0.2,0-0.3,0-0.5-0.2c-0.2,0-0.4-0.1-0.7-0.1c-0.1,0-0.2-0.1-0.2-0.2l0,0c-0.1,0.1-0.3,0-0.4,0
	c-1-0.2-2-0.5-3-0.7c-3.2-0.8-6.3-1.8-9.3-3.2c-0.5-0.3-1.1-0.5-1.6-0.7c-3.2-1.3-6.2-3-9-4.9c-1.4-1-2.8-2-4.2-2.9
	c-1-0.7-1.9-1.5-2.8-2.3c-0.5-0.6-1.1-1.1-1.7-1.6c-0.7-0.6-1.4-1.2-2.1-1.9c-1.2-1.3-2.3-2.6-3.5-3.8c-4.9-5.3-9.1-11.2-13-17.3
	c-4.2-6.5-4.7-8.2-6.6-14.2c-1-3.1-1.8-6.2-2.8-9.3c-0.5-1.6-0.9-3.3-1.1-4.9c-0.4-2.5-0.6-5.1-0.7-7.6c-0.1-3-0.1-5.9-0.1-8.9
	c0-1.1,0-2.2,0.1-3.4c0.1-0.5,0.2-1.1,0.3-1.6c0.1-0.4,0.1-0.8-0.1-1.1c-0.1,0.1-0.1,0.1-0.1,0.1c-0.1,0.1-0.1,0.2-0.2,0.4
	c-0.6,1.9-1,3.9-1,5.9c0,1.6-0.1,3.1-0.1,4.7c-0.1,3.4,0,6.8,0.4,10.3c0.4,3.2,0.8,6.3,1.4,9.4c0.5,2.6,1,5.2,1.8,7.7
	c0.7,2.2,1.4,4.3,2.4,6.4c0.9,1.7,1.7,3.4,2.5,5.1c1.3,2.9,2.9,5.7,4.5,8.4c0.8,1.3,1.7,2.6,2.7,3.8c1.6,2.1,3.3,4.2,4.9,6.3
	c0.4,0.3,0.6,0.8,1,1.2c2.4,2.9,5,5.6,7.9,8c0.8,0.6,1.5,1.3,2.2,2c1.9,1.9,4,3.6,6.3,5c0.2,0.1,0.4,0.3,0.6,0.4
	c0.1,0.1,0.2,0.1,0.2,0.2c-0.1,0.2-0.2,0.1-0.4,0c-0.6-0.1-1.1-0.4-1.7-0.7c-2.6-1.3-5.1-2.6-7.7-4c-2.1-1.1-3.9-2.5-5.6-4.1
	c-2.2-2.1-4.3-4.1-6.4-6.2c-1.6-1.6-2.8-3.3-4-5.2c-0.8-0.8-1.5-1.7-2.1-2.6c-6.6-10.2-11.3-21.3-13.7-33.2
	c-0.5-2.6-0.9-5.1-1.1-7.7c-0.1-1.2-0.2-2.4-0.3-3.7c-0.2-2.8-0.3-5.5-0.2-8.3c0.1-1.9,0.3-3.9,0.5-5.8c0.2-2.2,0.5-4.3,0.9-6.4
	c0.5-2.8,1.2-5.6,1.9-8.4c0-0.1,0.1-0.3,0.1-0.4s-0.1-0.3-0.2-0.3c-0.1-0.1-0.3,0-0.4,0.1c-0.2,0.2-0.2,0.5-0.3,0.7
	c-0.4,1.3-0.8,2.7-1.2,4c-1.2,3.6-2.1,7.2-2.7,10.9c-0.5,3.2-0.9,6.4-1,9.7c-0.1,3-0.1,6,0.2,8.9c0.1,1.8,0.3,3.5,0.6,5.3
	c0.3,1.9,0.6,3.7,0.9,5.6c0.3,1.6,0.5,3.1,0.9,4.7c0.7,3.2,1.8,6.3,2.8,9.4c0.3,0.7,0.5,1.5,0.7,2.2l0.2,0.5c0.7,1.5,1.5,3,2.2,4.6
	c1.2,2.8,2.6,5.6,4,8.3c0.5,0.9,1,1.8,1.6,2.6c0.5,0.7,0.9,1.4,1.3,2.2c0.1,0.1,0.1,0.2,0,0.3c-0.1,0-0.2,0-0.3,0
	c-1.3-0.9-2.7-1.8-3.6-3.1c-0.8-1-1.6-1.9-2.4-2.9c-1.1-1.3-1.9-2.8-2.7-4.3c-0.7-1.5-1.4-3-2.2-4.5c-1.7-3.2-3-6.5-4.2-9.9
	c-0.1-0.1-0.1-0.3-0.1-0.4l-0.4-1.2c-1.4-4-2.4-8.1-3.2-12.3c-0.4-2.3-0.7-4.6-0.9-7c-0.1-1.4-0.2-2.8-0.2-4.2
	c-0.3-6.6,0-13.2,1.3-19.7c0.8-4.3,2.1-8.5,3.9-12.5c0.2-0.5,0.4-1,0.6-1.5c1.8-5.5,4.3-10.8,7.7-15.5c0.4-0.6,0.8-1.2,1-1.9
	c0-0.1,0.1-0.3,0-0.4c-0.4,0.1-0.7,0.5-1,0.8c-0.5,0.7-1.1,1.3-1.6,2c-2.6,3.7-4.8,7.7-6.7,11.8c-0.7,1.4-1.2,2.9-1.9,4.3
	c-1.4,3-2.4,6.1-3.2,9.3c-0.7,3-1.3,6-1.7,9.1c-0.4,2.7-0.7,5.3-0.9,8c-0.3,3-0.3,6-0.3,9.1c0,2.8,0.3,5.5,0.7,8.2
	c0.4,2.7,0.8,5.4,1.3,8.1c0.3,1.4,0.6,2.8,1,4.1c0.4,1.4,0.8,2.8,1.2,4.2c0.4,1.4,0.9,2.7,1.3,4.1c-0.4-0.1-0.5-0.3-0.6-0.5
	c-2.9-4.6-5-9.5-6.4-14.8c-0.4-1.6-0.8-3.2-1.2-4.8c-0.1-0.4-0.1-0.9-0.2-1.3c-0.5-1.7-0.8-3.5-1-5.3c-0.4-3.3-0.5-6.6-0.3-9.9
	c0.1-1.8,0.2-3.5,0.3-5.3c0.1-2.3,0.4-4.7,0.7-7c0.4-3.2,1.1-6.3,1.8-9.4c0.5-2.1,1-4.1,1.9-6.1c1-2.3,2.1-4.5,3.1-6.8
	c2-4.5,4.5-8.6,7.6-12.5c0.7-0.9,1.4-1.9,2.1-2.9c0.7-1,1.4-2,2.5-2.6c0-0.2,0.1-0.3,0.3-0.5c0.3-0.3,0.7-0.6,0.8-1
	c0.1-0.1,0.2-0.2,0.1-0.3c-0.1-0.1-0.2,0.1-0.3,0.1c-0.4,0.2-0.7,0.5-1,0.8c-0.6,0.5-1.1,0.9-1.7,1.4c-1.1,1.2-2.3,2.5-3.3,3.7
	c-2.8,3.3-5.2,6.9-7.2,10.7c-1.6,3-3.1,6-4.6,9.1c-1,2.2-1.7,4.4-2.5,6.6c-1.2,3.5-2.2,7-2.9,10.6c-0.4,2.1-0.7,4.1-0.9,6.2
	c-0.1,0.6-0.1,1.1-0.2,1.7c0,0.8,0,1.6-0.1,2.3c-0.1,1.1-0.1,2.3-0.2,3.4c-0.1,2.8,0,5.6,0.2,8.4c0,0.7,0.1,1.4,0.2,2.1
	c0,0.2,0.1,0.3-0.1,0.5c-0.3-0.1-0.3-0.4-0.3-0.7c-0.3-1.3-0.6-2.5-0.8-3.8c-0.4-2.2-0.8-4.5-1-6.7c-0.1-1.4-0.3-2.8-0.2-4.2
	c-0.1-2.2-0.1-4.4,0.1-6.6c0.1-0.8,0.2-1.6,0.2-2.4c0.1-2.9,0.7-5.8,1.3-8.6c1.4-5.9,3.5-11.6,6-17.1c1.3-2.7,2.8-5.3,4.3-7.8
	c1.1-1.9,2.2-3.7,3.5-5.5c0.2-0.3,0.4-0.6,0.7-0.8c0.4-0.7,0.9-1.4,1.3-2.1c0.5-0.7,1-1.3,1.6-1.9c0.5-0.4,0.9-0.9,1.2-1.4
	c0,0,0-0.1,0-0.2c0,0-0.1-0.1-0.2,0c-0.4,0.1-0.6,0.4-0.9,0.6c-1.3,1.1-2.6,2.4-3.7,3.7c-0.7,0.9-1.5,1.7-2.2,2.6
	c-2.8,3.4-5.1,7.2-7.4,10.9c-2,3.2-3.6,6.7-5,10.2c-0.7,1.8-1.3,3.6-1.7,5.5c-0.1,0.3-0.1,0.7-0.4,1c-0.2-0.4-0.1-0.7,0-1
	c0.7-4.1,1.5-8.3,2.8-12.3c1.5-4.6,3.7-8.8,6.6-12.6c0.1-0.1,0.1-0.1,0.2-0.2c0-0.4,0.2-0.6,0.4-0.9c1.3-1.6,2.5-3.2,3.8-4.8
	c1.1-1.3,2.4-2.4,3.8-3.4c1.1-0.7,2.2-1.4,3.4-2c0.6-0.3,1.2-0.6,1.8-0.9c1.4-0.8,2.8-1.4,4.4-1.8c0.8-0.2,1.6-0.5,2.4-0.9
	c2.3-0.9,4.7-1.3,7.2-1.6c1.8-0.2,3.6,0.1,5.4,0.1c0.3,0,0.5,0.1,0.8,0.2c0.5,0.3,0.6,0.5,0.1,0.9c-2.4,1.8-4.4,4.1-6.3,6.5
	c-0.4,0.4-0.7,0.9-0.6,1.5c0.2,0,0.4-0.2,0.6-0.3c2.4-2.4,5.1-4.5,7.7-6.6c0.2-0.2,0.5-0.4,0.8-0.5c0.2-0.1,0.5-0.1,0.7,0
	c0.6,0.3,1.3,0.5,1.9,0.8c0.3,0.1,0.3,0.4,0,0.6c-0.1,0.1-0.3,0.3-0.5,0.4c-3.1,2.7-5.9,5.6-8.6,8.7c-0.3,0.3-0.5,0.6-0.8,0.9
	c-0.2,0.4-0.5,0.7-0.7,1.1c-1.6,1.9-3,4-4.4,6.1c-0.3,0.5-0.7,1.1-0.9,1.7c-0.1,0.2-0.1,0.4-0.1,0.6c0.3-0.1,0.4-0.4,0.6-0.6
	c1.3-1.6,2.6-3.2,4-4.8c1-1.2,2.1-2.3,3.3-3.3c0.6-0.8,1.3-1.5,2-2.1c2.6-2.3,5.1-4.7,7.7-7c0.1-0.1,0.3-0.2,0.4-0.3
	c0.2-0.1,0.5-0.2,0.7,0c0.4,0.3,0.9,0.5,1.3,0.7c0,0.2-0.1,0.3-0.1,0.4c-2.7,2.7-5.2,5.5-7.8,8.3c-0.2,0.2-0.3,0.4-0.5,0.4
	c-0.2,0.4-0.5,0.7-0.7,1c-2.6,3-4.9,6.2-7,9.5c-1.2,1.9-2.2,3.9-3.2,5.9c-0.1,0.3-0.3,0.7-0.3,1.1c0,0.1,0,0.2,0.1,0.2
	c0.1,0,0.1,0,0.2-0.1c0.4-0.3,0.6-0.7,0.8-1.2c0.6-1.1,1.3-2.2,2-3.3c1.7-2.5,3.4-4.9,5.3-7.2c1.5-1.9,3.1-3.7,4.8-5.4
	c0.3-0.4,0.7-0.9,1-1.2c2-2.1,4.1-4.2,6.1-6.2c2.2-2.2,4.5-4.3,7-6.2c0.1-0.1,0.3-0.2,0.4-0.3c0.2-0.1,0.4-0.1,0.6,0
	c0.1,0.1,0.2,0.1,0.3,0.2c0.9,0.8,1,0.7,0,1.4c-1.1,0.8-2,1.7-3,2.6c-1.2,1.2-2.1,2.5-2.8,4.1c-0.5,1.2-1.3,2.3-2.4,3.1
	c-1.5,1.1-3,2.3-4.4,3.6c-0.1,0.1-0.1,0.2-0.2,0.2c-1.6,1.5-3,3.2-4.4,4.8c-1.3,1.5-2.5,3.1-3.5,4.9c-1.1,1.9-2.1,3.8-3.1,5.7
	c-1.7,3.7-3.1,7.5-3.8,11.5c-0.3,1.8-0.6,3.7-0.8,5.5c-0.3,2.4-0.5,4.8-0.5,7.2c-0.1,3.5,0.1,7.1,0.2,10.6c0,1.4,0.3,2.7,0.6,4
	c0.1,0.4,0.1,0.8,0.5,1.1c0.1-0.5,0.1-0.9,0-1.2c-0.2-0.8-0.1-1.7-0.2-2.5c0-1.3,0-2.6,0-3.9c0-4.9,0.1-9.8,0.8-14.6
	c0.4-2.5,0.8-5,1.5-7.5c0.9-2.8,2-5.6,3.1-8.4c0.8-2.1,1.8-4.1,3-6c2.3-3.5,4.9-6.7,7.9-9.7c0.5-0.5,1.1-1.1,1.8-1.5
	c0.4-0.6,1-1,1.6-1.4c0.5-0.4,1-0.7,1.5-1c1.3-0.8,2.2-1.9,2.8-3.3c0.5-1.3,1.2-2.5,2.1-3.6c1.1-1.4,2.3-2.5,3.7-3.4
	c0.5-0.3,1.1-0.5,1.7-0.4c1.4,0.2,2.5-0.2,3.2-1.5c0.3-0.6,0.8-0.9,1.5-1c1.2-0.2,2.4-0.4,3.6-0.6c1.3-0.2,2.5,0.1,3.6,1
	c0,0.2-0.2,0.2-0.3,0.2c-3.6,0-6.9,0.9-10,2.5c-2.7,1.4-4.6,3.5-5.8,6.3c-0.4,1-0.7,2-1,3c-0.1,0.3-0.1,0.6-0.2,0.9
	c-0.2,0.5-0.4,0.8-0.9,1.1c-0.3,0.1-0.6,0.3-0.9,0.5l-0.6,0.3c-0.1,0.1-0.3,0.2-0.5,0.3l-0.7,0.5c-1.1,0.7-2.2,1.4-3.3,2.1
	c-0.1,0.1-0.3,0.2-0.4,0.2c-0.1,0.2-0.3,0.4-0.5,0.5c-0.6,0.5-1.2,1-1.8,1.5c-0.8,0.9-1.6,1.7-2.3,2.7c-1.2,1.7-2.3,3.4-3.3,5.2
	c-1.3,2.5-2.4,5.1-3,7.8c-0.1,0.2-0.1,0.5-0.1,0.7c0,0.1,0,0.1,0.1,0.2c0.1,0.1,0.2,0,0.3-0.1c0.1-0.1,0.1-0.1,0.1-0.2
	c0.5-1.4,1.3-2.7,1.9-4.1c1.2-2.6,2.8-5,4.5-7.2c2.5-3.1,5.4-5.7,8.8-7.6l0.2-0.1c0.7-0.4,1.3-0.8,2-1.1c0.6-0.3,1.1-0.6,1.8-0.7
	c0.2-0.1,0.4-0.2,0.5-0.3l0.2-0.1c0.8-0.4,1.2-1.2,1.3-2c0.1-0.4,0.1-0.9,0.2-1.3c0.2-2,0.9-3.7,2.5-4.9c0.1-0.1,0.2-0.1,0.2-0.2
	c2.4-2.3,5.4-3.2,8.6-3.5c2-0.2,3.9,0,5.9,0.2c0.9,0.1,1.5,0.7,2,1.4c0.1,0.2,0.1,0.4-0.2,0.4c-1,0-2,0-2.9,0
	c-2.7,0.1-5.3,0.5-7.8,1.6c-0.7,0.3-1.3,0.7-1.9,1.1c-1.6,1.3-2.3,2.9-2.4,5c0,0.4,0,0.7,0,1.1c0,0.9-0.4,1.5-1.3,1.9
	c-0.2,0.1-0.4,0.1-0.6,0.2c-0.5,0.4-1,0.7-1.6,0.9c-0.8,0.4-1.6,0.7-2.4,1.1c-1.3,0.7-2.6,1.5-3.8,2.3l-0.6,0.4
	c-0.4,0.3-0.8,0.6-1.2,0.9l-0.5,0.4c-0.5,0.4-1,0.7-1.4,1.1c-0.1,0.1-0.1,0.1-0.2,0.2l-0.5,0.5c-0.5,0.5-1,1-1.5,1.5l0,0l-0.7,0.8
	c-1.5,1.7-2.7,3.6-3.7,5.6l0,0c-0.1,0.1-0.2,0.3-0.2,0.5c-1.2,2.6-1.8,5.3-1.7,8.2c0.1,1.2,0.5,2.1,1.3,2.9l1,0.7
	c0.3,0.2,0.6,0.3,0.9,0.6c0.5,0.4,0.7,1,0.6,1.6c-0.1,0.5-0.3,0.9-0.4,1.4c-0.3,0.9-0.7,1.8-1,2.7c-1.6,4.7-2.6,9.5-2.9,14.4
	c-0.2,2.9-0.1,5.8,0.3,8.6c0.4,3.2,1.1,6.4,2.2,9.4c2.9,8.2,7.4,15.5,13.5,21.7c7.8,7.9,16.9,13.6,27.2,17.3c4,1.4,8.2,2.5,12.4,3.1
	c2.2,0.3,4.3,0.5,6.5,0.7c3.4,0.2,6.7,0,10.1-0.3c2.7-0.3,5.3-0.7,8-1.1c3.9-0.6,7.7-1.3,11.5-2.2c9-2.2,17.3-5.8,25.1-10.8
	c6.7-4.3,12.3-9.7,16.8-16.4c1.4-2.1,2.4-4.2,3.1-6.6c0.1-0.2,0.1-0.4,0.1-0.6c0-0.1-0.1-0.2-0.1-0.2c-0.1-0.1-0.2,0-0.3,0.1
	c-0.1,0.1-0.2,0.3-0.3,0.4c-0.3,0.4-0.5,0.9-0.8,1.3c-2.2,3.7-4.9,6.9-8,9.8c-4.6,4.2-9.8,7.4-15.6,9.8c-3.8,1.6-7.6,2.7-11.6,3.4
	l-0.4,0.1c-1.3,0.2-2.5,0.4-3.8,0.5l-0.4,0c-1.3,0.1-2.7,0.3-4,0.3c-1.1,0-2.3,0-3.4-0.1l-1.4-0.1c-0.9-0.1-1.8-0.2-2.7-0.3
	l-0.7-0.1c-0.6-0.1-1.3-0.2-1.9-0.3l-0.9-0.2c-0.3-0.1-0.7-0.1-1-0.2c-0.5-0.1-1.1-0.3-1.6-0.5c0,0,0,0,0,0c0,0,0,0-0.1,0
	c-4.8-1.5-9.2-3.7-13.1-7c-1.2-1-2.3-2.3-3-3.7c-1.1-2.1-2-4.3-2.3-6.7c-0.1-0.8-0.5-1.5-1.1-2c-0.6-0.5-1.1-1.1-1.6-1.7
	c-1.8-2-2.9-4.3-3.4-6.9c-0.5-2.5-0.3-4.9,0.2-7.4c0.2-0.9,0.4-1.7,0.9-2.5c1.4-2.4,3.3-4.2,5.9-5.2c1.1-0.5,2.3-0.7,3.6-0.8
	c1.5-0.1,2.8-0.7,3.7-2c0.1-0.1,0.2-0.2,0.3-0.3c0.9-1.1,2.1-1.7,3.5-1.8c2-0.2,3.8,0.3,5.6,1.1c1.5,0.7,2.8,1.6,4.1,2.7
	c0.2,0.2,0.5,0.4,0.7,0.6c1.1,0.8,2.4,0.4,2.8-0.9c0.2-0.5,0.2-1,0.3-1.5c0-1-0.1-1.9-0.3-2.8c-0.6-2.6-1.6-5-3-7.3
	c-0.4-0.6-0.9-1.2-1.3-1.8c-1.9-2.4-4.1-4.5-6.6-6.3c-4.4-3.2-9.3-4.7-14.7-5.2c-2.1-0.2-4.1-0.3-6.2-0.3c-3.6-0.1-7.1,0.2-10.6,0.9
	c-7,1.4-13.4,4-19.2,8.2c-5.6,4-10.3,9-14.1,14.6c-1.6,2.3-2.8,4.7-3.9,7.2c-0.2,0.5-0.5,1-0.7,1.5c0,0-0.1,0.1-0.2,0.1
	c0,0-0.1-0.1-0.1-0.1c-0.3-1.2-0.4-2.3-0.4-3.5c-0.1-2.8-0.1-5.5,0.1-8.2c0.3-3.3,1-6.5,2.1-9.6c0.4-1.1,0.9-2.1,1.3-3.2
	c0.4-1,0.7-1.9,0.8-2.9c0.1-1.2-0.3-2.1-1.4-2.7c-0.4-0.2-0.9-0.5-1.3-0.9c-0.1-0.1-0.2-0.2-0.3-0.3l-0.3-0.3
	c-0.4-0.4-0.7-0.9-0.9-1.4c0,0-0.2-0.6-0.2-0.8c-0.1-0.4-0.1-0.8-0.1-1.2v-0.3c0.1-0.7,0.2-1.4,0.4-2.1c0.2-0.7,0.5-1.3,0.7-2
	c0.2-0.7,0.5-1.3,0.7-1.9c0.1-0.2,0.8-1.5,0.8-1.5c0.2-0.4,0.5-0.8,0.7-1.2l0.1-0.1c0.1-0.1,0.2-0.2,0.3-0.3l0-0.1
	c0.7-0.9,1.4-1.8,2.2-2.6l0.3-0.3c0.2-0.2,0.4-0.3,0.6-0.5l0.3-0.2c0.4-0.4,0.8-0.7,1.3-1.1c2.5-1.8,5.1-3.3,7.9-4.6
	c1.5-0.7,3-1.3,4.4-2c0.3-0.2,0.7-0.3,1-0.5c0.6-0.4,0.9-0.9,0.9-1.6c0-0.2-0.1-0.4-0.1-0.6c-0.1-0.7-0.1-1.4-0.1-2.1
	c0.1-1,0.4-1.9,1.1-2.6c1.1-1.1,2.4-1.9,4-2.1c1.3-0.2,2.7-0.4,4-0.5c1.5-0.1,3-0.1,4.6,0c1.1,0.1,2,0.7,2.6,1.6
	c1.2,1.9,2.4,3.9,3.3,5.9c0.2,0.4,0.3,0.7,0.6,1.1c0.4,0.5,0.9,0.9,1.5,1c1.2,0.2,2.3-0.1,3.1-1.1c0.2-0.3,0.4-0.6,0.7-0.9
	c0.8-1,1.1-1.1,2.2-0.3c0.1,0,0.1,0.1,0.2,0.1c1.4,1.1,2.5,2.4,3.5,3.9c1.9,3,3.8,6.1,5.5,9.3c0.6,1,1.2,2.1,1.8,3.1
	c0.1,0.2,0.3,0.4,0.4,0.6c0.6,0.6,1.3,0.6,1.9,0.1c0.2-0.1,0.3-0.3,0.5-0.5c0.6-0.7,1-1.5,1.2-2.4c0.4-2,0.4-3.9,0.1-5.9
	c-0.3-2.1-1-4.1-1.9-6.1c-1.1-2.6-2.5-5-4-7.4c-3.8-6.2-8.6-11.3-14.7-15.3c-3.2-2.1-6.6-3.7-10.1-5.2c0,0-0.1,0-0.1-0.1l-0.1,0
	c-0.7-0.3-1.4-0.5-2-0.7l-0.1,0c-1.1-0.4-2.5-0.9-2.5-0.9c-0.4-0.1-0.8-0.2-1.1-0.4l-1-0.3c-1.1-0.4-2.3-0.7-3.4-1.1l-0.1,0
	c-2-0.5-3.5-0.8-3.5-0.8c-0.7-0.1-1.3-0.2-2-0.3c-1.3-0.2-2.7-0.2-4.1-0.3c-0.7,0-1.4,0-2-0.1c-2.4-0.3-4.8-0.6-7.2-0.5
	c-1.6,0-3.1,0.1-4.7,0.2c-1.6,0.1-3.2,0.4-4.7,0.7c-0.3,0.1-0.6,0.1-0.8,0.3c0,0,0,0.1,0,0.1c0,0.1,0,0.1,0.1,0.1
	c0.4,0,0.7,0.1,1.1,0.1c0.7-0.1,1.4-0.1,2.1-0.2c3.4-0.3,6.8-0.2,10.2,0.2c2.5,0.3,4.9,0.7,7.4,0.9l0.5,0.1c2.3,0.3,4.5,0.7,6.8,1.3
	c7.2,2.1,14,5.1,20.3,9.2c1.5,1,3,2,4.4,3.3c1,0.9,1.9,1.9,2.8,2.9c0,0,2.2,2.5,2.7,3.1l0.1,0.1c2.7,3.5,5,7.2,7,11.2
	c0.8,1.6,1.6,3.2,2.1,5c0.5,1.7,0.7,3.5,0.4,5.2c0,0.2-0.1,0.4-0.2,0.6c-0.1,0.2-0.4,0.3-0.6,0.2c-0.2-0.1-0.4-0.3-0.5-0.5
	c-0.5-0.6-0.9-1.2-1.2-1.9c-0.5-1-1.1-2.1-1.6-3.1c-1.4-2.6-2.9-5-4.8-7.3c-0.5-0.7-1.1-1.3-1.7-1.9l-0.5-0.4c0,0,0,0,0,0
	c0,0,0,0,0,0l0,0c-0.6-0.4-1.2-0.8-1.9-1.1c-1.2-0.4-2.3-0.2-3.1,0.8c-0.3,0.3-0.6,0.7-0.9,1.1c-0.2,0.2-0.4,0.5-0.6,0.7
	c-0.3,0.3-0.6,0.3-0.9-0.1c-0.2-0.3-0.4-0.6-0.5-1c-0.2-0.4-0.4-0.8-0.6-1.2c0,0,0,0,0,0l0,0c-1-2-2.2-3.9-3.6-5.6
	c-2.2-2.7-4.7-5.2-7.5-7.3c-1.3-1-2.7-1.9-4.2-2.7c-0.8-0.4-1.7-0.8-2.6-1c-2.1-0.5-3.9-0.1-5.3,1.6c-0.3,0.4-0.7,0.8-1,1.3
	c-0.2,0.2-0.3,0.4-0.5,0.7c-0.5,0.7-0.8,0.7-1.6,0.4c-0.9-0.3-1.7-0.8-2.4-1.4c-1.1-0.9-2.3-1.6-3.6-2.1c-1.2-0.5-2-0.2-2.7,0.8
	c-0.4,0.6-0.7,1.2-1,1.9c-0.2,0.4-0.4,0.9-0.6,1.3c-0.3,0.6-0.9,0.9-1.6,0.9c-1,0-1.8-0.4-2.5-1c-1.5-1.2-3.2-2-4.9-2.8
	c-3.8-1.7-7.7-2-11.7-1.2c-1.6,0.3-3.1,0.8-4.7,1.3c-4.4,1.3-8.4,3.3-12.2,5.6c-0.8,0.5-1.6,1.1-2.4,1.7c-2.5,1.9-4.5,4.1-6.4,6.5
	c-2.1,2.7-4.1,5.4-5.5,8.5c-0.1,0.3-0.3,0.6-0.6,0.8c0-0.4,0.1-0.7,0.2-1c0.2-0.5,0.4-1,0.5-1.4c2.3-6.6,5.2-12.9,8.9-18.9
	c6.4-10.4,14.7-19,25.1-25.6c6.9-4.4,14.4-7.6,22.2-9.8c2.1-0.6,4.3-1.2,6.5-1.6c1.3-0.2,2.6-0.3,3.9-0.8c0.3-0.1,0.6,0,0.8,0.2
	c0.2,0.2,0.3,0.4,0.5,0.6c1,1.2,1.9,2.5,2.9,3.7c0.4,0.5,0.9,1.1,1.3,1.5c0.6,0.6,1.3,1,2,1.3c1.1,0.4,2.1,0.1,2.8-0.7
	c0.3-0.3,0.5-0.7,0.7-1c0.5-0.8,1-1.6,1.5-2.4c0.3-0.5,0.7-0.9,1-1.3c1.5-1.4,3.2-1.9,5.2-1.6c1,0.2,2,0.5,2.9,1
	c0.8,0.4,1.4,0.9,2.1,1.5c0.7,0.7,1.2,1.4,1.7,2.2c1.2,2,2.4,4,3.4,6.1c0.3,0.7,0.7,1.4,1.3,2c0.5,0.5,1,0.8,1.6,1
	c0.4,0.1,0.8,0.1,1.2,0l0.3-0.1c0.4-0.1,0.7-0.3,1.1-0.6l0,0c0.6-0.7,0.7-1.1,0.7-1.1c0.2-0.5,0.2-1,0.2-1.5c0-2.4-0.4-4.7-1-7
	c-0.2-0.9-0.5-1.9-0.9-2.8c0,0-4.6-14.9-21.3-30.7c0,0-10.4-10.7-27.6-15.1c0,0-3.1-0.9-3.4-0.4c0,0,0,0.3,0.4,0.4
	c0.4,0.1,8.9,3.1,17.1,8.8c0,0,13.3,7.6,25.4,26.9c0,0,3.3,5.9,4.4,8.1l0,0.2c0.9,1.8,1.7,3.8,1.7,3.8c0.1,0.2,0.2,0.4,0.3,0.6
	c0.6,1.6,0.9,3.2,1.2,4.8c0,0.1,0.1,0.3-0.1,0.3c-0.1,0-0.1-0.1-0.2-0.1c-0.7-1.3-1.5-2.5-2.2-3.8l-0.2-0.4
	c-1.1-2.1-2.6-3.7-4.4-5.1c-1.8-1.3-3.7-2.2-6-2.4c-0.3,0-0.6,0-0.9-0.1l-0.2,0c-1.3,0-2.6,0.2-3.8,0.9c-2,1.1-3.4,2.7-4.3,4.7
	c-0.2,0.4-0.3,0.9-0.5,1.3c-0.1,0.3-0.1,0.8-0.5,0.8c-0.4,0-0.5-0.4-0.7-0.7c0,0,0-0.1-0.1-0.1c-1.4-2.4-3.1-4.5-4.7-6.6
	c-1.6-2.1-3.4-4.2-5.5-5.9c-0.2-0.2-0.4-0.4-0.6-0.6c-0.6-0.6-1.2-1.2-1.9-1.7c-1.8-1.4-3.7-2.7-5.7-3.9c-2-1.2-4-2.2-6.2-3
	c-2.3-0.9-4.7-1.4-7.2-1.3c-3.2,0.1-5.7,1.4-7.7,3.9c-0.8,1-1.3,2.1-1.8,3.3c-0.2,0.6-0.5,1.3-0.7,1.9c-0.3,0.7-0.5,0.7-1.1,0.3
	c-0.9-0.6-1.7-1.3-2.3-2.1c-0.6-0.9-1.4-1.6-2.1-2.3c-0.7-0.7-1.4-1.4-2.1-2.1c-0.5-0.5-1-1.1-1.5-1.6c-3.9-3.9-8.5-6.4-14-7.2
	c-3.1-0.4-6.2-0.1-9.1,0.8c-2.3,0.8-4.5,1.8-6.8,2.8c-2.1,1-4.2,2-6.4,2.9c-1.3,0.5-2.7,0.9-4.1,1.1c-2,0.3-4,0.4-6,0.3
	c-2.4-0.1-4.8-0.1-7.2,0c-3.4,0.2-6.7,0.6-10,1.3c-5,1.1-9.8,2.8-14.3,5.3c-4.4,2.5-8.5,5.4-12.4,8.7c-4.1,3.4-7.9,7.1-11.5,11.1
	c-5.5,6-11.3,11.8-17.3,17.4c-5.4,5.1-10.8,10.2-16.1,15.4c-4.6,4.4-9,9-13.3,13.8c-1.6,1.8-3,3.6-4.2,5.6c-0.4,0.7-0.8,1.4-1.3,2.1
	l-0.5,0.8c-0.1,0.2-0.3,0.5-0.4,0.7l-0.2,0.4c-0.1,0.2-0.2,0.3-0.3,0.5l-0.4,0.7c-0.2,0.3-0.3,0.6-0.7,0.8c0-0.2,0-0.3,0-0.4
	c0.7-2,1.3-4.1,1.9-6.1c4.1-13.9,10.1-26.9,18-39.1c8.1-12.5,17.7-23.5,28.9-33.2c3.6-3.1,7.4-6.1,11.3-8.9l0.2-0.1
	c2.2-1.6,4.4-3.1,6.7-4.5c0.3-0.2,0.7-0.4,1-0.6l1-0.6c0.9-0.5,1.7-1,2.6-1.5l0.8-0.4c1-0.6,2-1.1,3-1.7l0.8-0.4
	c0.3-0.2,0.7-0.3,1-0.5l0.5-0.3c4.3-2.1,8.7-4.1,13.2-5.8l0.4-0.1c1.7-0.7,3.5-1.3,5.2-1.9c5.3-1.8,10.7-3.2,16.1-4.5l0.8-0.2
	c0.3-0.1,0.7-0.2,1.1-0.3c0.4-0.1,0.9-0.2,1.3-0.3l0.2-0.1c4.2-0.9,8.4-1.8,12.7-2.6c2.9-0.5,5.7-1,8.6-1.5c1.3-0.2,2.7-0.5,4-0.5
	c1,0,2.1-0.1,3.1-0.2c1-0.1,2-0.2,3-0.6c0.1-0.1,0.3-0.1,0.3-0.4c-1.4-0.1-2.8-0.3-4.2-0.4c-0.2,0-0.4,0-0.6,0c-1.3-0.1-2.7-0.1-4,0
	c-0.2,0-0.5,0-0.7,0c-0.3,0-0.6,0.1-0.9,0.1c-4.4,0.2-8.7,0.3-13.1,0.8c-1.4,0.1-2.7,0.3-4.1,0.5l-0.5,0.1c-0.6,0.1-1.2,0.2-1.8,0.3
	l-2.3,0.4c-0.4,0.1-0.7,0.1-1.1,0.2l-0.5,0.1c-0.6,0.1-1.2,0.2-1.8,0.3l-0.7,0.1c-0.8,0.2-1.7,0.3-2.5,0.5l-0.6,0.1
	c-1.8,0.4-3.6,0.8-5.4,1.3c-3.2,0.9-6.3,1.9-9.4,3l-0.5,0.2c-0.5,0.2-1,0.3-1.5,0.5l-0.5,0.2c-1.2,0.4-2.3,0.9-3.5,1.4l-0.8,0.3
	c-2.9,1.1-5.7,2.3-8.5,3.7l-1.1,0.5c-2.6,1.3-5.2,2.6-7.7,4C77.2,132.3,67.6,139.3,58.7,147.3 M183.4,314.2
	C183.4,314.2,183.4,314.3,183.4,314.2C183.4,314.3,183.3,314.2,183.4,314.2C183.4,314.2,183.4,314.2,183.4,314.2 M204.4,287.1
	c-0.1-1.6-0.3-3.2-0.5-4.9c-0.1-1.2-0.1-2.4,0-3.6c0.1-0.7,0.2-1.5,0.1-2.2c-0.3,0-0.3,0.2-0.4,0.3c-0.4,0.9-0.5,1.9-0.7,2.9
	c-0.2,1.5-0.2,3-0.2,4.6c0,0.2,0.1,0.5-0.1,0.7c-0.2,0.1-0.3-0.1-0.3-0.1c-0.5-0.6-0.8-1.4-0.8-2.2c-0.3-3.4,0.3-6.7,1.9-9.8
	c0.6-1.3,1.3-2.5,2.1-3.7c0.3-0.5,0.6-0.9,1.1-1.2c0.1-0.1,0.2-0.2,0.4-0.1c-0.9,3.6-1.5,7.3-1.6,11c-0.1,3.7,0,7.4,0.4,11.1
	C205.1,289.1,204.5,288.2,204.4,287.1 M219.6,304.1c-0.2,0.2-0.4,0-0.7-0.1c-0.8-0.4-1.4-1.1-1.8-1.9c-0.9-1.6-1.7-3.2-2.3-4.8
	c-1.7-4.1-2.9-8.2-3.6-12.6c-0.2-1.1-0.4-2.1-0.6-3.2c0-0.1,0-0.1-0.1-0.2c0,0-0.1-0.1-0.1-0.1c0,0-0.1,0-0.1,0.1
	c-0.2,0.3-0.2,0.7-0.2,1.1c-0.1,3.6,0.2,7.2,1.1,10.8c0.3,1.4,0.7,2.8,1,4.1c0,0.2,0.1,0.3,0.1,0.5c0,0.1,0,0.1-0.1,0.2
	c0,0-0.1,0-0.2,0c-0.1-0.1-0.3-0.2-0.4-0.3c-1.4-1.3-2.3-3-2.7-4.8c-0.9-3.4-1.6-6.9-1.9-10.5c0-0.6-0.1-1.1-0.2-1.7
	c-0.2-3.6,0.3-7,1.3-10.4c0.5-1.7,1-3.3,1.5-5c0.2-0.6,0.4-1.1,0.7-1.6c0.8-1.4,1.9-2.5,3.2-3.5c0,0.7-0.2,1.2-0.4,1.7
	c-1,2.4-1.6,4.9-1.9,7.5c-0.1,1-0.3,1.9-0.5,2.9c-0.1,0.3-0.1,0.6,0,0.9c0,0.1,0.1,0.2,0.2,0.2c0.1,0,0.2-0.1,0.2-0.1
	c0.1-0.2,0.2-0.5,0.3-0.8c1-4.7,2.7-9.2,4.7-13.5c0.2-0.4,0.4-0.8,0.6-1.2c0.5-0.9,1.1-1.5,2-2c0.2-0.1,0.4-0.3,0.5-0.1
	c0.2,0.1,0,0.4,0,0.5c-0.2,0.5-0.4,0.9-0.6,1.4c-1.3,2.9-2.2,6-2.9,9.1c-0.4,1.7-0.8,3.4-1.1,5.1c-0.6,3.5-0.8,7-0.4,10.5
	c0.1,1.1,0.2,2.3,0.3,3.4c0.5,4.9,1.5,9.6,3.6,14c0.6,1.3,1.1,2.6,1.7,3.9C219.6,303.8,219.7,304,219.6,304.1 M232.4,312.1
	c-0.2-0.2-0.4-0.4-0.6-0.7c-0.9-0.9-1.6-1.9-2.3-3c-2.5-4-4.7-8-6.4-12.4c-1.3-3.2-2.1-6.5-2.8-9.9c-0.1-0.5-0.2-1.1-0.3-1.6
	c0-0.1-0.1-0.2-0.2-0.2c-0.1,0-0.2,0.1-0.2,0.2c-0.1,0.3-0.1,0.7-0.1,1c0.1,2.4,0.6,4.8,1.1,7.1c1,3.9,2.4,7.7,4.1,11.4
	c0.6,1.4,1.3,2.7,1.9,4c0.1,0.1,0.1,0.2,0.2,0.4c0,0.1,0.1,0.2,0,0.3c-0.1,0.1-0.2,0.1-0.3,0c-0.6-0.3-1.1-0.6-1.5-1
	c-0.4-0.4-0.7-0.9-1.1-1.4c-1.8-2.7-3.2-5.5-4.2-8.5c-0.7-2.1-1.4-4.2-2.1-6.4c-0.7-2.2-1.2-4.5-1.4-6.8c-0.3-2.9-0.3-5.8-0.1-8.7
	c0.4-5.3,1.5-10.5,3.4-15.5c0.4-1.1,0.9-2.1,1.4-3.2c0.7-1.2,1.3-2.4,2-3.6c0.3-0.6,0.7-1.1,1.3-1.5c0.5-0.4,1.1-0.6,1.8-0.5
	c0.2,0,0.3,0.2,0.2,0.4c-0.1,0.1-0.2,0.3-0.3,0.4c-3,4.5-5.1,9.3-6.1,14.6c-0.5,2.5-0.6,5-0.7,7.5c0,0.1,0,0.2,0,0.3
	c0,0.1,0.1,0.2,0.2,0.2c0.1,0,0.2-0.1,0.3-0.1c0.1-0.2,0.1-0.4,0.2-0.6c0.3-1.7,0.6-3.3,1-5c1-4.5,2.7-8.8,4.9-12.9
	c0.9-1.7,2-3.2,3.2-4.7c0.2-0.3,0.5-0.6,0.6-0.9c0.7-1.1,1.5-1.5,2.9-1.4c0,0.3-0.1,0.4-0.2,0.5c-1,1.3-1.9,2.6-2.7,4
	c-0.9,1.6-1.8,3.2-2.7,4.8c-1.4,2.5-2.3,5.2-3,8c-1.1,4.6-1.5,9.2-1.2,13.8c0.5,9.4,3,18.2,7.7,26.4c0.8,1.5,1.8,2.9,2.8,4.2
	c0.3,0.3,0.5,0.7,0.6,1.2C233.2,312.6,232.8,312.4,232.4,312.1 M240.6,315.1C240.6,315.2,240.6,315.2,240.6,315.1
	c-0.3,0.1-0.6,0-0.8-0.1c-0.2-0.1-0.3-0.3-0.5-0.4c-3.6-3.8-6.8-7.8-9.3-12.4c-2.1-3.8-3.7-7.9-4.9-12.1c-0.5-1.6-0.7-3.3-0.9-5
	c-0.3-2.4-0.5-4.8-0.4-7.2c0.1-7.1,1.8-13.8,5-20c0.9-1.7,2-3.4,3.4-4.8c0.8-0.8,1.5-1.7,2.1-2.6c0.3-0.4,0.6-0.8,1-1.1
	c0.5-0.4,1.1-0.6,1.8-0.5c0.2,0,0.3,0.2,0.2,0.4c-0.1,0.1-0.2,0.3-0.3,0.4c-3.7,3.7-6.4,8-8.5,12.8c-0.5,1.2-1,2.4-1.3,3.6
	c-0.2,0.9-0.4,1.9-0.3,2.8c0,0.1,0,0.2,0.2,0.2c0.1,0,0.2,0,0.3-0.1c0.2-0.2,0.3-0.5,0.4-0.8c0.7-2.1,1.4-4.1,2.3-6.1
	c1.9-4,4.4-7.6,7.5-10.8c0.6-0.6,1.2-1.2,1.8-1.8c0.3-0.3,0.6-0.5,0.9-0.6c0.2-0.1,0.3-0.1,0.4,0.1c0.1,0.1,0,0.3-0.1,0.4
	c-0.1,0.2-0.3,0.3-0.4,0.5c-3.2,3.2-5.8,6.8-8.1,10.7c-1.5,2.6-2.5,5.4-3,8.4c-0.3,2-0.6,4-0.7,6c-0.2,1.7-0.1,3.3,0.1,5
	c0.3,3.7,1,7.3,1.8,10.8c1,4.6,2.9,8.9,5.4,13c1,1.6,2.1,3.1,3.2,4.6c0.1,0.1,0.2,0.3,0.3,0.4c0.1,0,0.2,0.1,0.2,0.2
	c0.1,0,0.2,0.1,0.2,0.2c-0.1,0.1-0.2,0-0.3-0.1c-0.1-0.1-0.1-0.1-0.2-0.2c-1.6-1.5-3-3.2-4.4-5c-2.8-3.8-5-8-6.3-12.6
	c-0.3-1.1-0.7-2.1-1-3.2c0-0.1-0.1-0.3-0.1-0.4c-0.1-0.1-0.1-0.2-0.2-0.2c-0.1,0-0.2,0.1-0.2,0.2c0,0.3,0,0.5,0.1,0.8
	c0.2,1.4,0.6,2.8,1,4.2c1.2,4.4,3,8.5,5.6,12.4c1.4,2.1,2.7,4.2,4.1,6.2c0.8,1.2,1.7,2.3,2.7,3.3c0.1,0.1,0.3,0.3,0.4,0.5
	C240.7,315,240.6,315.1,240.6,315.1 M239.5,309.1c0.1,0,0.2,0.1,0.1,0.2c0,0-0.1,0-0.1,0C239.5,309.3,239.4,309.2,239.5,309.1
	 M251.8,314.2c0,0-0.1,0.1-0.2,0c-0.2-0.1-0.3-0.2-0.5-0.3c-2.1-1.3-4-2.8-5.8-4.5c-2.5-2.4-4.6-5.1-6.4-8.1
	c-2.2-3.8-4-7.7-5.3-11.9c-0.5-1.6-0.8-3.1-1.1-4.8c-0.1-0.5-0.2-1-0.4-1.5c0-0.2-0.1-0.3-0.3-0.3c-0.3,0.6-0.3,1.3-0.2,2
	c0.2,2.2,0.7,4.4,1.4,6.5c2.4,6.8,5.9,12.9,10.9,18.2c0.5,0.5,0.9,1,1.2,1.5c0,0.1,0,0.1,0,0.2c0,0-0.1,0.1-0.2,0
	c-0.3-0.1-0.6-0.3-0.8-0.6c-4.8-4.4-8.7-9.5-11.2-15.7c-1.1-2.7-1.8-5.5-2.3-8.3c-0.6-3.3-1-6.7-0.8-10.1c0.2-5.4,1.3-10.5,3.8-15.4
	c1.1-2,2.3-3.9,3.8-5.7c1.4-1.6,2.7-3.2,4.2-4.7c0.3-0.3,0.7-0.6,1.1-0.9c0.3-0.2,0.6-0.4,0.9-0.4c0.2,0,0.4,0,0.5,0.2
	c0.1,0.3-0.1,0.3-0.3,0.5c-1.6,1.4-3,2.9-4.3,4.5c-2.4,3-4.2,6.2-5.5,9.8c-0.1,0.2-0.3,0.4-0.1,0.7c0.3,0,0.3-0.3,0.4-0.5
	c0.6-1.1,1.2-2.3,1.8-3.4c2-3.7,4.7-6.9,7.9-9.6c0.4-0.4,0.9-0.7,1.5-0.9c0.1,0,0.1,0,0.2,0.1c0,0.1,0,0.2,0,0.2
	c-0.1,0.2-0.3,0.4-0.5,0.5c-1.2,1.3-2.4,2.5-3.5,3.8c-2,2.1-3.6,4.6-4.7,7.3c-0.4,1-0.8,2.1-1.3,3.1c-0.9,2.2-1.4,4.4-1.7,6.8
	c-0.2,1.8-0.4,3.6-0.4,5.4c-0.1,5.9,1.1,11.6,3.5,17c2,4.6,4.6,8.8,7.9,12.7c1.7,1.9,3.5,3.7,5.5,5.3c0.3,0.3,0.6,0.5,0.9,0.8
	c0.2,0,0.3,0.2,0.5,0.3C251.9,314.1,251.9,314.2,251.8,314.2 M239.6,264.2c0.3,0,0.4-0.4,0.5-0.6c2-3.2,4.4-6.1,7.2-8.6
	c0.6-0.5,1.3-1,2-1.5c0.2-0.1,0.5-0.2,0.8,0c0.2,0.1,0.2,0.4,0.1,0.5c-0.2,0.2-0.5,0.4-0.7,0.6c-3.5,2.8-6.4,6-8.4,10.1
	c-1.4,2.9-2.2,5.9-2.6,9c-0.3,2.2-0.3,4.5-0.1,6.7c0.3,3.5,1.1,7,2.3,10.3c1,2.7,2.1,5.3,3.5,7.8c1.2,2,2.5,3.9,4.1,5.5
	c0.2,0.2,0.4,0.5,0.6,0.7c0,0,0,0.1,0,0.2c0,0-0.1,0.1-0.2,0c-0.1-0.1-0.2-0.2-0.3-0.3c-2.2-2.2-4.3-4.6-6-7.2
	c-1.3-2.1-2.4-4.2-3.2-6.5c-0.4-1-0.8-1.9-1.2-2.9c0-0.1-0.1-0.2-0.1-0.3c0-0.1-0.1-0.1-0.2-0.1c-0.1,0-0.1,0-0.1,0.1
	c0,0.3,0,0.7,0.1,1c0.6,3.2,1.7,6.2,3.3,9c1.3,2.3,2.7,4.5,4.4,6.6c0.1,0.1,0.2,0.3,0.3,0.4c0.1,0.1,0.1,0.2,0,0.3
	c-0.1,0-0.1,0-0.2,0c-0.1,0-0.1-0.1-0.2-0.1c-1.9-2.1-3.9-4.2-5.4-6.7c-1.5-2.6-2.6-5.3-3.4-8.2c-0.6-2.2-1.1-4.5-1.4-6.8
	c-0.1-1.4-0.3-2.8-0.3-4.2c0.1-5.8,1.3-11.3,3.9-16.5c1.2-2.5,2.9-4.7,4.8-6.7c1.2-1.3,2.3-2.5,3.5-3.7c0.1-0.1,0.1-0.1,0.2-0.2
	c0.5-0.4,0.6-0.4,1.1,0.1c0.1,0.1,0.1,0.3,0,0.4c-0.1,0.1-0.3,0.3-0.5,0.4c-2.8,2.2-5.1,4.8-6.9,7.9c-0.3,0.5-0.7,1.1-1,1.7
	c-0.1,0.3-0.3,0.6-0.4,0.8C239.4,263.9,239.5,264.3,239.6,264.2 M250,309.3C250,309.4,250,309.4,250,309.3
	C249.8,309.4,250,309.4,250,309.3c-0.2,0-0.3,0-0.4,0c-1.1-1-2.2-2-3.2-3c-0.1-0.1-0.1-0.2-0.2-0.3c0,0,0.1-0.1,0.1-0.1
	c0.1,0.1,0.3,0.1,0.3,0.2c0.7,0.7,1.6,1.4,2.3,2.1c0.3,0.3,0.6,0.6,0.8,0.9C249.9,309,250,309.2,250,309.3
	C250,309.4,249.9,309.2,250,309.3 M251.3,304.2c0-0.1,0.1-0.1,0.1-0.1c0.1,0,0.1,0.1,0.2,0.2c-0.1,0.1-0.1,0.1-0.2,0.1
	C251.4,304.3,251.3,304.3,251.3,304.2 M249.7,289.3c0.4,0.4,0.6,0.9,0.7,1.4c0.5,2.4,1.3,4.7,2.5,6.8c0.1,0.1,0.1,0.2,0.1,0.3
	c0.1,0.1,0.2,0.2,0,0.3c0,0-0.1-0.1-0.2-0.2c-0.4-0.2-0.6-0.6-0.9-1c-2.9-4.3-5.3-8.9-6.5-14c-0.3-1.1-0.5-2.3-0.7-3.5
	c0-0.1,0-0.3,0-0.5c0.2,0.4,0.3,0.7,0.4,1.1C245.9,283.5,247.5,286.6,249.7,289.3 M243.8,272.1c-0.6,2.7-0.7,5.4-0.5,8.2
	c0.3,2.9,1,5.7,2.1,8.4c1,2.5,2.2,4.9,3.4,7.3c0.6,1.2,1.4,2.2,2.2,3.2c0.1,0.2,0.3,0.4,0.4,0.6c0,0,0,0.1,0,0.2c0,0-0.1,0-0.2,0
	c-0.2-0.2-0.4-0.4-0.6-0.7c-1.2-1.4-2.3-2.9-3.3-4.3c-0.6-0.8-1.2-1.6-1.8-2.3c-0.1-0.2-0.3-0.4-0.6-0.5c0,0.5,0.1,0.9,0.2,1.3
	c0.4,1.4,1,2.7,1.7,3.9c1.2,2.1,2.5,4,4.1,5.8c0.1,0.1,0.2,0.3,0.3,0.4c0,0,0,0.1-0.1,0.2c0,0-0.1,0-0.1,0c-0.1-0.1-0.2-0.1-0.3-0.2
	c-5-5.4-8.7-11.5-10.2-18.8c-0.7-3.6-0.9-7.3-0.5-10.9c0.6-5.8,2.9-10.8,6.7-15.2c1.2-1.3,2.5-2.3,3.9-3.4c0.2-0.2,0.5-0.3,0.7-0.3
	c0.1,0,0.3,0,0.3,0.1c0.1,0.1,0.1,0.3,0,0.5c-0.1,0.1-0.2,0.2-0.3,0.3c-2.9,1.9-5.2,4.5-6.9,7.5c-1.6,2.7-2.5,5.7-3,8.8
	c-0.3,1.9-0.4,3.8-0.5,5.7c0,1,0.1,2,0.3,2.9c0,0.1,0.1,0.2,0.2,0.4c0,0,0.1,0,0.2,0c0-0.5,0-0.9,0-1.4c0.2-3.6,0.7-7.2,1.8-10.6
	c0.9-2.8,2.3-5.3,4.3-7.5c1.9-2.1,4-3.8,6.3-5.2c0.7-0.4,1.4-0.7,2.2-1c0.4-0.1,0.7,0,1,0.2c0.1,0.1,0.1,0.3,0,0.3
	c-0.2,0.1-0.5,0.3-0.7,0.4c-1.8,1-3.5,2-5,3.3C247.4,262.8,244.9,267,243.8,272.1 M248.5,265.6L248.5,265.6L248.5,265.6
	C248.5,265.6,248.5,265.6,248.5,265.6 M248.5,265.5c0-0.5,0.3-0.8,0.7-1.1c0,0,0,0,0.1,0C249.1,264.9,248.7,265.2,248.5,265.5
	 M249.3,264.5c0-0.2,0-0.2,0.2-0.2C249.4,264.4,249.4,264.5,249.3,264.5 M249.7,264.1c-0.1,0.1-0.1,0.1-0.2,0.2
	c-0.1-0.1,0-0.2,0.1-0.3c0,0,0.1,0,0.2,0C249.7,264,249.7,264.1,249.7,264.1 M260.3,257.8c-0.8,0.8-1.5,1.7-2,2.7
	c-0.2,0.4-0.5,0.6-0.9,0.6c-0.8,0-1.5,0.1-2.2,0.3c-1.6,0.3-3.1,1-4.4,2c-0.2,0.1-0.3,0.3-0.6,0.3c0,0-0.1-0.1-0.1-0.1
	c0-0.1,0.1-0.2,0.1-0.3c0.4-0.4,0.7-0.7,1.1-1.1c2.4-2.1,5-3.9,8-5c0.2-0.1,0.4-0.2,0.7-0.2c0.2-0.1,0.6,0.2,0.5,0.5
	C260.4,257.6,260.4,257.7,260.3,257.8 M201.3,270.7c0.1-0.1,0.4-1.1,0.4-1.1c0.3-1,0.7-2,1.2-2.9c4.1-7.9,9.9-14,17.5-18.5
	c3.2-1.9,6.5-3.6,10.1-4.8c2.5-0.9,5.1-1.4,7.7-1.8c1.7-0.3,3.5-0.4,5.3-0.5c4-0.1,7.9,0.3,11.7,1.3c0.8,0.2,1.6,0.5,2.3,0.8
	c3.2,1.3,6.2,2.8,9.1,4.8c3.5,2.4,6.1,5.6,8.2,9.3c0.4,0.8,0.8,1.7,1,2.5c0.1,0.2,0.1,0.4,0.1,0.5c0,0.3,0,0.5-0.1,0.7
	c-0.2,0.4-0.5,0.5-0.8,0.1c-0.4-0.4-0.7-0.8-1-1.3c-1.4-2.3-3.3-4.1-5.2-5.8c-1-0.9-2.3-1.4-3.6-1.8c-0.4-0.1-0.8-0.1-1.2-0.1
	c-1.2,0.1-1.8,1.3-1.3,2.4c0.1,0.3,0.3,0.5,0.5,0.8c0.2,0.3,0.4,0.6,0.5,0.9c0.1,0.1,0.1,0.3,0.1,0.5c0,0.2-0.2,0.3-0.4,0.3
	c-0.2-0.1-0.3-0.2-0.5-0.3c-0.5-0.4-0.9-0.9-1.3-1.4c-0.9-1.1-1.9-2.2-3.1-3.1c-0.5-0.4-1-0.7-1.5-1.1c-0.5-0.3-1-0.5-1.5-0.5
	c-1.1-0.1-1.6,0.4-1.7,1.4c0,0.3,0,0.5-0.1,0.8c-0.1,0.4-0.3,0.5-0.6,0.3c-0.2-0.1-0.3-0.3-0.5-0.4c-0.7-0.7-1.4-1.3-2.1-2.1
	c-0.5-0.5-1-1-1.7-1.3c-2.5-1.3-5-2.2-7.7-2.7c-2.1-0.4-4.2-0.4-6.3-0.2c-3.8,0.4-7.3,1.7-10.7,3.2c-4.5,2.1-8.6,4.8-12.2,8.3
	c-2.6,2.5-5.1,5.2-7.2,8.1c-0.8,1.1-1.6,2.3-2.3,3.5c-0.2,0.3-0.3,0.6-0.5,0.9l-0.2,0.5c-0.1,0.4-0.3,0.7-0.6,1.2
	C200.9,271.5,201.1,271.2,201.3,270.7 M310.9,359.2c-13,19.9-28.5,38.6-48.8,51.5c-9.4,5.9-20.2,12.5-31.2,14.7
	c-8.4,1.7-17.1,1.8-25.7,1c-13.8-1.3-27.7-3.9-41.3-6.5c-7-1.3-14.1-2.7-21.1-3.8c-6.7-1.1-13.9-2.7-20.7-2.4c0,0-8-0.2-19.5,1.6
	l-0.5,0.1c-0.2,0.1-1.5,0.4-1.5,0.3c0,0-0.1-0.3,0.4-0.6l0.1-0.1c0.3-0.2,0.7-0.4,1-0.5c0,0,1.6-0.7,4.4-1.4l0.1,0
	c0,0,1.9-0.5,6.1-1.2l0.4-0.1c1.4-0.2,2.7-0.3,4.1-0.5c1.6-0.1,2.5-0.3,4.6-0.5c1.3-0.1,2.6-0.2,3.9-0.3c17.7-0.5,35.4,2,52.8,5.2
	c17.1,3.1,33.6,7.3,51.1,3.6c4.2-0.9,8.4-2.2,12.4-3.8c1.5-0.6,2.9-1.3,4.3-2.1c1-0.5,1.9-1.1,2.9-1.7c0.3-0.2,0.7-0.4,1-0.7
	c0-0.2-0.2-0.1-0.3-0.1c-0.1,0-0.2,0-0.3,0c-1.2,0.3-2.5,0.5-3.7,0.6c-13,1.4-26,1.7-38.9-0.5c-13.1-2.2-25.9-6.3-38.7-9.7
	c-20.9-5.6-43-10.6-64.8-9.7c-9,0.4-18.1,1-27,2.2c-1.5,0.2-3.1,0.5-4.6,0.7c-1.3,0.2-2.7,0.4-4,0.6c-0.2,0-0.3,0-0.5-0.1
	c0,0-0.1-0.1-0.1-0.1c0.1-0.1,0.1-0.2,0.2-0.2c1.5-0.9,3-1.8,4.6-2.3c1.9-0.6,3.8-1.4,5.8-1.9c2.1-0.6,4.2-1.2,6.3-1.8
	c15.3-4.2,31.7-4.3,47.4-2.2c3.5,0.5,6.9,0.9,10.4,1.4c3.8,0.6,7.6,1.3,11.4,2.3c2.3,0.6,4.6,1.1,6.8,1.7l0.6,0.1
	c0.5,0.1,0.9,0.2,1.3,0.3c3.9,1,7.8,2.2,11.6,3.3l10.7,2.6c0.3,0.1,0.6,0.2,0.9,0.2c0.7,0.2,1.5,0.4,2.2,0.6l1.8,0.5
	c13.6,3.4,28.2,6.5,42.1,6.5c12.7,0,25.6-2.3,37-8.1c2.8-1.4,5.5-3.1,8-5.1c0.3-0.2,0.6-0.4,0.8-0.8c-0.5,0-0.9,0.1-1.3,0.3
	c-1.5,0.5-2.9,0.8-4.4,1.1c-1.3,0.3-2.7,0.5-4,0.8c-16.2,3-33.5,0.5-49.6-2.7l-0.7-0.1c-1.5-0.3-2.9-0.6-4.4-0.9
	c-2.6-0.5-5.1-1.1-7.7-1.7l-0.7-0.2c-1.2-0.3-2.4-0.6-3.6-0.9l-0.6-0.2c-10.1-2.7-20.2-6.1-29.9-9.7c-30.4-11.3-64-13.5-95.8-7.9
	c-1.7,0.3-3.4,0.7-5.1,1c-2.9,0.6-5.8,1.2-8.8,1.8c-1.7,0.4-3.4,0.7-5,1.2c-1.7,0.4-3.3,1-5,1.5c-0.8,0.2-1.6,0.5-2.5,0.6
	c-0.4,0.1-0.7,0.2-1.1,0.3c-0.3,0.1-0.7,0.2-1,0.1c-0.1-0.3,0.1-0.3,0.2-0.4c0.4-0.3,0.9-0.5,1.3-0.7c1.1-0.5,2.1-1,3.1-1.6
	c2.5-1.4,5.1-2.4,7.7-3.5c2.7-1.1,5.5-1.8,8.3-2.8c0.5-0.2,0.9-0.3,1.3-0.5c2.5-1.1,5.2-1.8,7.9-2.4c32.8-7.4,68.4-3.6,99.8,7.9
	c14.5,5.3,29.5,10.4,44.7,13.7c21.5,4.7,47,8.5,66.1-5.7c1.4-1,2.7-2.1,3.9-3.2c0.2-0.2,0.4-0.4,0.6-0.6c0.1-0.1,0.3-0.1,0.2-0.2
	c-0.1-0.1-0.2-0.1-0.3,0.1c-1.3,0.4-2.7,0.7-4,1.2c-1.2,0.4-2.4,0.6-3.6,0.9c-0.9,0.2-1.8,0.3-2.7,0.6c-1.8,0.5-3.6,0.8-5.5,0.9
	c-1,0.1-2,0.1-2.9,0.3c-0.6,0.1-1.1,0.1-1.7,0.1c-2.2,0.1-4.5,0.2-6.7,0.3c-1.4,0.1-2.8,0.1-4.3-0.1c-0.6-0.1-1.2,0-1.8,0
	c-1.9-0.1-3.8-0.1-5.8-0.4c-1.7-0.2-3.5-0.5-5.2-0.8c-1.6-0.2-3.3-0.5-4.9-0.8c-0.3-0.1-0.6-0.1-0.9-0.1c-0.8,0-1.6-0.1-2.4-0.3
	c-2.8-0.5-5.6-1.2-8.4-1.9c-0.8-0.2-1.6-0.4-2.4-0.6c-2.9-0.7-5.8-1.8-8.6-2.8c-1.8-0.7-3.6-1.3-5.4-2c-2.8-1.1-5.7-2.2-8.5-3.4
	c-1.2-0.6-2.5-1.1-3.7-1.6c-0.6-0.3-1.2-0.5-1.9-0.8c-0.6-0.3-1.1-0.5-1.7-0.7c-1.5-0.6-3-1.2-4.4-1.8c-1.2-0.5-2.5-1-3.7-1.5
	c-3.1-1.3-6.3-2.6-9.3-4c-4.5-2.1-9.2-3.7-14.1-5c-1.8-0.5-3.5-1-5.3-1.4c-2.1-0.5-4.2-0.9-6.2-1.4c-0.4-0.1-0.8-0.2-1.2-0.3
	c-10.7-3.2-22.6-3.5-33.8-3.9c-13.5-0.5-26.8,1-40.2,1c-1.5,0.1-2.9,0.3-4.4,0.4c-3,0.3-6.1,0.7-9.1,1.2c-3,0.5-6,1-8.9,1.5
	c-1.9,0.3-3.8,0.7-5.7,1.1c-0.9,0.2-1.9,0.3-2.8,0.4c-3,0.6-5.9,1.3-8.8,2.2c-1.7,0.5-3.5,1-5.3,1.4c-0.4,0.1-0.9,0.2-1.3,0.3
	c-0.2,0.1-0.5,0.1-0.7,0.1c-0.1,0-0.2,0-0.2-0.1c-0.1-0.1,0-0.2,0.1-0.3c0.2-0.1,0.3-0.3,0.5-0.3c1.8-0.7,3.5-1.8,5.3-2.5
	c1.7-0.7,3.4-1.4,5.2-2c3.9-1.4,7.8-2.6,11.9-3.6c3-0.7,5.9-1.5,8.9-2.2c3.6-0.9,7.2-1.7,10.8-2.3c2.4-0.4,4.8-0.8,7.2-1.2
	c10.4-1.7,21-2.3,31.5-2.2c6.2,0.1,12.5,0.1,18.7,0.7c1.9,0.2,3.7,0.5,5.5,0.8c5.6,1,11,2.5,16.5,3.9c2.4,0.6,4.7,1.4,7.1,2.3
	c2,0.7,4.1,1.4,6.2,2c0.1,0,0.3,0,0.4,0c0,0,0.1,0,0.1-0.1c0-0.1,0-0.1,0-0.2c-0.1-0.1-0.3-0.2-0.4-0.3c-1.9-1-3.7-2.2-5.6-3.3
	c-2.1-1.2-4.1-2.5-6.2-3.7c-0.4-0.2-0.7-0.5-1.1-0.7c-1.8-1.2-3.5-2.3-5.3-3.5c-1.2-0.8-2.4-1.5-3.6-2.1c-0.6-0.3-1.3-0.7-1.9-1
	c-2.9-1.8-5.8-3.4-8.9-4.9c-1.5-0.8-3.1-1.6-4.6-2.3c-1.5-0.7-3-1.4-4.6-2c-2.4-0.9-4.7-1.9-6.9-3.2c-0.7-0.4-1.5-0.8-2.3-1.1
	c-1.7-0.7-3.4-1.6-5.1-2.2c-1.3-0.5-2.6-1.1-3.9-1.5c-3.8-1.4-7.6-2.5-11.5-3.5c-1.4-0.3-2.7-0.8-4.1-1.2c-6-1.8-12-2.8-18-3.1h-0.2
	c-16.2-0.9-32.3,2.9-48.1,7.9c-2.5,0.8-4.9,1.9-7.2,3c-0.6,0.3-1.2,0.7-1.7,1.1c-0.3,0.2-0.6,0.4-1,0.5c-0.1,0-0.2,0-0.3-0.1
	c-0.1-0.1-0.1-0.2,0-0.3c0.1-0.2,0.3-0.4,0.4-0.6c0.5-0.5,1-0.9,1.6-1.3c1.1-0.7,2.2-1.3,3.3-2c1.9-1.3,3.9-2.4,6-3.5
	c0.1-0.1,0.3-0.2,0.4-0.3c3.7-2.3,7.6-3.8,11.7-5.1c1.6-0.5,3.2-1.1,4.8-1.6c2-0.6,4-1,6-1.4c0.8-0.2,1.5-0.3,2.3-0.5
	c1.7-0.4,3.5-0.7,5.2-0.9c1.3-0.2,2.5-0.4,3.8-0.4c0.3,0,0.7,0,1,0c1.3,0,2.5-0.1,3.8-0.3c0.5-0.1,1-0.1,1.5-0.1
	c2.8-0.1,5.6,0,8.3,0.2c0.5,0.1,0.9,0.1,1.4,0.2l0.1,0c1.3,0.1,2.5,0.3,3.7,0.5c1.3,0.2,2.6,0.3,3.9,0.5c3.5,0.6,7,1.1,10.4,1.9
	c2.5,0.6,5,1.4,7.4,2.2c1.2,0.4,2.4,0.8,3.7,1.1c1.2,0.3,2.3,0.8,3.4,1.3c2,0.8,4,1.5,6.1,2.3c0.6,0.2,1.3,0.5,1.9,0.8
	c1.9,1,3.9,1.8,5.9,2.6c0.1,0,0.1,0.1,0.2,0.1c2.1,1.1,4.4,1.9,6.6,2.9c1.7,0.7,3.2,1.6,4.8,2.5c1.2,0.7,2.4,1.4,3.6,2.1
	c3.2,1.6,6.2,3.5,9.2,5.4c1.4,0.9,2.7,2,4,2.9c1.5,1,2.9,2,4.4,2.9c1.7,1.1,3.5,2.1,5.2,3.2c2.3,1.5,4.6,2.8,6.9,4.2
	c1.2,0.7,2.3,1.5,3.5,2.1c2.2,1.3,4.4,2.6,6.6,3.8c1.2,0.6,2.4,1.3,3.5,2c2.1,1.3,4.2,2.4,6.4,3.6c1.8,0.9,3.6,1.8,5.4,2.7
	c2.8,1.4,5.8,2.6,8.7,3.9c1.4,0.6,2.8,1.1,4.1,1.7c3.3,1.5,6.6,2.7,10,4c1.9,0.7,3.7,1.4,5.6,2.1c4.3,1.6,8.6,3,13.1,4
	c1.9,0.4,3.8,0.9,5.8,1.3c2.2,0.5,4.4,0.9,6.7,1.3c2.3,0.3,4.5,0.7,6.7,1c1.4,0.2,2.8,0.2,4.2,0.2c3.6,0.1,7.3-0.2,10.9-0.4
	c1.2-0.1,2.3-0.3,3.5-0.5c1.8-0.2,3.5-0.6,5.3-0.7c0.8-0.1,1.6-0.2,2.4-0.4c1.1-0.3,2.3-0.6,3.4-0.9c0.3-0.1,0.5-0.1,0.8-0.3
	c1.4-0.7,2.9-1.3,4.4-1.9c0.3-0.1,0.5-0.3,0.8-0.4c0.2-0.1,0.3-0.2,0.5-0.3c1.5-0.6,2.8-1.7,4.3-2.5c0.9-0.5,1.7-1.3,2.5-2
	c1.5-1.2,3-2.5,4.3-4c0.6-0.7,1.3-1.2,2-1.9c0.2-0.2,0.4-0.3,0.5-0.7c-0.5,0.1-1,0.3-1.4,0.5c-0.9,0.4-1.9,0.9-2.7,1.3
	c-1.8,0.9-3.7,1.6-5.5,2.3c-2.9,1.1-5.8,1.8-8.8,2.6c-1.1,0.3-2.2,0.6-3.4,0.8c-1.6,0.3-3.3,0.5-4.9,0.7c-23.4,3-46.5-2.1-68.1-11
	c-3.3-1.3-6.5-2.8-9.7-4.3c-2.1-1-4.3-2.1-6.4-3c-2-0.9-3.9-1.9-5.8-3c-0.6-0.4-1.2-0.8-1.9-1.2c-1-0.6-2-1.1-3-1.7
	c-2.6-1.5-5.2-3.1-7.6-5c-2.1-1.5-4.2-3-6.2-4.6c-0.6-0.5-1.2-0.9-1.9-1.4c-0.3-0.2-0.5-0.4-0.7-0.7c0.2-0.1,0.4,0,0.5,0.1
	c0.9,0.5,1.8,1,2.7,1.5c1.6,0.9,3.1,1.9,4.7,2.7c1.4,0.8,2.8,1.5,4.3,2.2c1.8,0.9,3.5,2,5.3,3c0.3,0.1,0.5,0.3,0.8,0.5
	c2,1,4,2,6,2.9c3.6,1.6,7.1,3.4,10.7,4.9c1.3,0.5,2.6,0.9,3.9,1.5c3.1,1.4,6.4,2.5,9.6,3.6c2.7,0.9,5.5,1.9,8.3,2.8
	c15.4,5.2,31.3,6.3,47.4,5.2c1.8-0.1,3.6-0.2,5.4-0.4c1.4-0.1,2.8-0.2,4.2-0.8c0.3-0.1,0.7-0.2,1-0.2c1.5-0.4,3.1-0.7,4.6-1.2
	c3.6-1,7-2.2,10.4-3.6c0.1-0.1,0.3-0.1,0.4-0.1c1.1-0.3,2-0.8,2.9-1.4c1.3-0.9,2.8-1.5,4.2-2.3c0.3-0.2,0.6-0.3,0.9-0.5
	c0.5-0.1,0.9-0.4,1.3-0.7c1.3-0.7,2.6-1.6,3.8-2.5c1.5-1,2.9-2.2,4.2-3.5c1-0.9,1.8-2,2.7-3c1-1.1,1.9-2.3,2.9-3.4
	c0.5-0.6,0.9-1.2,1.2-1.9c0.3-0.2,0.5-0.5,0.6-0.8c0.3-0.7,0.8-1.3,1.3-1.8c0.4-0.4,0.6-0.9,1-1.3c0.2-0.3,0.4-0.6,0.7-0.9
	c0.2,0.1,0,0.3,0,0.4c-0.3,1-0.6,2.1-1,3.1c-0.2,0.4-0.2,0.9-0.4,1.3c-0.5,1.3-1,2.6-1.6,3.8c-0.9,1.8-1.8,3.6-2.8,5.4
	c-0.8,1.5-1.5,3-2.5,4.4c-0.1,0.1-0.2,0.2-0.2,0.3C314.6,353.6,312.8,356.4,310.9,359.2 M22.1,337.2c1.2-0.6,2.5-1.1,3.7-1.7
	c4.5-1.9,9.1-3.6,13.7-5.1c3.6-1.2,7.4-2.1,11.1-2.7c1.5-0.3,3.1-0.5,4.6-0.7c0.9-0.1,1.9-0.3,2.8-0.4c1.3-0.2,2.6-0.3,3.8-0.5
	c3.4-0.5,6.8-0.9,10.2-1c4.8-0.2,9.7-0.1,14.6-0.2c2.2,0,4.4,0.1,6.6,0.2c2.1,0.1,4.3,0.2,6.4,0.3c0.4,0,0.9,0,1.3,0.1
	c2.8,0.2,5.6,0.6,8.5,1.1c0.2,0,0.4,0,0.6,0c0.1,0,0.1-0.1,0.1-0.1c0,0,0-0.1,0-0.1c-0.1-0.1-0.2-0.1-0.4-0.2
	c-3.6-1.4-7.2-2.6-10.9-3.6c-3.5-0.9-7-1.5-10.6-1.9c-1-0.1-2-0.1-2.9-0.2c-2-0.2-4.1-0.4-6.1-0.3c-1.2,0-2.4,0-3.7,0
	c-1.5,0-2.9,0-4.4,0.1c-3,0.2-6,0.4-9,0.7c-1.5,0.1-2.9,0.4-4.3,0.7c-3.5,0.8-7,1.7-10.5,2.8c-1.7,0.5-3.5,1-5.2,1.7
	c-2,0.9-4.1,1.7-6.1,2.5c-3.4,1.3-6.7,3-9.9,4.8c-0.9,0.5-1.8,1.1-2.7,1.7c-0.9,0.6-1.6,1.4-2.5,1.9c0,0-0.1,0-0.1,0.1
	c0,0.1-0.1,0.2-0.1,0.3c0,0.1,0.1,0.1,0.2,0.2C21.4,337.5,21.7,337.4,22.1,337.2 M326,318.9c-0.7,1-1.3,2-2.1,2.9
	c-0.7,0.9-1.3,1.9-2.1,2.9c-0.8,1-1.5,2-2.4,2.9c-1.1,1.1-2.2,2.3-3.3,3.4c-0.9,0.8-1.8,1.6-2.7,2.3c-1.3,1-2.6,1.9-3.9,2.9
	c-1,0.8-2.1,1.5-3.2,2.1c-0.5,0.3-1,0.5-1.6,0.7c-3.2,1.5-6.5,3-9.9,4.2c-3.2,1.1-6.4,2.2-9.7,2.9c-3,0.7-5.9,1.5-8.9,2
	c-2.3,0.4-4.7,0.8-7,1c-1.4,0.1-2.8,0.3-4.2,0.4c-1.9,0.2-3.7,0.3-5.6,0.3c-2.4,0-4.8,0-7.2-0.1c-3.3-0.2-6.6-0.4-9.9-0.8
	c-3.4-0.4-6.7-0.9-10.1-1.5c-4.7-0.9-9.3-1.9-14-3.2c-6.2-1.7-12.4-3.6-18.4-6.2c-2.3-1-4.5-2-6.8-3c-0.5-0.2-1.1-0.4-1.6-0.6
	c-0.1,0-0.3-0.1-0.4,0c0.2,0.3,0.5,0.4,0.7,0.5c1,0.6,2.1,1.2,3,1.9c0.6,0.4,1.2,0.7,1.9,1c0.9,0.4,1.9,0.9,2.7,1.4
	c1.6,1,3.2,1.8,4.9,2.7c1.3,0.7,2.6,1.2,3.9,1.7c3,1.3,6.1,2.5,9.3,3.1c0.3,0.1,0.6,0.2,0.9,0.3c1.7,0.5,3.4,1,5.2,1.5
	c2.7,0.7,5.4,1.5,8.2,2.1c2,0.4,4.1,0.7,6.1,1.1c0.8,0.1,1.7,0.3,2.5,0.4c1.3,0.1,2.6,0.3,3.8,0.6c0.9,0.2,1.9,0.3,2.8,0.4
	c1.9,0.2,3.9,0.3,5.8,0.5c3.7,0.3,7.3,0.1,11-0.2c1.7-0.1,3.3-0.4,5-0.5c2.3-0.1,4.6-0.5,6.8-0.9c3-0.6,6-1.2,8.9-2
	c3-0.8,6.1-1.5,9.1-2.6c2.4-0.9,4.8-1.7,7.1-2.9c0.4-0.2,0.7-0.3,1.1-0.5c2.5-1.1,5-2.3,7.2-3.9c0.9-0.6,1.9-1.3,2.9-1.8
	c0.7-0.3,1.3-0.8,1.8-1.3c0.5-0.4,1.1-0.9,1.6-1.2c0.5-0.3,0.9-0.7,1.4-1.1c1-0.9,2-2,2.8-3.1c0.5-0.7,1.1-1.5,1.7-2.2
	c1.3-1.7,2.5-3.5,3.5-5.4c0.1-0.1,0.1-0.3,0.1-0.4c0.1-0.6,0.4-1.2,0.6-1.7c0.5-1.1,0.8-2.2,1.1-3.4c0-0.2,0.1-0.4,0-0.6
	C326.3,318.3,326.1,318.6,326,318.9 M77.2,259.5c0-0.9,0-1.8,0.1-2.6c0.1-0.9,0.1-1.7,0.1-2.5c0-1.8,0.1-3.6,0.3-5.4
	c0.1-1.6,0.3-3.2,0.5-4.9c0.2-2.4,0.4-4.7,0.7-7.1c0.4-4,1.1-7.9,1.7-11.9c0.3-1.8,0.6-3.5,0.9-5.3c0.6-4,1.4-7.9,2.4-11.7
	c2.9-11,6.7-21.7,11.9-31.9c0.1-0.1,0.1-0.2,0.1-0.3c0-0.1,0-0.2-0.1-0.3c-0.1-0.1-0.3-0.1-0.4,0c-0.2,0.2-0.3,0.4-0.5,0.5
	c-2.9,3.8-5.3,8-7.6,12.2c-2.4,4.4-4.3,9.1-5.9,13.9c-1.8,5.3-3.2,10.8-4.1,16.3c-0.4,2.2-0.8,4.4-1.2,6.6c-0.3,1.5-0.5,3.1-0.6,4.6
	c-0.2,2.1-0.3,4.2-0.5,6.3c-0.1,2-0.3,3.9-0.4,5.9c-0.2,2.7-0.3,5.4-0.5,8c-0.2,1.6-0.3,3.2-0.5,4.9c-0.1,1.8-0.2,3.6-0.1,5.4
	c0.1,4,0.1,8,0.3,11.9c0.1,1.5,0.3,3,0.4,4.5c0.2,2.5,0.6,5,1,7.6c0.1,0.9,0.4,1.9,0.5,2.8c0.2,2.5,0.7,5,1.2,7.5
	c0.1,0.8,0.3,1.5,0.9,2.2c0-0.3,0-0.5-0.1-0.8c-0.1-1-0.1-2-0.2-2.9v-0.1l0-0.5c0-0.3,0-0.6,0-0.9c0-0.6-0.1-1.1-0.1-1.7
	c-0.1-0.6-0.2-1.1-0.2-1.7c-0.1-1.7-0.2-3.4-0.2-5.2c0-2.4,0-4.8-0.1-7.2c0-3.6,0-7.3,0.2-10.9C77.1,262.9,77.2,261.2,77.2,259.5
	 M191.3,249.9l0.2-0.9c0.1-0.2,0.1-0.4,0.1-0.7c0.2-0.9,0.5-1.9,0.7-2.9c0.1-0.3,0.2-0.6,0.2-0.9c0-0.1,0-0.2-0.2-0.2
	c-0.1,0-0.1,0-0.2,0.1c-0.1,0.2-0.3,0.4-0.4,0.6c-0.8,1.6-1.4,3.3-1.9,5c-1,3.8-1.3,7.8-1.4,11.6c0,1.7-0.1,3.3,0.1,4.9
	c0.2,2.5,0.6,4.9,1.2,7.3c0.4,1.8,0.9,3.6,1.7,5.3c0.5,1,1,2,1.5,3c0.1,0.1,0.2,0.3,0.3,0.4c0.1,0.1,0.2,0.1,0.3,0
	c0.1-0.1,0.1-0.2,0.1-0.3c-0.1-0.4-0.2-0.7-0.4-1.1c-0.8-2.2-1.4-4.5-2-6.8c-0.8-3.1-1.3-6.2-1.3-9.4c0-3.2,0-6.4,0.4-9.6
	C190.6,253.7,190.9,251.8,191.3,249.9 M117.5,427.5c-0.7-0.1-1.4-0.1-2.1-0.2c-0.2,0-0.5,0-0.7,0c-0.1,0-0.1,0-0.1,0.1
	c0,0.1,0,0.1,0.1,0.2c0.4,0.4,1,0.6,1,0.6c0.9,0.4,1.8,0.7,2.6,1.1c0,0,0.8,0.3,1.8,0.7l0,0c1.5,0.5,3,1,4.4,1.5l0.8,0.2
	c0.3,0.1,0.6,0.2,0.9,0.3c2.1,0.6,4.1,1.1,6.2,1.6l0.8,0.2c2.1,0.5,4.1,1,6.2,1.4l3.1,0.6l5.2,0.9c4.2,0.6,9.3,1.2,15.8,1.8
	c13.1,1.1,25.6-0.7,25.6-0.7c15-2.3,16.3-3,16.3-3c7.5-1.3-2.3-0.8-2.3-0.8c-9.6,0.8-23,0.2-23,0.2c-14.3-0.5-30.9-2.8-30.9-2.8
	c-1.3-0.1-2.5-0.3-3.8-0.4l-2.7-0.3c-0.5-0.1-1-0.1-1.5-0.2l-0.8-0.1c-1.3-0.2-2.5-0.3-3.8-0.5h0h0c-2.8-0.3-5.5-0.7-8.3-1l-7.9-0.9
	c-0.7-0.1-1.3-0.1-2-0.2h-0.1C118.3,427.6,117.9,427.5,117.5,427.5 M283.1,212.2c-0.9-0.5-1.9-0.9-2.9-1.2c-0.4-0.1-0.7-0.1-1.1-0.1
	c-0.7-0.1-1.1-0.5-1.3-1.1c-0.1-0.4-0.2-0.7-0.4-1.1c-0.6-1.6-1.4-3.1-2.6-4.3c-0.5-0.5-1-0.9-1.6-1.3c-0.1,0-0.1,0-0.2-0.1
	c0,0-0.1,0.1-0.1,0.1c0,0.3,0.1,0.5,0.2,0.7c0.9,2.2,1.5,4.4,1.9,6.7c0.1,0.7,0.3,1.3,0.4,2c0.1,0.5,0.3,0.7,0.9,0.7
	c0.4,0,0.8,0,1.2,0c2.1-0.1,4.1,0,6.1,0.8c0.1,0.1,0.3,0.1,0.4,0.1c0.2,0,0.4-0.2,0.3-0.4C284.1,213.1,283.7,212.5,283.1,212.2
	 M313.7,211.9c-0.6-0.9-1.4-1.7-2.2-2.4c-4.5-3.4-9.3-6.2-14.5-8.2c-0.4-0.1-0.8-0.3-1.1-0.5c-0.7-0.3-1.2-0.9-1.5-1.6
	c-0.1-0.3-0.2-0.7-0.3-1c-0.3-1.4-0.5-2.9-0.8-4.3c-1.4-6.5-3.6-12.8-6.5-18.8c-0.2-0.4-0.4-0.7-0.6-1.1c-0.2-0.2-0.3-0.4-0.5-0.4
	c-0.1,0-0.2,0-0.2,0.1c0,0.1,0,0.3,0,0.4c0.7,2.9,1.1,5.9,1.5,8.8c0.3,2,0.6,3.9,1,5.9c0.3,1.7,0.7,3.4,0.9,5.1
	c0.3,2.4,0.4,4.9,0.6,7.3c0.1,0.9,0.1,1.8,0.2,2.7c0.1,0.8,0.3,1.1,1.1,1.3c0.7,0.2,1.4,0.3,2.1,0.5c1.3,0.3,2.5,0.5,3.8,0.7
	c4.1,0.9,8,2.3,11.9,3.6c1.8,0.6,3.5,1.5,5.2,2.2c0,0,0.1,0.1,0.2-0.1C314,212.3,313.7,211.9,313.7,211.9 M296.3,319.6
	c0.1,0,0.2,0.1,0.2,0.1c0.1,0.1,0,0.2-0.1,0.3c-0.3,0.2-0.5,0.3-0.8,0.5c-2.6,1.4-5.3,2.5-8,3.4c-4,1.3-8.1,2.3-12.3,3
	c-4.6,0.7-9.2,0.9-13.9,0.9h-0.6v0c-1.9,0-3.8,0-5.7-0.1c-4.9-0.1-9.6-0.9-14.3-2.5c-1.9-0.7-3.9-1.3-5.8-2.1
	c-0.3-0.1-0.6-0.2-0.9-0.3c-2.3-0.7-4.4-1.7-6.5-2.8c-1.7-0.9-3.4-1.7-5.1-2.6c-1.9-1-3.6-2.1-5.2-3.5c-0.7-0.5-1.3-1.1-2-1.6
	c-0.2-0.1-0.4-0.3-0.3-0.6c0-0.1,0.2-0.3,0.3-0.2c1.1,0.8,2.3,1.4,3.5,2.1c1.9,1.2,3.9,2.3,6,3.2c1.7,0.8,3.4,1.6,5,2.4
	c2.6,1.2,5.4,2.1,8.1,3c3,1,6,1.9,9.1,2.5c1.7,0.3,3.3,0.6,5,0.7c2.1,0.1,4.2,0.4,6.4,0.5c2.5,0.2,5,0.1,7.5,0
	c1.7-0.1,3.3-0.2,5-0.3c3.2-0.2,6.3-0.6,9.4-1.3c1.1-0.2,2.3-0.4,3.4-0.6c1.9-0.3,3.7-0.8,5.5-1.4c2.1-0.7,4.3-1.3,6.3-2.3
	C295.8,319.7,296.1,319.6,296.3,319.6 M327,482.3c1.9,0,3.8,0.5,5.6,1.5c1.8,1,3.3,2.4,4.3,4.2c1,1.8,1.5,3.7,1.5,5.7
	c0,2-0.5,3.9-1.5,5.7c-1,1.8-2.4,3.2-4.2,4.2c-1.8,1-3.7,1.5-5.7,1.5c-2,0-3.9-0.5-5.7-1.5c-1.8-1-3.2-2.4-4.2-4.2
	c-1-1.8-1.5-3.7-1.5-5.7c0-2,0.5-3.9,1.5-5.7c1-1.8,2.4-3.2,4.3-4.2C323.2,482.8,325,482.3,327,482.3z M327,484.1
	c-1.6,0-3.2,0.4-4.7,1.2s-2.7,2-3.6,3.5c-0.9,1.5-1.3,3.1-1.3,4.8c0,1.6,0.4,3.2,1.3,4.7c0.8,1.5,2,2.7,3.5,3.5
	c1.5,0.8,3.1,1.3,4.7,1.3c1.6,0,3.2-0.4,4.7-1.3c1.5-0.8,2.7-2,3.5-3.5c0.8-1.5,1.2-3.1,1.2-4.7c0-1.7-0.4-3.2-1.3-4.8
	c-0.8-1.5-2-2.7-3.6-3.5S328.6,484.1,327,484.1z M322,500v-12.3h4.2c1.4,0,2.5,0.1,3.1,0.3c0.7,0.2,1.2,0.6,1.5,1.2
	c0.4,0.6,0.6,1.2,0.6,1.8c0,0.9-0.3,1.7-1,2.3c-0.6,0.7-1.5,1-2.5,1.1c0.4,0.2,0.8,0.4,1,0.7c0.5,0.5,1.1,1.3,1.8,2.4l1.5,2.4h-2.4
	l-1.1-1.9c-0.9-1.5-1.5-2.5-2.1-2.9c-0.4-0.3-0.9-0.4-1.6-0.4h-1.2v5.2H322z M323.9,493.1h2.4c1.2,0,1.9-0.2,2.4-0.5
	s0.6-0.8,0.6-1.4c0-0.4-0.1-0.7-0.3-1c-0.2-0.3-0.5-0.5-0.8-0.6c-0.4-0.1-1-0.2-2-0.2h-2.2V493.1z M232.3,477.1
	c2.3-0.7,3.5-2.6,2.8-4.6c-0.7-2.4-3.3-3.6-7.6-3.9c-5.5-0.4-12.8-2.3-14.8-9.1c-1.7-5.6,0.9-12.6,9.6-15.3
	c5.9-1.8,11.3-0.2,13.4,0.5c0.8,0.2,1,1.2,0.9,1.7l-1.5,5.2c-0.2,0.7-1.1,1.6-1.7,1.3c-0.6-0.1-5.7-2-9.1-0.9c-2,0.6-3.1,2.5-2.7,4
	c0.6,2.1,2.8,3.2,7.9,3.6c5,0.4,13.1,1.7,15.4,9.4c1.8,5.8-1.4,13.3-9.7,15.8c-7.4,2.3-12.4,0.5-14.1-0.4c-0.7-0.4-1-0.6-0.8-1.5
	l1.2-5.5c0.2-0.9,1.3-1.1,1.8-0.9C223.6,476.5,228.6,478.2,232.3,477.1 M157,452.4c11.4,0.5,20.4,10.2,19.9,21.5
	c-0.5,11.5-10.2,20.4-21.7,19.9l-14.4-0.6c-0.6,0-1.1-0.6-1-1.2l1.7-39.2c0-0.6,0.5-1.1,1.1-1.1L157,452.4 M155,485.1
	c6.7,0.3,11.8-4.8,12.1-11.5c0.3-6.7-4.3-12.2-11-12.4l-5.7-0.3l-1,24L155,485.1 M118.9,445.5c6.8,2.1,10.6,9.4,8.5,16.1
	c-1.6,5.2-6.4,8.3-11.9,8.7l3.2,16.8c0.2,0.9-0.5,1.6-1.5,1.3l-7.5-2.4c-0.5-0.1-0.7-0.5-0.7-0.8l-2.8-17.3l-3.9-1.2l-4.5,14.4
	c-0.2,0.6-0.9,0.9-1.4,0.7l-6.7-2.1c-0.6-0.2-0.9-0.9-0.7-1.4l11.8-37.4c0.2-0.6,0.8-0.9,1.4-0.7L118.9,445.5 M118.6,459.1
	c0.7-2.4-0.6-4.9-2.9-5.6l-8.4-2.6l-2.8,8.8l8.4,2.6C115.2,463,117.8,461.4,118.6,459.1 M78.9,427.8c0.4,0.2,0.6,0.7,0.5,1.1
	l-4,43.8c-0.1,0.8-0.9,1.3-1.7,0.8l-5.7-3.3c-0.9-0.5-1.2-1.1-1.1-2.3l0.5-5.1l-13.9-8.1l-4.2,3c-0.6,0.5-1.5,0.7-2.6,0.1l-5.6-3.3
	c-0.8-0.4-0.8-1.3-0.1-1.8l36.1-25.1c0.3-0.2,0.8-0.3,1.2-0.1L78.9,427.8 M69.5,443.2L69.5,443.2l-8.8,6.2l6.6,3.8l0.1,0.1l1.1,0.6
	l0.1-0.8L69.5,443.2z M390.4,282.6c0,0.7-0.5,1.1-1.1,1.2l-39.2,1c-0.6,0-1.1-0.5-1.2-1.1l-0.4-17.7c-0.2-7.1,5.4-13.1,12.5-13.2
	c5.4-0.1,9.9,3.4,12.1,8.5l14.8-8.5c0.8-0.4,1.7,0,1.7,1l0.2,7.9c0,0.5-0.3,0.8-0.5,1l-15.5,8.3l0.1,4.1l15.1-0.4
	c0.6,0,1.1,0.5,1.2,1.1L390.4,282.6z M366.5,275l-0.2-8.8c-0.1-2.4-2.4-4.4-4.9-4.4c-2.5,0.1-4.4,2.2-4.4,4.6l0.2,8.8L366.5,275z
	 M326.8,362l5.8,2.8c0.5,0.2,1.3,0,1.5-0.5l5.5-11.7l0.1,0.1l20.8,27.3l1,0.5c0.5,0.3,1.2,0,1.5-0.5l11-23.3c0.3-0.6,0-1.3-0.5-1.5
	l-5.8-2.8c-0.5-0.3-1.2-0.1-1.5,0.5l-5.5,11.7l-0.1-0.1L340.3,339c0,0-1.2-1.6-1.8-1.8c-0.6-0.2-1.2,0-1.5,0.5l-10.8,22.8
	C326,361,326.3,361.7,326.8,362 M342.7,324.5l38.3,8.6c0.6,0.1,1.2-0.2,1.3-0.9l5.4-23.9c0.1-0.6-0.3-1.2-0.9-1.3l-6.3-1.4
	c-0.6-0.1-1.2,0.2-1.3,0.9l-3.6,16l-7.8-1.8l3-13.2c0.1-0.6-0.2-1.2-0.9-1.4l-6.3-1.4c-0.6-0.1-1.2,0.3-1.3,0.9l-3,13.2l-7.2-1.6
	l3.6-16c0.1-0.6-0.3-1.2-0.9-1.3l-6.3-1.4c-0.6-0.1-1.2,0.2-1.3,0.9l-5.4,23.9C341.7,323.8,342.1,324.4,342.7,324.5 M310.8,442.9
	l16.5-15c0.5-0.4,0.5-1.2,0.1-1.6l-4.3-4.8c-0.4-0.5-1.1-0.5-1.6-0.1l-10.5,9.5l-21.2-23.5c-0.4-0.4-1.2-0.5-1.6-0.1l-5.2,4.7
	c-0.5,0.4-0.5,1.1-0.1,1.6l26.3,29.1C309.6,443.2,310.3,443.3,310.8,442.9 M267.7,469.9c0.3,0.5,1,0.7,1.5,0.4l21.3-12.2
	c0.6-0.3,0.7-1,0.4-1.5l-3.2-5.6c-0.3-0.5-1-0.7-1.5-0.4l-14.2,8.2l-4-6.9l11.7-6.7c0.5-0.3,0.7-1,0.4-1.5l-3.2-5.6
	c-0.3-0.5-1-0.7-1.5-0.4l-11.7,6.7l-3.7-6.4l14.2-8.2c0.6-0.3,0.7-1,0.4-1.5l-3.2-5.6c-0.3-0.5-1-0.7-1.5-0.4l-21.3,12.2
	c-0.6,0.3-0.7,1-0.4,1.5L267.7,469.9z M343.1,409.4l4.3-5.7c0.4-0.5,0.3-1.2-0.2-1.6L321.9,383l5.1-6.8c0.4-0.5,0.3-1.2-0.2-1.6
	l-5.2-3.9c-0.5-0.4-1.2-0.3-1.6,0.2l-15.9,21c-0.4,0.5-0.3,1.2,0.2,1.6l5.2,3.9c0.5,0.4,1.2,0.3,1.6-0.2l5.1-6.8l25.2,19.1
	C342,409.9,342.7,409.8,343.1,409.4 M23.1,439.9l5,4.9c0.4,0.4,1.2,0.4,1.6,0l27.4-28.1c0.4-0.4,0.4-1.2,0-1.6l-5-4.9
	c-0.5-0.5-1.2-0.4-1.6,0L40,420.9l-12.1-11.8l10.4-10.7c0.4-0.4,0.5-1.1,0-1.6l-5-4.9c-0.2-0.2-0.6-0.3-0.9-0.3
	c-0.3,0-0.5,0.1-0.7,0.3L4.3,420c-0.4,0.4-0.4,1.2,0,1.6l5,4.9c0.5,0.5,1.2,0.4,1.6,0l10.9-11.2l12.1,11.8l-10.9,11.2
	C22.6,438.8,22.6,439.5,23.1,439.9 M391.5,196.4c8.2,24,12.6,49.6,12.6,76.4c0,130.1-105.3,235.6-235.2,235.6
	c-91.4,0-170.6-52.2-209.6-128.5l-15,6.4c41.5,81.9,126.5,138.2,224.5,138.2c138.9,0,251.6-112.8,251.6-252c0-28.9-5-56.9-13.9-82.7
	L391.5,196.4z M346.9,168.3L387,151c1.3-0.6,1.6-1.8,0.7-2.9l-7.2-8.9c-0.5-0.6-1.5-0.8-2.2-0.5l-31.3,14.4l-0.3-0.3l17.4-33.6
	c0.3-0.5,0.3-1.3-0.2-2l-1.1-1.4c-0.5-0.6-1.3-0.8-1.9-0.6l-36.5,9.9l-0.2-0.3l20.6-27.5c0.4-0.6,0.4-1.6-0.1-2.2l-7.2-8.9
	c-0.9-1.1-2.1-1.1-2.9,0.1l-39.7,56c-0.5,0.6-0.4,1.5,0,2.1l1.1,1.4c0.4,0.5,1.3,0.8,1.9,0.6l42.5-11.4l0.2,0.2l-19.9,39
	c-0.4,0.8-0.4,1.5,0,2.1l1.1,1.4c0.4,0.5,1.3,0.8,1.9,0.6c0.2,0,0.9-0.4,0.9-0.4L346.9,168.3 M183,93.2l36.5,5.9
	c1.1,0.2,2-0.6,2.1-1.5l1.7-10.6c0.2-1-0.5-2-1.5-2.1l-23.1-3.8l8.4-51.8c0.2-1-0.6-2-1.5-2.1L194,25.3c-1.1-0.2-2,0.6-2.1,1.5
	l-10.5,64.3C181.3,92,181.9,93,183,93.2 M150.5,95.1c8.7-1.2,16.6-5.4,22.4-12.7c0.6-0.8,0.5-2.1-0.3-2.7l-8.7-7
	c-0.7-0.6-1.9-0.4-2.5,0.3c-3.1,3.5-7.8,5.8-12.4,6.5c-11,1.5-20.4-6.3-21.9-17.1c-1.5-10.9,5.3-21.2,16.4-22.7
	c4.8-0.7,9.8,0.4,13.8,3.2c0.8,0.6,1.9,0.4,2.4-0.3l6.5-8.9c0.7-0.9,0.5-2.1-0.5-2.7c-7.5-5.1-15.1-7.2-24.8-5.8
	c-19.5,2.7-33,20.5-30.4,40C113.2,84.4,131,97.8,150.5,95.1 M294,58.5c0.6,0.3,0.9,1.1,0.9,1.8l-6.1,72.7c-0.1,1.4-1.5,2.1-2.7,1.4
	l-9.4-5.3c-1.7-1-2.1-2.5-1.9-3.8l0.8-8.6l-23.2-13.3l-7,5.1c-1,0.8-2.5,1.3-4.2,0.3l-9.4-5.4c-1.3-0.7-1.3-2.2-0.2-3.1l59.6-42.2
	c0.5-0.4,1.4-0.4,2-0.1L294,58.5 M278.7,84.3L278.7,84.3l-14.5,10.4l13,7.4L278.7,84.3z M-78.7,238.8c-0.2,1,0.4,2,1.4,2.3l63.1,16
	c0.9,0.2,2-0.4,2.3-1.4l2.9-11.3c0.3-1.1-0.4-2-1.4-2.3l-25.1-6.3l6.9-27.3l25.1,6.4c0.9,0.2,2-0.3,2.3-1.4l2.9-11.3
	c0.2-0.9-0.4-2-1.4-2.3l-63.1-16c-0.9-0.2-2,0.3-2.3,1.4l-0.8,3.2l-2.1,8.2c-0.3,1,0.4,2,1.3,2.3l24,6.1l-6.9,27.3l-24-6.1
	c-1-0.3-2,0.3-2.3,1.3L-78.7,238.8 M-48.5,156.3l56.4,32.5c0.9,0.5,2.1,0.2,2.5-0.7l5.9-10.2c0.5-0.9,0.2-2.1-0.7-2.6l-56.4-32.5
	c-0.9-0.5-2.1-0.2-2.6,0.7l-5.9,10.2C-49.7,154.6-49.4,155.9-48.5,156.3 M54.9,130.2c0.5,0.8,1.7,1.2,2.6,0.6L92,109.1
	c0.9-0.6,1.1-1.7,0.6-2.6l-5.7-9.1c-0.5-0.8-1.7-1.2-2.6-0.6l-23.1,14.5l-7.1-11.2l19-11.9c0.8-0.5,1.2-1.7,0.6-2.6L68,76.5
	c-0.5-0.8-1.7-1.1-2.6-0.6l-19,11.9L40,77.6L63,63.1c0.9-0.6,1.1-1.7,0.6-2.6l-5.7-9.1c-0.5-0.8-1.7-1.2-2.6-0.6L20.9,72.5
	c-0.9,0.6-1.1,1.7-0.6,2.6L54.9,130.2z M-22.1,132.5c0.7,0.7,1.9,0.7,2.6-0.1l9.4-10.5l39,35.2c0.7,0.7,2,0.6,2.7-0.1l7.9-8.8
	c0.7-0.7,0.6-2-0.1-2.6l-39-35.2l9.4-10.4c0.7-0.8,0.6-2-0.1-2.7l-8-7.2c-0.7-0.7-1.9-0.7-2.6,0.1l-29.2,32.4
	c-0.7,0.8-0.6,2,0.1,2.6L-22.1,132.5z M-6.8,318.4c0.7-0.3,1.1-1,1.1-1.8l-0.2-1.7c-0.1-0.7-0.7-1.3-1.3-1.5l-42.1-12.7l0-0.3
	l37.2-22.6l0.2-0.1c0.8-0.4,1.2-1,1.1-1.8l-0.2-1.7c-0.1-0.7-0.7-1.3-1.3-1.5c-0.2-0.1-1-0.2-1-0.2l-67.3-10
	c-1.4-0.2-2.3,0.7-2.1,2.1l1.5,11.4c0.1,0.8,0.9,1.5,1.6,1.6l34.1,4.2l0,0.4l-32.4,19.5c-0.6,0.3-1,0.9-0.9,1.8l0.2,1.8
	c0.1,0.8,0.7,1.3,1.3,1.5l36.3,10.8l0,0.4l-32,12.6c-0.7,0.3-1.2,1.1-1.1,1.9l1.5,11.4c0.2,1.4,1.2,2,2.6,1.5L-6.8,318.4z"/>
</svg>
