<?xml version="1.0" encoding="UTF-8"?>
<svg id="Layer_1" xmlns="http://www.w3.org/2000/svg" version="1.1" viewBox="0 0 202.3 141.6">
  <!-- Generator: Adobe Illustrator 29.2.1, SVG Export Plug-In . SVG Version: 2.1.0 Build 116)  -->
  <defs>
    <style>
      .st0 {
        fill: red;
      }
    </style>
  </defs>
  <path class="st0" d="M101.1,0S37.9,0,22,4.1C13.5,6.5,6.5,13.5,4.1,22.1,0,38,0,70.8,0,70.8c0,0,0,33,4.1,48.6,2.4,8.6,9.2,15.5,17.9,17.9,16,4.2,79.1,4.2,79.1,4.2,0,0,63.3,0,79.2-4.1,8.6-2.4,15.5-9.1,17.7-17.9,4.2-15.7,4.2-48.6,4.2-48.6,0,0,.1-33-4.2-48.9-2.2-8.6-9.1-15.5-17.7-17.7C164.4,0,101.1,0,101.1,0h0ZM81,40.5l52.6,30.4-52.6,30.2v-60.6Z"/>
</svg>