<svg width="100" height="100" viewBox="0 0 100 100" fill="none" xmlns="http://www.w3.org/2000/svg">
<path d="M76.1611 13C85.5157 13.0152 93.9998 18.4292 97.8655 26.8504C101.731 35.2715 100.266 45.1486 94.1182 52.1185L64.4137 81.5167C60.6375 85.3602 55.4469 87.5268 50.0269 87.5218C44.5811 87.5209 39.3653 85.3508 35.5576 81.5019L33.4965 79.4866L43.5657 69.5325L45.7094 71.6369C46.8161 72.8104 48.3628 73.4816 49.9856 73.4926C51.6167 73.51 53.1847 72.8709 54.3294 71.7223L82.8176 43.5599C84.3851 41.8347 85.2423 39.5917 85.2204 37.2728C85.2434 34.7404 84.2424 32.3038 82.4398 30.5044C80.6371 28.7049 78.1822 27.6917 75.6204 27.6899C73.2647 27.6612 70.9849 28.5136 69.238 30.0763L26.3744 72.4534L5.86058 52.0888C2.07555 47.7696 -0.00545168 42.245 1.07264e-05 36.5305C0.0360311 27.1536 5.68139 18.6864 14.3841 14.9565C23.0867 11.2265 33.1974 12.9408 40.1454 19.3243L43.0626 22.2044L32.9446 32.2067C32.9446 32.2067 31.3302 30.5551 30.7595 30.0577C29.019 28.5111 26.7549 27.6662 24.4147 27.6899C21.8562 27.675 19.3975 28.6696 17.5834 30.4532C15.7694 32.2367 14.7499 34.6619 14.7509 37.1911C14.7204 39.5278 15.5794 41.7904 17.1575 43.5302L26.3031 52.5713L58.2527 21.0241C62.7709 15.9196 69.2999 12.9942 76.1611 13Z" fill="#00AAFF"/>
</svg>
