<svg width="100" height="100" viewBox="0 0 100 100" fill="none" xmlns="http://www.w3.org/2000/svg">
<path d="M7.56014 81.575L11.9702 89.1925C12.8866 90.7961 14.2039 92.0562 15.7503 92.9725L31.5006 65.7102H0C0 67.4857 0.45819 69.2612 1.37457 70.8648L7.56014 81.575Z" fill="#0066DA"/>
<path d="M50 33.6369L34.2497 6.37457C32.7033 7.29095 31.386 8.55098 30.4697 10.1546L1.37457 60.5556C0.475044 62.1247 0.00119767 63.9016 0 65.7102H31.5006L50 33.6369Z" fill="#00AC47"/>
<path d="M84.2497 92.9725C85.796 92.0562 87.1133 90.7961 88.0297 89.1925L89.8625 86.0424L98.6254 70.8648C99.5418 69.2612 99.9999 67.4857 99.9999 65.7102H68.4971L75.2004 78.8832L84.2497 92.9725Z" fill="#EA4335"/>
<path d="M50 33.6369L65.7503 6.37457C64.2039 5.45819 62.4285 5 60.5957 5H39.4044C37.5716 5 35.7961 5.51546 34.2498 6.37457L50 33.6369Z" fill="#00832D"/>
<path d="M68.4994 65.7102H31.5005L15.7502 92.9725C17.2966 93.8889 19.0721 94.3471 20.9049 94.3471H79.0951C80.9278 94.3471 82.7033 93.8316 84.2497 92.9725L68.4994 65.7102Z" fill="#2684FC"/>
<path d="M84.0779 35.3551L69.5304 10.1546C68.614 8.55098 67.2967 7.29095 65.7503 6.37457L50 33.6369L68.4994 65.7102H99.9427C99.9427 63.9347 99.4846 62.1592 98.5682 60.5556L84.0779 35.3551Z" fill="#FFBA00"/>
</svg>
