<svg width="100" height="100" viewBox="0 0 100 100" fill="none" xmlns="http://www.w3.org/2000/svg">
<g clip-path="url(#clip0_3728_159)">
<mask id="mask0_3728_159" style="mask-type:luminance" maskUnits="userSpaceOnUse" x="0" y="0" width="100" height="100">
<path d="M100 0H0V100H100V0Z" fill="white"/>
</mask>
<g mask="url(#mask0_3728_159)">
<mask id="mask1_3728_159" style="mask-type:luminance" maskUnits="userSpaceOnUse" x="12" y="0" width="76" height="100">
<path d="M54.1667 4.16667C54.1667 1.86548 56.0322 0 58.3333 0H83.3333C85.6345 0 87.5 1.86548 87.5 4.16667V95.8333C87.5 98.1345 85.6345 100 83.3333 100H16.6667C14.3655 100 12.5 98.1345 12.5 95.8333V54.1667C12.5 51.8655 14.3655 50 16.6667 50H33.3334V29.1667C33.3334 26.8655 35.199 25 37.5001 25H54.1667V4.16667Z" fill="white"/>
</mask>
<g mask="url(#mask1_3728_159)">
<path d="M87.5001 0V100H54.1667V0H87.5001Z" fill="url(#paint0_linear_3728_159)"/>
<g filter="url(#filter0_f_3728_159)">
<path d="M66.6666 29.5832V100.417H33.3333V25.4165H62.4999C64.8011 25.4165 66.6666 27.282 66.6666 29.5832Z" fill="black" fill-opacity="0.2"/>
</g>
<g filter="url(#filter1_f_3728_159)">
<path d="M66.6666 31.2499V102.083H33.3333V27.0833H62.4999C64.8011 27.0833 66.6666 28.9488 66.6666 31.2499Z" fill="black" fill-opacity="0.18"/>
</g>
<path d="M66.6666 29.1667V100H33.3333V25H62.4999C64.8011 25 66.6666 26.8655 66.6666 29.1667Z" fill="url(#paint1_linear_3728_159)"/>
<path d="M12.5 50V100H45.8333V54.1667C45.8333 51.8655 43.9678 50 41.6667 50H12.5Z" fill="url(#paint2_linear_3728_159)"/>
</g>
</g>
</g>
<defs>
<filter id="filter0_f_3728_159" x="32.5333" y="24.6165" width="34.9333" height="76.6" filterUnits="userSpaceOnUse" color-interpolation-filters="sRGB">
<feFlood flood-opacity="0" result="BackgroundImageFix"/>
<feBlend mode="normal" in="SourceGraphic" in2="BackgroundImageFix" result="shape"/>
<feGaussianBlur stdDeviation="0.4" result="effect1_foregroundBlur_3728_159"/>
</filter>
<filter id="filter1_f_3728_159" x="25.3333" y="19.0833" width="49.3333" height="91" filterUnits="userSpaceOnUse" color-interpolation-filters="sRGB">
<feFlood flood-opacity="0" result="BackgroundImageFix"/>
<feBlend mode="normal" in="SourceGraphic" in2="BackgroundImageFix" result="shape"/>
<feGaussianBlur stdDeviation="4" result="effect1_foregroundBlur_3728_159"/>
</filter>
<linearGradient id="paint0_linear_3728_159" x1="48.6112" y1="-5.46774e-07" x2="92.5681" y2="93.1735" gradientUnits="userSpaceOnUse">
<stop stop-color="#E6AD10"/>
<stop offset="1" stop-color="#C87E0E"/>
</linearGradient>
<linearGradient id="paint1_linear_3728_159" x1="33.3305" y1="25" x2="70.2977" y2="96.694" gradientUnits="userSpaceOnUse">
<stop stop-color="#F6D751"/>
<stop offset="1" stop-color="#E6AD10"/>
</linearGradient>
<linearGradient id="paint2_linear_3728_159" x1="12.4973" y1="50" x2="32.9253" y2="98.4141" gradientUnits="userSpaceOnUse">
<stop stop-color="#F9E589"/>
<stop offset="1" stop-color="#F6D751"/>
</linearGradient>
<clipPath id="clip0_3728_159">
<rect width="100" height="100" fill="white"/>
</clipPath>
</defs>
</svg>
