<svg id="Layer_1" data-name="Layer 1" xmlns="http://www.w3.org/2000/svg" viewBox="0 0 300 300"><defs><style>.cls-1{fill:#ee3524;fill-rule:evenodd;}</style></defs><title>-icon-color</title><path id="Fill-3" class="cls-1" d="M143.05,218.61a91.5,91.5,0,0,0,33-10.75c25.1-14.08,39.6-38.27,40.82-68.12l.11-2.59h34.73a103.2,103.2,0,0,0-18.78-47.79l-35.54,23c10.81,17.08,12.21,36,4,54.91-9.72,22.4-32.64,42-58.32,51.36"/><path id="Fill-5" class="cls-1" d="M252.22,142.54H222.06c-2,30.21-17.76,55.63-43.43,70a98.71,98.71,0,0,1-48.35,12.3,111.21,111.21,0,0,1-39.43-7.35,95.62,95.62,0,0,0,50.74,15.07h.28c32.44,0,61.57-17.3,77.95-46.31l1.39-2.46,20.18,12.9A103.24,103.24,0,0,0,252.51,150c0-2.51-.12-5-.29-7.46"/><path id="Fill-7" class="cls-1" d="M141.87,238h-.29c-32.33-.1-62.7-16.23-84.32-44,16.43,35,51.82,59.33,92.74,59.33a102.4,102.4,0,0,0,88.83-51.86l-15.78-10.08c-17.58,29.25-47.71,46.6-81.18,46.6"/><path id="Fill-9" class="cls-1" d="M150,.5C68.07.5,1.65,67.43,1.65,150S68.07,299.5,150,299.5,298.35,232.57,298.35,150,231.93.5,150,.5m0,258.2C90.43,258.7,42.14,210,42.14,150S90.43,41.3,150,41.3,257.86,90,257.86,150,209.57,258.7,150,258.7"/></svg>